<svg width="868" height="91" viewBox="0 0 868 91" fill="none" xmlns="http://www.w3.org/2000/svg">
<path d="M258.008 57.7666C257.887 61.7525 254.639 64.8944 250.672 64.8944C246.706 64.8944 243.458 61.7525 243.215 57.7666H242.254C239.249 57.7666 237.559 54.1366 239.724 51.8488C237.316 50.6388 237.083 47.3748 239.239 45.8089V44.4769C238.996 40.8469 237.073 38.3151 235.029 35.651C232.267 32.143 229.373 28.2792 229.373 21.2734C229.373 15.4674 231.781 10.0377 235.626 6.28566C243.681 -1.93014 256.672 -2.05216 264.969 5.68574C267.135 7.61767 268.814 10.0377 270.018 12.5695C271.819 16.5554 272.305 21.2734 271.465 25.6253C270.504 29.9772 268.339 32.8751 266.295 35.6612C264.251 38.3151 262.329 40.8571 262.086 44.4871V45.9411C262.207 46.0631 262.329 46.1851 262.45 46.3072C264.13 47.9951 263.654 50.7811 261.61 51.8691C263.654 54.1671 262.096 57.7869 259.081 57.7869H258.008V57.7666ZM244.783 57.7666C244.905 60.9085 247.546 63.4505 250.672 63.4505C253.799 63.4505 256.45 60.9085 256.561 57.7666H244.783ZM242.132 52.2046C239.603 52.3267 239.603 56.3125 242.254 56.3125H259.091C261.62 56.3125 261.732 52.3267 259.091 52.2046H242.132ZM241.293 45.1988H249.954V40.7249C249.468 40.6029 248.993 40.2368 248.628 40.003C248.143 39.403 247.789 38.6709 247.789 37.949C247.789 37.1051 248.153 36.495 248.628 35.8951C249.114 35.407 249.832 35.0511 250.672 35.0511C251.391 35.0511 252.119 35.4172 252.595 35.8951C253.192 36.495 253.435 37.1051 253.435 37.949C253.435 38.6709 253.192 39.403 252.595 40.003C252.352 40.247 251.876 40.6029 251.391 40.7249V45.1988H260.052C260.173 45.1988 260.416 45.1988 260.649 45.3209C260.77 41.0909 261.61 39.281 265.101 34.6851C267.145 32.143 269.31 29.2451 270.029 25.0152C270.747 21.1514 270.393 17.0435 268.824 13.5355C267.742 10.9935 266.184 8.70566 264.13 6.88557C256.43 -0.486276 244.288 -0.364258 236.709 7.25162C233.097 10.8816 230.932 15.8335 230.932 21.2734C230.932 27.8013 233.572 31.4211 236.223 34.8071C239.947 39.6369 240.554 41.335 240.675 45.1988C240.928 45.1988 241.05 45.1988 241.293 45.1988ZM260.052 46.6529H241.293C238.652 46.6529 238.652 50.7608 241.293 50.7608H260.052C262.703 50.7608 262.703 46.6529 260.052 46.6529ZM251.634 36.983C251.391 36.739 251.037 36.617 250.672 36.617C250.308 36.617 249.954 36.739 249.711 36.983C249.468 37.2271 249.225 37.583 249.225 37.949C249.225 38.3151 249.468 38.6709 249.711 38.915C249.954 39.159 250.308 39.281 250.672 39.281C251.037 39.281 251.391 39.159 251.634 38.915C251.876 38.6709 251.998 38.3151 251.998 37.949C251.998 37.583 251.876 37.2271 251.634 36.983ZM259.334 32.2651C258.848 33.5971 257.654 34.563 256.207 34.441C254.527 34.441 253.202 32.987 253.202 31.2991C253.323 30.0891 254.042 29.0011 255.003 28.5232C255.964 28.1572 255.367 26.8353 254.406 27.1912C254.042 27.4352 253.809 27.5572 253.445 27.7911V27.9131C252.483 26.7031 252.119 25.0152 252.726 23.6832C252.848 23.4392 252.969 23.3172 253.091 23.0833C253.809 23.6832 254.659 24.0493 255.499 24.1713C255.499 24.6594 255.62 25.0152 255.742 25.5033C256.106 26.3472 257.421 25.7473 257.067 24.9034C256.824 24.1814 256.946 23.3273 257.553 22.8494C258.393 22.2495 257.431 21.0395 256.713 21.6394C256.349 22.0055 255.994 22.3614 255.873 22.8494C254.426 22.4834 253.344 21.5174 252.989 20.3074C252.504 19.2194 252.747 17.8874 253.354 16.9215C253.596 16.4334 254.072 16.0775 254.558 15.8335C254.922 15.9555 255.519 16.0775 256.005 16.0775C256.49 16.0775 257.087 16.0775 257.573 15.8335C258.534 15.5894 258.059 14.2574 257.209 14.5015C256.844 14.6235 256.49 14.6235 256.005 14.6235C254.204 14.5015 252.757 12.9356 252.878 11.1155C252.999 9.18355 254.558 7.72952 256.369 7.85154C257.694 7.97356 258.777 8.69549 259.253 9.90549C258.888 10.0275 258.534 10.1495 258.291 10.2715C258.049 10.1495 257.694 9.90549 257.452 9.78347C256.612 9.2954 255.883 10.7494 256.855 11.1155C257.34 11.3595 257.694 11.9594 257.573 12.5695C257.452 13.5355 258.898 13.6575 259.02 12.6915C259.141 12.3255 259.141 11.9696 259.02 11.6036C259.141 11.4815 259.384 11.3595 259.617 11.3595C260.699 10.9935 261.904 11.2375 262.743 11.9594C263.947 13.2915 263.947 15.3454 262.622 16.5554C261.904 17.2773 262.986 18.3653 263.705 17.6434C263.947 17.3994 264.19 17.1553 264.302 16.7994C265.506 17.6434 266.103 18.8534 266.103 20.1854C265.981 22.3614 264.18 23.9272 262.015 23.9272C261.054 23.8052 261.054 25.2593 262.015 25.3813C262.733 25.3813 263.462 25.2593 264.059 25.0152C264.544 25.7372 264.656 26.4693 264.656 27.3132C264.534 29.3672 262.976 30.9432 260.932 30.9432C260.932 30.5772 260.811 30.2213 260.689 29.8552C260.932 29.6112 261.175 29.2553 261.286 29.0113C261.651 28.1673 260.325 27.4352 259.961 28.4114C259.597 29.0113 259.121 29.2553 258.393 29.1333C257.553 29.1333 257.431 30.4653 258.271 30.5873C258.635 30.7093 258.99 30.7093 259.354 30.5873C259.455 31.1771 259.455 31.6651 259.334 32.2651ZM252.119 21.9953C251.876 22.3614 251.634 22.7173 251.401 23.0833C250.561 25.1373 250.915 27.4352 252.483 29.0011C251.998 29.601 251.765 30.4551 251.765 31.1771C251.644 33.7191 253.566 35.8951 256.096 36.0069C257.421 36.0069 258.504 35.5188 259.344 34.7969C260.062 34.197 260.548 33.3429 260.791 32.3769C263.674 32.3769 265.961 30.2009 266.082 27.303C266.204 26.2151 265.84 25.2491 265.364 24.2831C266.568 23.3172 267.408 21.8631 267.529 20.2972C267.529 18.3653 266.568 16.5554 265 15.4674C265.718 12.6915 263.674 9.90549 260.791 9.66145C260.194 7.85154 258.382 6.51952 256.46 6.3975C253.698 6.27549 251.532 8.32944 251.411 10.9935C251.29 12.5695 251.897 14.0134 253.091 14.9794C252.726 15.3454 252.372 15.7013 252.129 16.1894C251.168 17.5214 251.047 19.2093 251.532 20.7853C251.634 21.1514 251.876 21.6293 252.119 21.9953ZM261.135 18.8534C262.096 18.7314 261.974 17.2773 261.013 17.3994C260.77 17.3994 260.649 17.3994 260.416 17.3994C259.455 17.3994 259.334 18.8534 260.295 18.8534C260.659 18.8534 260.892 18.8534 261.135 18.8534ZM242.011 32.2651C242.375 33.5971 243.579 34.563 245.138 34.441C246.817 34.441 248.143 32.987 248.021 31.2991C248.021 30.0891 247.303 29.0011 246.22 28.5232C245.38 28.1572 245.977 26.8353 246.817 27.1912C247.181 27.4352 247.536 27.5572 247.778 27.7911L247.9 27.9131C248.861 26.7031 249.104 25.0152 248.497 23.6832C248.375 23.4392 248.254 23.3172 248.133 23.0833C247.536 23.6832 246.686 24.0493 245.846 24.1713C245.846 24.6594 245.724 25.0152 245.603 25.5033C245.239 26.3472 243.802 25.7473 244.156 24.9034C244.52 24.1814 244.278 23.3273 243.67 22.8494C242.952 22.2495 243.913 21.0395 244.632 21.6394C244.996 22.0055 245.229 22.3614 245.471 22.8494C246.797 22.4834 247.88 21.5174 248.355 20.3074C248.719 19.2194 248.598 17.8874 247.991 16.9215C247.627 16.4334 247.273 16.0775 246.787 15.8335C246.301 15.9555 245.826 16.0775 245.34 16.0775C244.743 16.0775 244.257 16.0775 243.66 15.8335C242.821 15.5894 243.175 14.2574 244.146 14.5015C244.51 14.6235 244.864 14.6235 245.229 14.6235C247.151 14.5015 248.477 12.9356 248.477 11.1155C248.355 9.18355 246.797 7.72952 244.986 7.85154C243.66 7.97356 242.456 8.69549 241.981 9.90549H242.102C242.466 10.0275 242.82 10.1495 243.063 10.2715C243.306 10.1495 243.549 9.90549 243.903 9.78347C244.743 9.2954 245.35 10.7494 244.5 11.1155C243.903 11.3595 243.66 11.9594 243.66 12.5695C243.782 13.5355 242.335 13.6575 242.213 12.6915C242.213 12.3255 242.213 11.9696 242.335 11.6036C242.092 11.4815 241.849 11.3595 241.616 11.3595C240.655 10.9935 239.451 11.2375 238.611 11.9594C237.286 13.2915 237.286 15.3454 238.611 16.5554C239.33 17.2773 238.368 18.3653 237.65 17.6434C237.407 17.3994 237.164 17.1553 236.932 16.7994C235.849 17.6434 235.252 18.8534 235.252 20.1854C235.373 22.3614 237.175 23.9272 239.218 23.9272C240.18 23.8052 240.301 25.2593 239.34 25.3813C238.621 25.3813 237.893 25.2593 237.296 25.0152C236.81 25.7372 236.578 26.4693 236.699 27.3132C236.699 29.3672 238.379 30.9432 240.422 30.9432C240.422 30.5772 240.544 30.2213 240.665 29.8552C240.422 29.6112 240.18 29.2553 240.068 29.0113C239.583 28.1673 241.03 27.4352 241.394 28.4114C241.637 29.0113 242.234 29.2553 242.841 29.1333C243.802 29.1333 243.923 30.4653 242.962 30.5873C242.598 30.7093 242.244 30.7093 242.001 30.5873C241.768 31.1771 241.768 31.6651 242.011 32.2651ZM249.104 21.9953C249.468 22.3614 249.701 22.7173 249.822 23.0833C250.784 25.1373 250.308 27.4352 248.861 29.0011C249.225 29.601 249.458 30.4551 249.458 31.1771C249.579 33.7191 247.657 35.8951 245.127 36.0069C243.923 36.0069 242.719 35.5188 241.88 34.7969C241.161 34.197 240.675 33.3429 240.433 32.3769C237.67 32.3769 235.262 30.2009 235.141 27.303C235.141 26.2151 235.384 25.2491 235.981 24.2831C234.655 23.3172 233.815 21.8631 233.815 20.2972C233.694 18.3653 234.655 16.5554 236.345 15.4674C235.626 12.6915 237.549 9.90549 240.554 9.66145C241.151 7.85154 242.841 6.51952 244.885 6.3975C247.525 6.27549 249.812 8.32944 249.934 10.9935C250.055 12.5695 249.337 14.0134 248.133 14.9794C248.618 15.3454 248.972 15.7013 249.215 16.1894C250.055 17.5214 250.298 19.2093 249.701 20.7853C249.59 21.1514 249.468 21.6293 249.104 21.9953ZM240.089 18.8534C239.127 18.7314 239.37 17.2773 240.331 17.3994C240.574 17.3994 240.696 17.3994 240.928 17.3994C241.89 17.3994 241.89 18.8534 240.928 18.8534C240.686 18.8534 240.453 18.8534 240.089 18.8534ZM226.5 40.6029C225.66 41.0909 224.82 39.8809 225.66 39.3929L229.748 36.373C230.588 35.773 231.427 36.9729 230.588 37.583L226.5 40.6029ZM275.685 39.403C276.403 39.8911 275.563 41.0909 274.845 40.613L270.636 37.5931C269.917 36.9932 270.757 35.7832 271.597 36.3831L275.685 39.403ZM280.501 16.0775C281.462 15.9555 281.705 17.4095 280.744 17.5315L275.695 18.3755C274.734 18.4975 274.491 17.0435 275.452 16.9215L280.501 16.0775ZM280.501 27.4352C281.462 27.6793 281.219 29.1231 280.258 28.8893L275.209 27.8013C274.248 27.6793 274.612 26.2252 275.573 26.4693L280.501 27.4352ZM275.442 4.23171C276.282 3.63179 277.121 4.83162 276.282 5.44171L272.072 8.21759C271.233 8.8175 270.393 7.49566 271.233 7.00759L275.442 4.23171ZM220.611 17.5214C219.65 17.3994 219.892 15.9453 220.854 16.0673L225.903 16.9113C226.864 17.0333 226.621 18.4873 225.66 18.3653L220.611 17.5214ZM221.086 28.8893C220.125 29.1333 219.882 27.6793 220.722 27.4352L225.771 26.4693C226.732 26.2252 226.975 27.6793 226.014 27.8013L221.086 28.8893ZM225.053 5.44171C224.213 4.84179 225.053 3.63179 225.771 4.23171L230.102 7.00759C230.345 7.25162 230.466 7.72952 230.223 7.97356C229.98 8.33961 229.626 8.46162 229.262 8.21759L225.053 5.44171Z" fill="#FF00B7"/>
<path d="M524.663 13.2853H495.953V25.7682H514.499V39.0535H495.953V51.5363H524.663V64.8217H482.578V0H524.663V13.2853ZM512.805 27.4623H494.169V11.5912H522.969V1.6941H484.361V63.1276H522.969V53.2305H494.169V37.3594H512.805V27.4623ZM581.523 0.802468V5.61728C581.523 15.7819 577.599 25.5007 570.734 32.8121C577.599 40.1235 581.523 49.8422 581.523 60.0069V64.7325H568.416V60.0069C568.416 52.963 565.652 46.2757 560.837 41.3717C555.933 46.2757 553.169 52.963 553.169 60.0069V64.7325H540.062V60.0069C540.062 49.8422 543.985 40.1235 550.851 32.8121C543.985 25.5007 540.062 15.7819 540.062 5.61728V0.802468H553.169V5.61728C553.169 12.572 555.933 19.2593 560.837 24.2524C565.652 19.2593 568.416 12.572 568.416 5.61728V0.802468H581.523ZM579.829 5.61728V2.49657H570.11V5.61728C570.11 13.0178 567.257 20.0617 561.996 25.4115L560.837 26.6598L559.589 25.4115C554.417 20.0617 551.475 13.0178 551.475 5.61728V2.49657H541.756V5.61728C541.756 15.2469 545.412 24.5199 552.099 31.6529L553.169 32.8121L552.099 33.9712C545.412 41.0151 541.756 50.2881 541.756 60.0069V63.0384H551.475V60.0069C551.475 52.5171 554.417 45.4733 559.589 40.2126L560.837 38.9643L561.996 40.2126C567.257 45.4733 570.11 52.5171 570.11 60.0069V63.0384H579.829V60.0069C579.829 50.2881 576.173 41.0151 569.575 33.9712L568.416 32.8121L569.575 31.6529C576.173 24.5199 579.829 15.2469 579.829 5.61728ZM621.798 12.3045C623.135 12.3045 624.562 12.8395 625.543 13.8203C626.523 14.8903 627.148 16.2277 627.148 17.6543V22.6475C627.148 24.0741 626.523 25.4115 625.543 26.4815C624.562 27.4623 623.135 27.9973 621.798 27.9973H608.423V12.3045H621.798ZM625.453 22.6475V17.6543C625.453 16.6735 625.008 15.7819 624.383 15.0686C623.67 14.3553 622.689 13.9986 621.798 13.9986H610.117V26.3032H621.798C622.689 26.3032 623.67 25.9465 624.383 25.2332C625.008 24.6091 625.453 23.6283 625.453 22.6475ZM633.656 5.70645C636.866 8.91632 638.56 13.107 638.56 17.6543V22.6475C638.56 27.1948 636.866 31.3855 633.656 34.5953C630.446 37.716 626.256 39.4993 621.798 39.4993H610.117V65H596.921V0.802468H621.798C626.256 0.802468 630.446 2.58573 633.656 5.70645ZM636.866 22.6475V17.6543C636.866 13.5528 635.351 9.80796 632.497 6.95473C629.644 4.10151 625.81 2.49657 621.798 2.49657H598.615V63.3059H608.423V37.8052H621.798C625.81 37.8052 629.644 36.2003 632.497 33.347C635.351 30.4938 636.866 26.749 636.866 22.6475ZM678.835 12.3045C680.262 12.3045 681.6 12.8395 682.58 13.8203C683.65 14.8903 684.185 16.2277 684.185 17.6543V22.6475C684.185 24.0741 683.65 25.4115 682.58 26.4815C681.6 27.4623 680.262 27.9973 678.835 27.9973H665.461V12.3045H678.835ZM682.491 22.6475V17.6543C682.491 16.6735 682.134 15.7819 681.421 15.0686C680.708 14.3553 679.816 13.9986 678.835 13.9986H667.155V26.3032H678.835C679.816 26.3032 680.708 25.9465 681.421 25.2332C682.134 24.6091 682.491 23.6283 682.491 22.6475ZM695.687 17.6543V22.6475C695.687 26.4815 694.439 29.9588 692.21 32.9012C694.439 35.8436 695.687 39.4102 695.687 43.155V65H682.491V43.155C682.491 42.1742 682.045 41.2826 681.421 40.5693C680.708 39.856 679.816 39.4993 678.835 39.4993H667.155V65H653.959V0.802468H678.835C683.294 0.802468 687.573 2.58573 690.694 5.70645C693.904 8.91632 695.687 13.107 695.687 17.6543ZM693.993 22.6475V17.6543C693.993 13.5528 692.388 9.80796 689.535 6.95473C686.682 4.10151 682.848 2.49657 678.835 2.49657H655.653V63.3059H665.461V37.8052H678.835C680.262 37.8052 681.6 38.3402 682.58 39.4102C683.65 40.3909 684.185 41.7284 684.185 43.155V63.3059H693.993V43.155C693.993 39.7668 692.923 36.6461 690.872 33.9712L690.07 32.9012L690.872 31.9204C692.923 29.2455 693.993 26.0357 693.993 22.6475ZM753.082 13.2853H724.371V25.7682H742.917V39.0535H724.371V51.5363H753.082V64.8217H710.997V0H753.082V13.2853ZM741.223 27.4623H722.588V11.5912H751.388V1.6941H712.78V63.1276H751.388V53.2305H722.588V37.3594H741.223V27.4623ZM810.119 20.9534H796.923V17.6543C796.923 16.6735 796.567 15.7819 795.853 15.0686C795.229 14.3553 794.248 13.9986 793.268 13.9986H785.332C784.351 13.9986 783.37 14.3553 782.746 15.0686C782.033 15.7819 781.676 16.6735 781.676 17.6543V22.6475C781.676 23.6283 782.033 24.6091 782.746 25.2332C783.37 25.9465 784.351 26.3032 785.332 26.3032H793.268C797.815 26.3032 802.006 28.0864 805.215 31.2963C808.336 34.417 810.119 38.6968 810.119 43.155V48.2373C810.119 52.6955 808.336 56.8861 805.215 60.096C802.006 63.3059 797.815 65 793.268 65H785.332C780.785 65 776.594 63.3059 773.384 60.096C770.174 56.8861 768.48 52.6955 768.48 48.2373V44.9383H781.676V48.2373C781.676 49.2181 782.033 50.1097 782.746 50.823C783.37 51.4472 784.351 51.893 785.332 51.893H793.268C794.248 51.893 795.229 51.4472 795.853 50.823C796.567 50.1097 796.923 49.2181 796.923 48.2373V43.155C796.923 42.1742 796.567 41.2826 795.853 40.5693C795.229 39.856 794.248 39.4993 793.268 39.4993H785.332C780.785 39.4993 776.594 37.716 773.384 34.5953C770.174 31.3855 768.48 27.1948 768.48 22.6475V17.6543C768.48 13.107 770.174 8.91632 773.384 5.70645C776.594 2.58573 780.785 0.802468 785.332 0.802468H793.268C797.815 0.802468 802.006 2.58573 805.215 5.70645C808.336 8.91632 810.119 13.107 810.119 17.6543V20.9534ZM793.268 12.3045C794.694 12.3045 796.032 12.8395 797.102 13.8203C798.082 14.8903 798.617 16.2277 798.617 17.6543V19.2593H808.425V17.6543C808.425 13.5528 806.82 9.80796 803.967 6.95473C801.114 4.10151 797.369 2.49657 793.268 2.49657H785.332C781.231 2.49657 777.486 4.10151 774.632 6.95473C771.69 9.80796 770.174 13.5528 770.174 17.6543V22.6475C770.174 26.749 771.69 30.4938 774.632 33.347C777.486 36.2003 781.231 37.8052 785.332 37.8052H793.268C794.694 37.8052 796.032 38.3402 797.102 39.4102C798.082 40.3909 798.617 41.7284 798.617 43.155V48.2373C798.617 49.6639 798.082 51.0014 797.102 51.9822C796.032 52.963 794.694 53.5871 793.268 53.5871H785.332C783.816 53.5871 782.479 52.963 781.498 51.9822C780.517 51.0014 779.982 49.6639 779.982 48.2373V46.6324H770.174V48.2373C770.174 52.2497 771.69 56.0837 774.632 58.9369C777.486 61.7901 781.231 63.3059 785.332 63.3059H793.268C797.369 63.3059 801.114 61.7901 803.967 58.9369C806.82 56.0837 808.425 52.2497 808.425 48.2373V43.155C808.425 39.1427 806.82 35.3086 803.967 32.4554C801.114 29.6022 797.369 27.9973 793.268 27.9973H785.332C783.816 27.9973 782.479 27.4623 781.498 26.4815C780.517 25.4115 779.982 24.0741 779.982 22.6475V17.6543C779.982 16.2277 780.517 14.8903 781.498 13.8203C782.479 12.8395 783.816 12.3045 785.332 12.3045H793.268ZM867.157 20.9534H853.961V17.6543C853.961 16.6735 853.604 15.7819 852.891 15.0686C852.267 14.3553 851.286 13.9986 850.305 13.9986H842.37C841.389 13.9986 840.408 14.3553 839.784 15.0686C839.071 15.7819 838.714 16.6735 838.714 17.6543V22.6475C838.714 23.6283 839.071 24.6091 839.784 25.2332C840.408 25.9465 841.389 26.3032 842.37 26.3032H850.305C854.853 26.3032 859.043 28.0864 862.253 31.2963C865.374 34.417 867.157 38.6968 867.157 43.155V48.2373C867.157 52.6955 865.374 56.8861 862.253 60.096C859.043 63.3059 854.853 65 850.305 65H842.37C837.822 65 833.632 63.3059 830.422 60.096C827.212 56.8861 825.518 52.6955 825.518 48.2373V44.9383H838.714V48.2373C838.714 49.2181 839.071 50.1097 839.784 50.823C840.408 51.4472 841.389 51.893 842.37 51.893H850.305C851.286 51.893 852.267 51.4472 852.891 50.823C853.604 50.1097 853.961 49.2181 853.961 48.2373V43.155C853.961 42.1742 853.604 41.2826 852.891 40.5693C852.267 39.856 851.286 39.4993 850.305 39.4993H842.37C837.822 39.4993 833.632 37.716 830.422 34.5953C827.212 31.3855 825.518 27.1948 825.518 22.6475V17.6543C825.518 13.107 827.212 8.91632 830.422 5.70645C833.632 2.58573 837.822 0.802468 842.37 0.802468H850.305C854.853 0.802468 859.043 2.58573 862.253 5.70645C865.374 8.91632 867.157 13.107 867.157 17.6543V20.9534ZM850.305 12.3045C851.732 12.3045 853.069 12.8395 854.139 13.8203C855.12 14.8903 855.655 16.2277 855.655 17.6543V19.2593H865.463V17.6543C865.463 13.5528 863.858 9.80796 861.005 6.95473C858.152 4.10151 854.407 2.49657 850.305 2.49657H842.37C838.268 2.49657 834.523 4.10151 831.67 6.95473C828.728 9.80796 827.212 13.5528 827.212 17.6543V22.6475C827.212 26.749 828.728 30.4938 831.67 33.347C834.523 36.2003 838.268 37.8052 842.37 37.8052H850.305C851.732 37.8052 853.069 38.3402 854.139 39.4102C855.12 40.3909 855.655 41.7284 855.655 43.155V48.2373C855.655 49.6639 855.12 51.0014 854.139 51.9822C853.069 52.963 851.732 53.5871 850.305 53.5871H842.37C840.854 53.5871 839.517 52.963 838.536 51.9822C837.555 51.0014 837.02 49.6639 837.02 48.2373V46.6324H827.212V48.2373C827.212 52.2497 828.728 56.0837 831.67 58.9369C834.523 61.7901 838.268 63.3059 842.37 63.3059H850.305C854.407 63.3059 858.152 61.7901 861.005 58.9369C863.858 56.0837 865.463 52.2497 865.463 48.2373V43.155C865.463 39.1427 863.858 35.3086 861.005 32.4554C858.152 29.6022 854.407 27.9973 850.305 27.9973H842.37C840.854 27.9973 839.517 27.4623 838.536 26.4815C837.555 25.4115 837.02 24.0741 837.02 22.6475V17.6543C837.02 16.2277 837.555 14.8903 838.536 13.8203C839.517 12.8395 840.854 12.3045 842.37 12.3045H850.305Z" fill="black"/>
<path d="M512.805 27.4623H494.169V11.5912H522.969V1.6941H484.361V63.1276H522.969V53.2305H494.169V37.3594H512.805V27.4623Z" fill="black"/>
<path d="M579.829 5.61728V2.49657H570.11V5.61728C570.11 13.0178 567.257 20.0617 561.996 25.4115L560.837 26.6598L559.589 25.4115C554.417 20.0617 551.475 13.0178 551.475 5.61728V2.49657H541.756V5.61728C541.756 15.2469 545.412 24.5199 552.099 31.6529L553.169 32.8121L552.099 33.9712C545.412 41.0151 541.756 50.2881 541.756 60.0069V63.0384H551.475V60.0069C551.475 52.5171 554.417 45.4733 559.589 40.2126L560.837 38.9643L561.996 40.2126C567.257 45.4733 570.11 52.5171 570.11 60.0069V63.0384H579.829V60.0069C579.829 50.2881 576.173 41.0151 569.575 33.9712L568.416 32.8121L569.575 31.6529C576.173 24.5199 579.829 15.2469 579.829 5.61728Z" fill="black"/>
<path fill-rule="evenodd" clip-rule="evenodd" d="M636.866 22.6475V17.6543C636.866 13.5528 635.351 9.80796 632.497 6.95473C629.644 4.10151 625.81 2.49657 621.798 2.49657H598.615V63.3059H608.423V37.8052H621.798C625.81 37.8052 629.644 36.2003 632.497 33.347C635.351 30.4938 636.866 26.749 636.866 22.6475ZM625.543 13.8203C624.562 12.8395 623.135 12.3045 621.798 12.3045H608.423V27.9973H621.798C623.135 27.9973 624.562 27.4623 625.543 26.4815C626.523 25.4115 627.148 24.0741 627.148 22.6475V17.6543C627.148 16.2277 626.523 14.8903 625.543 13.8203Z" fill="black"/>
<path fill-rule="evenodd" clip-rule="evenodd" d="M693.993 22.6475V17.6543C693.993 13.5528 692.388 9.80796 689.535 6.95473C686.682 4.10151 682.848 2.49657 678.835 2.49657H655.653V63.3059H665.461V37.8052H678.835C680.262 37.8052 681.6 38.3402 682.58 39.4102C683.65 40.3909 684.185 41.7284 684.185 43.155V63.3059H693.993V43.155C693.993 39.7668 692.923 36.6461 690.872 33.9712L690.07 32.9012L690.872 31.9204C692.923 29.2455 693.993 26.0357 693.993 22.6475ZM682.58 13.8203C681.6 12.8395 680.262 12.3045 678.835 12.3045H665.461V27.9973H678.835C680.262 27.9973 681.6 27.4623 682.58 26.4815C683.65 25.4115 684.185 24.0741 684.185 22.6475V17.6543C684.185 16.2277 683.65 14.8903 682.58 13.8203Z" fill="black"/>
<path d="M741.223 27.4623H722.588V11.5912H751.388V1.6941H712.78V63.1276H751.388V53.2305H722.588V37.3594H741.223V27.4623Z" fill="black"/>
<path d="M793.268 12.3045C794.694 12.3045 796.032 12.8395 797.102 13.8203C798.082 14.8903 798.617 16.2277 798.617 17.6543V19.2593H808.425V17.6543C808.425 13.5528 806.82 9.80796 803.967 6.95473C801.114 4.10151 797.369 2.49657 793.268 2.49657H785.332C781.231 2.49657 777.486 4.10151 774.632 6.95473C771.69 9.80796 770.174 13.5528 770.174 17.6543V22.6475C770.174 26.749 771.69 30.4938 774.632 33.347C777.486 36.2003 781.231 37.8052 785.332 37.8052H793.268C794.694 37.8052 796.032 38.3402 797.102 39.4102C798.082 40.3909 798.617 41.7284 798.617 43.155V48.2373C798.617 49.6639 798.082 51.0014 797.102 51.9822C796.032 52.963 794.694 53.5871 793.268 53.5871H785.332C783.816 53.5871 782.479 52.963 781.498 51.9822C780.517 51.0014 779.982 49.6639 779.982 48.2373V46.6324H770.174V48.2373C770.174 52.2497 771.69 56.0837 774.632 58.9369C777.486 61.7901 781.231 63.3059 785.332 63.3059H793.268C797.369 63.3059 801.114 61.7901 803.967 58.9369C806.82 56.0837 808.425 52.2497 808.425 48.2373V43.155C808.425 39.1427 806.82 35.3086 803.967 32.4554C801.114 29.6022 797.369 27.9973 793.268 27.9973H785.332C783.816 27.9973 782.479 27.4623 781.498 26.4815C780.517 25.4115 779.982 24.0741 779.982 22.6475V17.6543C779.982 16.2277 780.517 14.8903 781.498 13.8203C782.479 12.8395 783.816 12.3045 785.332 12.3045H793.268Z" fill="black"/>
<path d="M850.305 12.3045C851.732 12.3045 853.069 12.8395 854.139 13.8203C855.12 14.8903 855.655 16.2277 855.655 17.6543V19.2593H865.463V17.6543C865.463 13.5528 863.858 9.80796 861.005 6.95473C858.152 4.10151 854.407 2.49657 850.305 2.49657H842.37C838.268 2.49657 834.523 4.10151 831.67 6.95473C828.728 9.80796 827.212 13.5528 827.212 17.6543V22.6475C827.212 26.749 828.728 30.4938 831.67 33.347C834.523 36.2003 838.268 37.8052 842.37 37.8052H850.305C851.732 37.8052 853.069 38.3402 854.139 39.4102C855.12 40.3909 855.655 41.7284 855.655 43.155V48.2373C855.655 49.6639 855.12 51.0014 854.139 51.9822C853.069 52.963 851.732 53.5871 850.305 53.5871H842.37C840.854 53.5871 839.517 52.963 838.536 51.9822C837.555 51.0014 837.02 49.6639 837.02 48.2373V46.6324H827.212V48.2373C827.212 52.2497 828.728 56.0837 831.67 58.9369C834.523 61.7901 838.268 63.3059 842.37 63.3059H850.305C854.407 63.3059 858.152 61.7901 861.005 58.9369C863.858 56.0837 865.463 52.2497 865.463 48.2373V43.155C865.463 39.1427 863.858 35.3086 861.005 32.4554C858.152 29.6022 854.407 27.9973 850.305 27.9973H842.37C840.854 27.9973 839.517 27.4623 838.536 26.4815C837.555 25.4115 837.02 24.0741 837.02 22.6475V17.6543C837.02 16.2277 837.555 14.8903 838.536 13.8203C839.517 12.8395 840.854 12.3045 842.37 12.3045H850.305Z" fill="black"/>
<path fill-rule="evenodd" clip-rule="evenodd" d="M155.254 49.5056V17.5875C155.254 13.3069 153.6 9.39861 150.66 6.42083C147.72 3.44306 143.769 1.76806 139.635 1.76806H131.365C127.231 1.76806 123.28 3.44306 120.34 6.42083C117.4 9.39861 115.746 13.3069 115.746 17.5875V49.5056C115.746 53.6931 117.4 57.6944 120.34 60.6722C123.28 63.65 127.231 65.2319 131.365 65.2319H139.635C143.769 65.2319 147.72 63.65 150.66 60.6722C153.6 57.6944 155.254 53.6931 155.254 49.5056ZM143.494 13.5861C142.483 12.5625 141.105 12.0042 139.635 12.0042H131.365C129.895 12.0042 128.517 12.5625 127.506 13.5861C126.404 14.7028 125.853 16.0986 125.853 17.5875V49.5056C125.853 50.9944 126.404 52.3903 127.506 53.4139C128.517 54.4375 129.895 55.0889 131.365 55.0889H139.635C141.105 55.0889 142.483 54.4375 143.494 53.4139C144.596 52.3903 145.147 50.9944 145.147 49.5056V17.5875C145.147 16.0986 144.596 14.7028 143.494 13.5861Z" fill="#FF00B7"/>
<path d="M24.8765 12.3045C26.214 12.3045 27.6406 12.8395 28.6214 13.8203C29.6022 14.8903 30.2263 16.2277 30.2263 17.6543V22.6475C30.2263 24.0741 29.6022 25.4115 28.6214 26.4815C27.6406 27.4623 26.214 27.9973 24.8765 27.9973H11.5021V12.3045H24.8765ZM28.5322 22.6475V17.6543C28.5322 16.6735 28.0864 15.7819 27.4623 15.0686C26.749 14.3553 25.7682 13.9986 24.8765 13.9986H13.1962V26.3032H24.8765C25.7682 26.3032 26.749 25.9465 27.4623 25.2332C28.0864 24.6091 28.5322 23.6283 28.5322 22.6475ZM36.7353 5.70645C39.9451 8.91632 41.6392 13.107 41.6392 17.6543V22.6475C41.6392 27.1948 39.9451 31.3855 36.7353 34.5953C33.5254 37.716 29.3347 39.4993 24.8765 39.4993H13.1962V65H0V0.802468H24.8765C29.3347 0.802468 33.5254 2.58573 36.7353 5.70645ZM39.9451 22.6475V17.6543C39.9451 13.5528 38.4294 9.80796 35.5761 6.95473C32.7229 4.10151 28.8889 2.49657 24.8765 2.49657H1.6941V63.3059H11.5021V37.8052H24.8765C28.8889 37.8052 32.7229 36.2003 35.5761 33.347C38.4294 30.4938 39.9451 26.749 39.9451 22.6475ZM81.9143 12.3045C83.3409 12.3045 84.6783 12.8395 85.6591 13.8203C86.7291 14.8903 87.2641 16.2277 87.2641 17.6543V22.6475C87.2641 24.0741 86.7291 25.4115 85.6591 26.4815C84.6783 27.4623 83.3409 27.9973 81.9143 27.9973H68.5398V12.3045H81.9143ZM85.57 22.6475V17.6543C85.57 16.6735 85.2133 15.7819 84.5 15.0686C83.7867 14.3553 82.8951 13.9986 81.9143 13.9986H70.2339V26.3032H81.9143C82.8951 26.3032 83.7867 25.9465 84.5 25.2332C85.2133 24.6091 85.57 23.6283 85.57 22.6475ZM98.7661 17.6543V22.6475C98.7661 26.4815 97.5178 29.9588 95.2888 32.9012C97.5178 35.8436 98.7661 39.4102 98.7661 43.155V65H85.57V43.155C85.57 42.1742 85.1241 41.2826 84.5 40.5693C83.7867 39.856 82.8951 39.4993 81.9143 39.4993H70.2339V65H57.0377V0.802468H81.9143C86.3724 0.802468 90.6523 2.58573 93.773 5.70645C96.9829 8.91632 98.7661 13.107 98.7661 17.6543ZM97.072 22.6475V17.6543C97.072 13.5528 95.4671 9.80796 92.6139 6.95473C89.7606 4.10151 85.9266 2.49657 81.9143 2.49657H58.7318V63.3059H68.5398V37.8052H81.9143C83.3409 37.8052 84.6783 38.3402 85.6591 39.4102C86.7291 40.3909 87.2641 41.7284 87.2641 43.155V63.3059H97.072V43.155C97.072 39.7668 96.0021 36.6461 93.9513 33.9712L93.1488 32.9012L93.9513 31.9204C96.0021 29.2455 97.072 26.0357 97.072 22.6475ZM196.168 12.3045C197.506 12.3045 198.932 12.8395 199.913 13.8203C200.894 14.8903 201.518 16.2277 201.518 17.6543V22.6475C201.518 24.0741 200.894 25.4115 199.913 26.4815C198.932 27.4623 197.506 27.9973 196.168 27.9973H182.794V12.3045H196.168ZM199.824 22.6475V17.6543C199.824 16.6735 199.378 15.7819 198.754 15.0686C198.04 14.3553 197.06 13.9986 196.168 13.9986H184.488V26.3032H196.168C197.06 26.3032 198.04 25.9465 198.754 25.2332C199.378 24.6091 199.824 23.6283 199.824 22.6475ZM208.027 5.70645C211.237 8.91632 212.931 13.107 212.931 17.6543V22.6475C212.931 27.1948 211.237 31.3855 208.027 34.5953C204.817 37.716 200.626 39.4993 196.168 39.4993H184.488V65H171.292V0.802468H196.168C200.626 0.802468 204.817 2.58573 208.027 5.70645ZM211.237 22.6475V17.6543C211.237 13.5528 209.721 9.80796 206.868 6.95473C204.014 4.10151 200.18 2.49657 196.168 2.49657H172.986V63.3059H182.794V37.8052H196.168C200.18 37.8052 204.014 36.2003 206.868 33.347C209.721 30.4938 211.237 26.749 211.237 22.6475ZM327.095 20.9534H313.899V17.6543C313.899 16.6735 313.543 15.7819 312.829 15.0686C312.205 14.3553 311.224 13.9986 310.243 13.9986H302.308C301.327 13.9986 300.346 14.3553 299.722 15.0686C299.009 15.7819 298.652 16.6735 298.652 17.6543V22.6475C298.652 23.6283 299.009 24.6091 299.722 25.2332C300.346 25.9465 301.327 26.3032 302.308 26.3032H310.243C314.791 26.3032 318.982 28.0864 322.191 31.2963C325.312 34.417 327.095 38.6968 327.095 43.155V48.2373C327.095 52.6955 325.312 56.8861 322.191 60.096C318.982 63.3059 314.791 65 310.243 65H302.308C297.761 65 293.57 63.3059 290.36 60.096C287.15 56.8861 285.456 52.6955 285.456 48.2373V44.9383H298.652V48.2373C298.652 49.2181 299.009 50.1097 299.722 50.823C300.346 51.4472 301.327 51.893 302.308 51.893H310.243C311.224 51.893 312.205 51.4472 312.829 50.823C313.543 50.1097 313.899 49.2181 313.899 48.2373V43.155C313.899 42.1742 313.543 41.2826 312.829 40.5693C312.205 39.856 311.224 39.4993 310.243 39.4993H302.308C297.761 39.4993 293.57 37.716 290.36 34.5953C287.15 31.3855 285.456 27.1948 285.456 22.6475V17.6543C285.456 13.107 287.15 8.91632 290.36 5.70645C293.57 2.58573 297.761 0.802468 302.308 0.802468H310.243C314.791 0.802468 318.982 2.58573 322.191 5.70645C325.312 8.91632 327.095 13.107 327.095 17.6543V20.9534ZM310.243 12.3045C311.67 12.3045 313.008 12.8395 314.078 13.8203C315.058 14.8903 315.593 16.2277 315.593 17.6543V19.2593H325.401V17.6543C325.401 13.5528 323.796 9.80796 320.943 6.95473C318.09 4.10151 314.345 2.49657 310.243 2.49657H302.308C298.206 2.49657 294.462 4.10151 291.608 6.95473C288.666 9.80796 287.15 13.5528 287.15 17.6543V22.6475C287.15 26.749 288.666 30.4938 291.608 33.347C294.462 36.2003 298.206 37.8052 302.308 37.8052H310.243C311.67 37.8052 313.008 38.3402 314.078 39.4102C315.058 40.3909 315.593 41.7284 315.593 43.155V48.2373C315.593 49.6639 315.058 51.0014 314.078 51.9822C313.008 52.963 311.67 53.5871 310.243 53.5871H302.308C300.792 53.5871 299.455 52.963 298.474 51.9822C297.493 51.0014 296.958 49.6639 296.958 48.2373V46.6324H287.15V48.2373C287.15 52.2497 288.666 56.0837 291.608 58.9369C294.462 61.7901 298.206 63.3059 302.308 63.3059H310.243C314.345 63.3059 318.09 61.7901 320.943 58.9369C323.796 56.0837 325.401 52.2497 325.401 48.2373V43.155C325.401 39.1427 323.796 35.3086 320.943 32.4554C318.09 29.6022 314.345 27.9973 310.243 27.9973H302.308C300.792 27.9973 299.455 27.4623 298.474 26.4815C297.493 25.4115 296.958 24.0741 296.958 22.6475V17.6543C296.958 16.2277 297.493 14.8903 298.474 13.8203C299.455 12.8395 300.792 12.3045 302.308 12.3045H310.243ZM341.602 0.802468H383.241V13.9986H369.064V65H355.868V13.9986H341.602V0.802468ZM381.547 12.3045V2.49657H343.385V12.3045H357.562V63.3059H367.37V12.3045H381.547ZM434.84 4.99314C438.05 8.20302 439.833 12.3937 439.833 16.941V64.8217H426.548V55.9945H411.034V64.8217H397.748V16.941C397.748 12.3937 399.532 8.20302 402.741 4.99314C405.951 1.78326 410.231 0 414.778 0H422.892C427.35 0 431.63 1.78326 434.84 4.99314ZM438.139 63.1276V16.941C438.139 12.9287 436.534 9.09465 433.681 6.15226C430.739 3.29904 426.905 1.6941 422.892 1.6941H414.778C410.677 1.6941 406.843 3.29904 403.99 6.15226C401.047 9.09465 399.442 12.9287 399.442 16.941V63.1276H409.34V54.3004H428.242V63.1276H438.139ZM422.892 11.5912C424.319 11.5912 425.656 12.1262 426.637 13.1962C427.707 14.177 428.242 15.5144 428.242 16.941V44.4033H409.34V16.941C409.34 15.5144 409.964 14.177 410.944 13.1962C411.925 12.1262 413.352 11.5912 414.778 11.5912H422.892ZM426.548 42.7092V16.941C426.548 15.9602 426.102 15.0686 425.478 14.3553C424.765 13.642 423.873 13.2853 422.892 13.2853H414.778C413.798 13.2853 412.817 13.642 412.193 14.3553C411.479 15.0686 411.034 15.9602 411.034 16.941V42.7092H426.548Z" fill="#FF00B7"/>
<path fill-rule="evenodd" clip-rule="evenodd" d="M39.9451 22.6475V17.6543C39.9451 13.5528 38.4294 9.80796 35.5761 6.95473C32.7229 4.10151 28.8889 2.49657 24.8765 2.49657H1.6941V63.3059H11.5021V37.8052H24.8765C28.8889 37.8052 32.7229 36.2003 35.5761 33.347C38.4294 30.4938 39.9451 26.749 39.9451 22.6475ZM28.6214 13.8203C27.6406 12.8395 26.214 12.3045 24.8765 12.3045H11.5021V27.9973H24.8765C26.214 27.9973 27.6406 27.4623 28.6214 26.4815C29.6022 25.4115 30.2263 24.0741 30.2263 22.6475V17.6543C30.2263 16.2277 29.6022 14.8903 28.6214 13.8203Z" fill="#FF00B7"/>
<path fill-rule="evenodd" clip-rule="evenodd" d="M97.072 22.6475V17.6543C97.072 13.5528 95.4671 9.80796 92.6139 6.95473C89.7606 4.10151 85.9266 2.49657 81.9143 2.49657H58.7318V63.3059H68.5398V37.8052H81.9143C83.3409 37.8052 84.6783 38.3402 85.6591 39.4102C86.7291 40.3909 87.2641 41.7284 87.2641 43.155V63.3059H97.072V43.155C97.072 39.7668 96.0021 36.6461 93.9513 33.9712L93.1488 32.9012L93.9513 31.9204C96.0021 29.2455 97.072 26.0357 97.072 22.6475ZM85.6591 13.8203C84.6783 12.8395 83.3409 12.3045 81.9143 12.3045H68.5398V27.9973H81.9143C83.3409 27.9973 84.6783 27.4623 85.6591 26.4815C86.7291 25.4115 87.2641 24.0741 87.2641 22.6475V17.6543C87.2641 16.2277 86.7291 14.8903 85.6591 13.8203Z" fill="#FF00B7"/>
<path fill-rule="evenodd" clip-rule="evenodd" d="M211.237 22.6475V17.6543C211.237 13.5528 209.721 9.80796 206.868 6.95473C204.014 4.10151 200.18 2.49657 196.168 2.49657H172.986V63.3059H182.794V37.8052H196.168C200.18 37.8052 204.014 36.2003 206.868 33.347C209.721 30.4938 211.237 26.749 211.237 22.6475ZM199.913 13.8203C198.932 12.8395 197.506 12.3045 196.168 12.3045H182.794V27.9973H196.168C197.506 27.9973 198.932 27.4623 199.913 26.4815C200.894 25.4115 201.518 24.0741 201.518 22.6475V17.6543C201.518 16.2277 200.894 14.8903 199.913 13.8203Z" fill="#FF00B7"/>
<path d="M310.243 12.3045C311.67 12.3045 313.008 12.8395 314.078 13.8203C315.058 14.8903 315.593 16.2277 315.593 17.6543V19.2593H325.401V17.6543C325.401 13.5528 323.796 9.80796 320.943 6.95473C318.09 4.10151 314.345 2.49657 310.243 2.49657H302.308C298.206 2.49657 294.462 4.10151 291.608 6.95473C288.666 9.80796 287.15 13.5528 287.15 17.6543V22.6475C287.15 26.749 288.666 30.4938 291.608 33.347C294.462 36.2003 298.206 37.8052 302.308 37.8052H310.243C311.67 37.8052 313.008 38.3402 314.078 39.4102C315.058 40.3909 315.593 41.7284 315.593 43.155V48.2373C315.593 49.6639 315.058 51.0014 314.078 51.9822C313.008 52.963 311.67 53.5871 310.243 53.5871H302.308C300.792 53.5871 299.455 52.963 298.474 51.9822C297.493 51.0014 296.958 49.6639 296.958 48.2373V46.6324H287.15V48.2373C287.15 52.2497 288.666 56.0837 291.608 58.9369C294.462 61.7901 298.206 63.3059 302.308 63.3059H310.243C314.345 63.3059 318.09 61.7901 320.943 58.9369C323.796 56.0837 325.401 52.2497 325.401 48.2373V43.155C325.401 39.1427 323.796 35.3086 320.943 32.4554C318.09 29.6022 314.345 27.9973 310.243 27.9973H302.308C300.792 27.9973 299.455 27.4623 298.474 26.4815C297.493 25.4115 296.958 24.0741 296.958 22.6475V17.6543C296.958 16.2277 297.493 14.8903 298.474 13.8203C299.455 12.8395 300.792 12.3045 302.308 12.3045H310.243Z" fill="#FF00B7"/>
<path d="M381.547 12.3045V2.49657H343.385V12.3045H357.562V63.3059H367.37V12.3045H381.547Z" fill="#FF00B7"/>
<path fill-rule="evenodd" clip-rule="evenodd" d="M438.139 63.1276V16.941C438.139 12.9287 436.534 9.09465 433.681 6.15226C430.739 3.29904 426.905 1.6941 422.892 1.6941H414.778C410.677 1.6941 406.843 3.29904 403.99 6.15226C401.047 9.09465 399.442 12.9287 399.442 16.941V63.1276H409.34V54.3004H428.242V63.1276H438.139ZM426.637 13.1962C425.656 12.1262 424.319 11.5912 422.892 11.5912H414.778C413.352 11.5912 411.925 12.1262 410.944 13.1962C409.964 14.177 409.34 15.5144 409.34 16.941V44.4033H428.242V16.941C428.242 15.5144 427.707 14.177 426.637 13.1962Z" fill="#FF00B7"/>
<path d="M190.606 83.2448H188.694V89H187.255V83.2448H185.333V81.806H190.606V83.2448Z" fill="#FF00B7"/>
<path d="M200.535 84.4472L200.515 84.437C200.515 84.7384 200.443 85.0159 200.299 85.2694C200.155 85.5229 199.96 85.7285 199.713 85.886L200.319 86.4924C200.456 86.6431 200.525 86.8144 200.525 87.0062V89H199.086V87.3043L197.915 86.1224H196.692V89H195.253V81.806H198.85C199.316 81.806 199.713 81.9705 200.042 82.2993C200.371 82.6282 200.535 83.0221 200.535 83.4812V84.4472ZM199.076 84.437L199.066 83.4709C199.066 83.4161 199.045 83.3613 199.004 83.3065C198.963 83.2585 198.908 83.2345 198.84 83.2345H196.681V84.6733H198.84C198.915 84.6733 198.973 84.6494 199.014 84.6014C199.055 84.5466 199.076 84.4918 199.076 84.437Z" fill="#FF00B7"/>
<path d="M210.418 85.0844L210.439 85.105C210.487 85.194 210.511 85.2968 210.511 85.4133V89.0103H209.072V87.0885H206.677V89.0103H205.239V85.4133C205.239 85.2968 205.262 85.194 205.31 85.105L206.749 82.2274C206.811 82.1041 206.9 82.0047 207.016 81.9294C207.133 81.854 207.256 81.8163 207.386 81.8163H208.342C208.479 81.8163 208.603 81.8506 208.712 81.9191C208.835 81.9944 208.925 82.0904 208.979 82.2068L210.418 85.0844ZM206.677 85.6599H209.072V85.5983L207.911 83.2654H207.839L206.677 85.5983V85.6599Z" fill="#FF00B7"/>
<path d="M220.499 89H219.06L216.665 84.8994V89H215.227V81.806H216.665L219.06 85.9066V81.806H220.499V89Z" fill="#FF00B7"/>
<path d="M228.85 89L226.898 89.0103C226.596 89.0103 226.319 88.9349 226.065 88.7842C225.805 88.6266 225.599 88.4211 225.449 88.1676C225.298 87.9141 225.223 87.6366 225.223 87.3351V87.0165H226.661V87.3351C226.661 87.3968 226.685 87.4516 226.733 87.4995C226.781 87.5475 226.836 87.5715 226.898 87.5715H228.82C228.861 87.5715 228.902 87.5612 228.943 87.5406C228.984 87.5201 229.015 87.4893 229.035 87.4482C229.056 87.4071 229.066 87.3659 229.066 87.3248V86.8726C229.052 86.811 229.011 86.7596 228.943 86.7185L226.127 85.3619L226.106 85.3516C225.75 85.1529 225.493 84.8755 225.336 84.5192C225.26 84.3136 225.223 84.1287 225.223 83.9642V83.4812C225.223 83.0221 225.387 82.6282 225.716 82.2993C226.045 81.9705 226.439 81.806 226.898 81.806H228.82C229.285 81.806 229.683 81.9705 230.012 82.2993C230.341 82.6282 230.505 83.0221 230.505 83.4812V83.7998H229.066V83.4812C229.066 83.4195 229.046 83.3647 229.004 83.3168C228.963 83.2688 228.909 83.2448 228.84 83.2448H226.918C226.898 83.2448 226.867 83.2517 226.826 83.2654C226.805 83.2722 226.781 83.2894 226.754 83.3168C226.726 83.3442 226.709 83.3681 226.702 83.3887C226.689 83.4298 226.682 83.4606 226.682 83.4812V83.9334C226.696 83.995 226.737 84.0464 226.805 84.0875L229.621 85.4441L229.642 85.4544C229.998 85.6531 230.255 85.9306 230.412 86.2868C230.488 86.4924 230.525 86.6774 230.525 86.8418V87.3248C230.525 87.7839 230.361 88.1778 230.032 88.5067C229.703 88.8356 229.309 89 228.85 89Z" fill="#FF00B7"/>
<path d="M240.523 83.2448H236.689V84.6836H239.567V86.1224H236.689V89H235.25V81.806H240.523V83.2448Z" fill="#FF00B7"/>
<path d="M248.694 89H246.761C246.302 89 245.908 88.8356 245.58 88.5067C245.251 88.1778 245.086 87.7839 245.086 87.3248V83.4812C245.086 83.0221 245.251 82.6282 245.58 82.2993C245.908 81.9705 246.302 81.806 246.761 81.806H248.683C249.149 81.806 249.547 81.9705 249.875 82.2993C250.204 82.6282 250.369 83.0221 250.369 83.4812V87.3248C250.369 87.7839 250.204 88.1778 249.875 88.5067C249.547 88.8356 249.153 89 248.694 89ZM246.761 83.2448L246.741 83.2551C246.679 83.2551 246.624 83.2791 246.576 83.327C246.529 83.375 246.505 83.4298 246.505 83.4915V87.3351C246.505 87.3968 246.529 87.4516 246.576 87.4995C246.624 87.5475 246.679 87.5715 246.741 87.5715H248.663C248.683 87.5715 248.714 87.5646 248.755 87.5509C248.789 87.5441 248.817 87.5269 248.837 87.4995C248.858 87.4721 248.875 87.4447 248.889 87.4173C248.903 87.3762 248.909 87.3454 248.909 87.3248V83.4812C248.909 83.4195 248.889 83.3647 248.848 83.3168C248.807 83.2688 248.752 83.2448 248.683 83.2448H246.761Z" fill="#FF00B7"/>
<path d="M260.396 84.4472L260.376 84.437C260.376 84.7384 260.304 85.0159 260.16 85.2694C260.016 85.5229 259.821 85.7285 259.574 85.886L260.18 86.4924C260.317 86.6431 260.386 86.8144 260.386 87.0062V89H258.947V87.3043L257.776 86.1224H256.553V89H255.114V81.806H258.711C259.177 81.806 259.574 81.9705 259.903 82.2993C260.232 82.6282 260.396 83.0221 260.396 83.4812V84.4472ZM258.937 84.437L258.927 83.4709C258.927 83.4161 258.906 83.3613 258.865 83.3065C258.824 83.2585 258.769 83.2345 258.701 83.2345H256.542V84.6733H258.701C258.776 84.6733 258.834 84.6494 258.875 84.6014C258.916 84.5466 258.937 84.4918 258.937 84.437Z" fill="#FF00B7"/>
<path d="M269.94 81.806H271.379V89H269.94V84.1698L268.984 85.4133V86.1327H267.545V85.4133L266.59 84.1698V89H265.151V81.806H266.59L268.265 83.9848L269.94 81.806Z" fill="#FF00B7"/>
<path d="M281.28 85.0844L281.3 85.105C281.348 85.194 281.372 85.2968 281.372 85.4133V89.0103H279.933V87.0885H277.539V89.0103H276.1V85.4133C276.1 85.2968 276.124 85.194 276.172 85.105L277.611 82.2274C277.672 82.1041 277.761 82.0047 277.878 81.9294C277.994 81.854 278.118 81.8163 278.248 81.8163H279.204C279.341 81.8163 279.464 81.8506 279.574 81.9191C279.697 81.9944 279.786 82.0904 279.841 82.2068L281.28 85.0844ZM277.539 85.6599H279.933V85.5983L278.772 83.2654H278.7L277.539 85.5983V85.6599Z" fill="#FF00B7"/>
<path d="M291.36 89H289.921L287.527 84.8994V89H286.088V81.806H287.527L289.921 85.9066V81.806H291.36V89Z" fill="#FF00B7"/>
<path d="M299.722 81.806H299.712C300.178 81.806 300.575 81.9705 300.904 82.2993C301.233 82.6282 301.397 83.0221 301.397 83.4812V87.3248C301.397 87.7839 301.233 88.1778 300.904 88.5067C300.575 88.8356 300.181 89 299.722 89H296.125V81.806H299.722ZM299.948 87.3248L299.928 83.4915C299.928 83.4367 299.907 83.3818 299.866 83.327C299.825 83.2791 299.77 83.2551 299.702 83.2551H297.543V87.5715H299.702C299.722 87.5715 299.753 87.5646 299.794 87.5509C299.828 87.5441 299.856 87.5269 299.876 87.4995C299.897 87.4721 299.914 87.4447 299.928 87.4173C299.941 87.3762 299.948 87.3454 299.948 87.3248Z" fill="#FF00B7"/>
<path d="M309.729 89H307.797C307.338 89 306.944 88.8356 306.615 88.5067C306.286 88.1778 306.121 87.7839 306.121 87.3248V83.4812C306.121 83.0221 306.286 82.6282 306.615 82.2993C306.944 81.9705 307.338 81.806 307.797 81.806H309.718C310.184 81.806 310.582 81.9705 310.911 82.2993C311.24 82.6282 311.404 83.0221 311.404 83.4812V87.3248C311.404 87.7839 311.24 88.1778 310.911 88.5067C310.582 88.8356 310.188 89 309.729 89ZM307.797 83.2448L307.776 83.2551C307.714 83.2551 307.66 83.2791 307.612 83.327C307.564 83.375 307.54 83.4298 307.54 83.4915V87.3351C307.54 87.3968 307.564 87.4516 307.612 87.4995C307.66 87.5475 307.714 87.5715 307.776 87.5715H309.698C309.719 87.5715 309.749 87.5646 309.79 87.5509C309.825 87.5441 309.852 87.5269 309.873 87.4995C309.893 87.4721 309.91 87.4447 309.924 87.4173C309.938 87.3762 309.945 87.3454 309.945 87.3248V83.4812C309.945 83.4195 309.924 83.3647 309.883 83.3168C309.842 83.2688 309.787 83.2448 309.718 83.2448H307.797Z" fill="#FF00B7"/>
<path d="M325.092 89V81.806H326.531V89H325.092Z" fill="#FF00B7"/>
<path d="M334.902 81.806H334.892C335.358 81.806 335.755 81.9705 336.084 82.2993C336.413 82.6282 336.577 83.0221 336.577 83.4812V87.3248C336.577 87.7839 336.413 88.1778 336.084 88.5067C335.755 88.8356 335.361 89 334.902 89H331.305V81.806H334.902ZM335.128 87.3248L335.108 83.4915C335.108 83.4367 335.087 83.3818 335.046 83.327C335.005 83.2791 334.95 83.2551 334.882 83.2551H332.724V87.5715H334.882C334.902 87.5715 334.933 87.5646 334.974 87.5509C335.009 87.5441 335.036 87.5269 335.056 87.4995C335.077 87.4721 335.094 87.4447 335.108 87.4173C335.122 87.3762 335.128 87.3454 335.128 87.3248Z" fill="#FF00B7"/>
<path d="M346.594 83.2448H342.761V84.6836H345.639V86.1224H342.761V87.5612H346.594V89H341.322V81.806H346.594V83.2448Z" fill="#FF00B7"/>
<path d="M351.249 89V81.806H352.688V89H351.249Z" fill="#FF00B7"/>
<path d="M362.59 85.0844L362.611 85.105C362.659 85.194 362.683 85.2968 362.683 85.4133V89.0103H361.244V87.0885H358.85V89.0103H357.411V85.4133C357.411 85.2968 357.435 85.194 357.483 85.105L358.922 82.2274C358.983 82.1041 359.072 82.0047 359.189 81.9294C359.305 81.854 359.428 81.8163 359.559 81.8163H360.514C360.651 81.8163 360.775 81.8506 360.884 81.9191C361.008 81.9944 361.097 82.0904 361.152 82.2068L362.59 85.0844ZM358.85 85.6599H361.244V85.5983L360.083 83.2654H360.011L358.85 85.5983V85.6599Z" fill="#FF00B7"/>
<path d="M367.399 89V81.806H368.838V89H367.399Z" fill="#FF00B7"/>
<path d="M377.199 89L375.246 89.0103C374.945 89.0103 374.667 88.9349 374.414 88.7842C374.153 88.6266 373.948 88.4211 373.797 88.1676C373.646 87.9141 373.571 87.6366 373.571 87.3351V87.0165H375.01V87.3351C375.01 87.3968 375.034 87.4516 375.082 87.4995C375.13 87.5475 375.184 87.5715 375.246 87.5715H377.168C377.209 87.5715 377.25 87.5612 377.291 87.5406C377.332 87.5201 377.363 87.4893 377.384 87.4482C377.404 87.4071 377.415 87.3659 377.415 87.3248V86.8726C377.401 86.811 377.36 86.7596 377.291 86.7185L374.475 85.3619L374.455 85.3516C374.099 85.1529 373.842 84.8755 373.684 84.5192C373.609 84.3136 373.571 84.1287 373.571 83.9642V83.4812C373.571 83.0221 373.735 82.6282 374.064 82.2993C374.393 81.9705 374.787 81.806 375.246 81.806H377.168C377.634 81.806 378.031 81.9705 378.36 82.2993C378.689 82.6282 378.853 83.0221 378.853 83.4812V83.7998H377.415V83.4812C377.415 83.4195 377.394 83.3647 377.353 83.3168C377.312 83.2688 377.257 83.2448 377.189 83.2448H375.267C375.246 83.2448 375.215 83.2517 375.174 83.2654C375.154 83.2722 375.13 83.2894 375.102 83.3168C375.075 83.3442 375.058 83.3681 375.051 83.3887C375.037 83.4298 375.03 83.4606 375.03 83.4812V83.9334C375.044 83.995 375.085 84.0464 375.154 84.0875L377.97 85.4441L377.99 85.4544C378.346 85.6531 378.603 85.9306 378.761 86.2868C378.836 86.4924 378.874 86.6774 378.874 86.8418V87.3248C378.874 87.7839 378.71 88.1778 378.381 88.5067C378.052 88.8356 377.658 89 377.199 89Z" fill="#FF00B7"/>
<path d="M397.814 83.2448H393.981V84.6836H396.858V86.1224H393.981V87.5612H397.814V89H392.542V81.806H397.814V83.2448Z" fill="#FF00B7"/>
<path d="M407.258 81.806H408.697V89H407.258V84.1698L406.302 85.4133V86.1327H404.863V85.4133L403.907 84.1698V89H402.469V81.806H403.907L405.583 83.9848L407.258 81.806Z" fill="#FF00B7"/>
<path d="M427.684 89H426.246L423.851 84.8994V89H422.412V81.806H423.851L426.246 85.9066V81.806H427.684V89Z" fill="#FF00B7"/>
<path d="M437.721 83.2448H433.888V84.6836H436.766V86.1224H433.888V87.5612H437.721V89H432.449V81.806H437.721V83.2448Z" fill="#FF00B7"/>
<path d="M445.983 89L444.031 89.0411C443.572 89.0411 443.178 88.8767 442.849 88.5478C442.52 88.2189 442.355 87.8216 442.355 87.3557V83.5223C442.355 83.0633 442.52 82.6693 442.849 82.3404C443.178 82.0116 443.572 81.8471 444.031 81.8471H445.952C446.418 81.8471 446.816 82.0116 447.145 82.3404C447.473 82.6693 447.638 83.0633 447.638 83.5223V84.2417H446.199V83.5223C446.199 83.4469 446.178 83.3887 446.137 83.3476C446.096 83.3065 446.041 83.2859 445.973 83.2859H444.051C443.983 83.2859 443.928 83.3065 443.887 83.3476C443.846 83.3887 443.825 83.4435 443.825 83.512V87.3454C443.825 87.4139 443.846 87.4687 443.887 87.5098C443.928 87.5509 443.986 87.5715 444.061 87.5715H445.983C446.059 87.5715 446.117 87.5509 446.158 87.5098C446.199 87.4687 446.22 87.4105 446.22 87.3351V86.626L444.719 86.2766L445.048 84.8789L447.103 85.3619C447.268 85.3893 447.401 85.4715 447.504 85.6086C447.607 85.7456 447.658 85.8929 447.658 86.0505V87.3248C447.658 87.7839 447.494 88.1778 447.165 88.5067C446.836 88.8356 446.442 89 445.983 89Z" fill="#FF00B7"/>
<path d="M455.897 89H453.965C453.664 89 453.386 88.9246 453.133 88.7739C452.873 88.6232 452.667 88.4176 452.516 88.1573C452.366 87.9038 452.29 87.6263 452.29 87.3248V83.4812C452.29 83.0221 452.455 82.6282 452.783 82.2993C453.112 81.9705 453.506 81.806 453.965 81.806H455.887C456.353 81.806 456.75 81.9705 457.079 82.2993C457.408 82.6282 457.573 83.0221 457.573 83.4812V87.3248C457.573 87.7839 457.408 88.1778 457.079 88.5067C456.75 88.8356 456.356 89 455.897 89ZM453.965 83.2448L453.976 83.2551C453.914 83.2551 453.859 83.2791 453.811 83.327C453.763 83.375 453.739 83.4298 453.739 83.4915V87.3351C453.739 87.3968 453.763 87.4516 453.811 87.4995C453.859 87.5475 453.914 87.5715 453.976 87.5715H455.897C455.973 87.5715 456.031 87.5475 456.072 87.4995C456.113 87.4447 456.134 87.3899 456.134 87.3351V83.4915C456.134 83.4504 456.124 83.4092 456.103 83.3681C456.082 83.327 456.052 83.2962 456.01 83.2757C455.969 83.2551 455.928 83.2448 455.887 83.2448H453.965ZM454.294 80.2747L456.185 78.949L456.833 79.8739L454.942 81.1997L454.294 80.2747Z" fill="#FF00B7"/>
<path d="M465.897 89L463.944 89.0103C463.485 89.0103 463.091 88.8458 462.762 88.517C462.433 88.1881 462.269 87.7942 462.269 87.3351V83.4915C462.269 83.19 462.344 82.9125 462.495 82.659C462.646 82.4055 462.851 82.2 463.112 82.0424C463.365 81.8917 463.643 81.8163 463.944 81.8163H465.866C466.332 81.8163 466.729 81.9807 467.058 82.3096C467.387 82.6385 467.551 83.0324 467.551 83.4915V84.2109H466.113V83.4915C466.113 83.4367 466.092 83.3818 466.051 83.327C466.01 83.2791 465.955 83.2551 465.886 83.2551H463.965C463.903 83.2551 463.848 83.2791 463.8 83.327C463.752 83.375 463.728 83.4298 463.728 83.4915V87.3351C463.728 87.3968 463.752 87.4516 463.8 87.4995C463.848 87.5475 463.903 87.5715 463.965 87.5715H465.886C465.928 87.5715 465.969 87.5612 466.01 87.5406C466.051 87.5201 466.082 87.4893 466.102 87.4482C466.123 87.4071 466.133 87.3659 466.133 87.3248V86.6054H467.572V87.3248C467.572 87.7839 467.407 88.1778 467.079 88.5067C466.75 88.8356 466.356 89 465.897 89Z" fill="#FF00B7"/>
<path d="M472.296 89V81.806H473.735V89H472.296Z" fill="#FF00B7"/>
<path d="M482.096 89H480.164C479.705 89 479.311 88.8356 478.982 88.5067C478.654 88.1778 478.489 87.7839 478.489 87.3248V83.4812C478.489 83.0221 478.654 82.6282 478.982 82.2993C479.311 81.9705 479.705 81.806 480.164 81.806H482.086C482.552 81.806 482.949 81.9705 483.278 82.2993C483.607 82.6282 483.772 83.0221 483.772 83.4812V87.3248C483.772 87.7839 483.607 88.1778 483.278 88.5067C482.949 88.8356 482.555 89 482.096 89ZM480.164 83.2448L480.144 83.2551C480.082 83.2551 480.027 83.2791 479.979 83.327C479.931 83.375 479.907 83.4298 479.907 83.4915V87.3351C479.907 87.3968 479.931 87.4516 479.979 87.4995C480.027 87.5475 480.082 87.5715 480.144 87.5715H482.066C482.086 87.5715 482.117 87.5646 482.158 87.5509C482.192 87.5441 482.22 87.5269 482.24 87.4995C482.261 87.4721 482.278 87.4447 482.292 87.4173C482.305 87.3762 482.312 87.3454 482.312 87.3248V83.4812C482.312 83.4195 482.292 83.3647 482.25 83.3168C482.209 83.2688 482.155 83.2448 482.086 83.2448H480.164Z" fill="#FF00B7"/>
<path d="M492.103 89L490.151 89.0103C489.849 89.0103 489.572 88.9349 489.318 88.7842C489.058 88.6266 488.852 88.4211 488.702 88.1676C488.551 87.9141 488.475 87.6366 488.475 87.3351V87.0165H489.914V87.3351C489.914 87.3968 489.938 87.4516 489.986 87.4995C490.034 87.5475 490.089 87.5715 490.151 87.5715H492.072C492.114 87.5715 492.155 87.5612 492.196 87.5406C492.237 87.5201 492.268 87.4893 492.288 87.4482C492.309 87.4071 492.319 87.3659 492.319 87.3248V86.8726C492.305 86.811 492.264 86.7596 492.196 86.7185L489.38 85.3619L489.359 85.3516C489.003 85.1529 488.746 84.8755 488.589 84.5192C488.513 84.3136 488.475 84.1287 488.475 83.9642V83.4812C488.475 83.0221 488.64 82.6282 488.969 82.2993C489.298 81.9705 489.692 81.806 490.151 81.806H492.072C492.538 81.806 492.936 81.9705 493.265 82.2993C493.593 82.6282 493.758 83.0221 493.758 83.4812V83.7998H492.319V83.4812C492.319 83.4195 492.299 83.3647 492.257 83.3168C492.216 83.2688 492.161 83.2448 492.093 83.2448H490.171C490.151 83.2448 490.12 83.2517 490.079 83.2654C490.058 83.2722 490.034 83.2894 490.007 83.3168C489.979 83.3442 489.962 83.3681 489.955 83.3887C489.942 83.4298 489.935 83.4606 489.935 83.4812V83.9334C489.949 83.995 489.99 84.0464 490.058 84.0875L492.874 85.4441L492.895 85.4544C493.251 85.6531 493.508 85.9306 493.665 86.2868C493.741 86.4924 493.778 86.6774 493.778 86.8418V87.3248C493.778 87.7839 493.614 88.1778 493.285 88.5067C492.956 88.8356 492.562 89 492.103 89Z" fill="#FF00B7"/>
<path d="M499.202 90.6341L498.329 89.7605L499.171 88.9178V87.7667H500.405V89.1747C500.405 89.346 500.346 89.4899 500.23 89.6063L499.202 90.6341Z" fill="#FF00B7"/>
<path d="M519.283 83.2448H515.45V84.6836H518.327V86.1224H515.45V87.5612H519.283V89H514.011V81.806H519.283V83.2448Z" fill="#FF00B7"/>
<path d="M528.727 81.806H530.166V89H528.727V84.1698L527.771 85.4133V86.1327H526.332V85.4133L525.376 84.1698V89H523.938V81.806H525.376L527.052 83.9848L528.727 81.806Z" fill="#FF00B7"/>
<path d="M547.468 89H545.546C545.087 89 544.693 88.8356 544.364 88.5067C544.035 88.1778 543.871 87.7839 543.871 87.3248V81.806H545.31V87.3248C545.31 87.3865 545.334 87.4413 545.382 87.4893C545.43 87.5372 545.484 87.5612 545.546 87.5612H547.468C547.543 87.5612 547.602 87.5372 547.643 87.4893C547.684 87.4413 547.704 87.3865 547.704 87.3248V81.806H549.143V87.3248C549.143 87.7839 548.979 88.1778 548.65 88.5067C548.321 88.8356 547.927 89 547.468 89Z" fill="#FF00B7"/>
<path d="M558.687 81.806H560.126V89H558.687V84.1698L557.732 85.4133V86.1327H556.293V85.4133L555.337 84.1698V89H553.898V81.806H555.337L557.012 83.9848L558.687 81.806Z" fill="#FF00B7"/>
<path d="M577.449 89L575.496 89.0103C575.037 89.0103 574.643 88.8458 574.315 88.517C573.986 88.1881 573.821 87.7942 573.821 87.3351V83.4915C573.821 83.19 573.897 82.9125 574.047 82.659C574.198 82.4055 574.404 82.2 574.664 82.0424C574.917 81.8917 575.195 81.8163 575.496 81.8163H577.418C577.884 81.8163 578.282 81.9807 578.61 82.3096C578.939 82.6385 579.104 83.0324 579.104 83.4915V84.2109H577.665V83.4915C577.665 83.4367 577.644 83.3818 577.603 83.327C577.562 83.2791 577.507 83.2551 577.439 83.2551H575.517C575.455 83.2551 575.401 83.2791 575.353 83.327C575.305 83.375 575.281 83.4298 575.281 83.4915V87.3351C575.281 87.3968 575.305 87.4516 575.353 87.4995C575.401 87.5475 575.455 87.5715 575.517 87.5715H577.439C577.48 87.5715 577.521 87.5612 577.562 87.5406C577.603 87.5201 577.634 87.4893 577.655 87.4482C577.675 87.4071 577.685 87.3659 577.685 87.3248V86.6054H579.124V87.3248C579.124 87.7839 578.96 88.1778 578.631 88.5067C578.302 88.8356 577.908 89 577.449 89Z" fill="#FF00B7"/>
<path d="M589.121 89H583.849V81.806H585.288V87.5612H589.121V89Z" fill="#FF00B7"/>
<path d="M593.695 89V81.806H595.134V89H593.695Z" fill="#FF00B7"/>
<path d="M603.485 81.806H603.475C603.94 81.806 604.338 81.9705 604.667 82.2993C604.996 82.6282 605.16 83.0221 605.16 83.4812V87.3248C605.16 87.7839 604.996 88.1778 604.667 88.5067C604.338 88.8356 603.944 89 603.485 89H601.563C601.104 89 600.71 88.8356 600.381 88.5067C600.052 88.1778 599.888 87.7839 599.888 87.3248V83.4812C599.888 83.0221 600.052 82.6282 600.381 82.2993C600.71 81.9705 601.104 81.806 601.563 81.806H603.485ZM601.316 87.3248H601.306C601.306 87.3865 601.33 87.4413 601.378 87.4893C601.426 87.5372 601.481 87.5612 601.542 87.5612H602.827L602.067 86.8007L602.94 85.9271L603.701 86.6877V83.4812C603.701 83.4195 603.68 83.3647 603.639 83.3168C603.598 83.2688 603.543 83.2448 603.475 83.2448H601.553C601.491 83.2448 601.436 83.2688 601.388 83.3168C601.34 83.3647 601.316 83.4195 601.316 83.4812V87.3248Z" fill="#FF00B7"/>
<path d="M613.492 89H611.57C611.111 89 610.717 88.8356 610.388 88.5067C610.059 88.1778 609.895 87.7839 609.895 87.3248V81.806H611.334V87.3248C611.334 87.3865 611.358 87.4413 611.406 87.4893C611.454 87.5372 611.508 87.5612 611.57 87.5612H613.492C613.567 87.5612 613.626 87.5372 613.667 87.4893C613.708 87.4413 613.728 87.3865 613.728 87.3248V81.806H615.167V87.3248C615.167 87.7839 615.003 88.1778 614.674 88.5067C614.345 88.8356 613.951 89 613.492 89Z" fill="#FF00B7"/>
<path d="M625.194 83.2448H621.361V84.6836H624.239V86.1224H621.361V87.5612H625.194V89H619.922V81.806H625.194V83.2448Z" fill="#FF00B7"/>
</svg>
