<svg width="24" height="255" viewBox="0 0 24 255" fill="none" xmlns="http://www.w3.org/2000/svg">
<path d="M8.19234 26.8423H2.79748V0.433863H16.0017C17.7119 0.433863 19.1707 1.03748 20.3779 2.24473C21.5852 3.45197 22.1888 4.89814 22.1888 6.58325V10.1295C22.1888 11.211 21.9247 12.2296 21.3966 13.1854C20.8684 14.1159 20.1264 14.8705 19.1707 15.4489C18.2401 16.0023 17.2215 16.2789 16.1149 16.2789H8.19234V26.8423ZM8.07916 10.9972L16.0394 11.035C16.3161 11.035 16.5299 10.9469 16.6808 10.7709C16.8317 10.5697 16.9071 10.3685 16.9071 10.1673V6.62098C16.9071 6.47007 16.8694 6.31917 16.7939 6.16826C16.7185 6.01736 16.6053 5.90418 16.4544 5.82873C16.3035 5.75327 16.1526 5.71555 16.0017 5.71555H8.07916V10.9972ZM21.9309 48.1295L21.8555 48.0918C21.8555 49.1984 21.5914 50.2171 21.0632 51.1476C20.535 52.0782 19.8182 52.8327 18.9128 53.4112L21.1387 55.6371C21.6417 56.1904 21.8932 56.8192 21.8932 57.5234V64.8423H16.6115V58.6174L12.3107 54.2789H7.82127V64.8423H2.53959V38.4339H15.7438C17.4541 38.4339 18.9128 39.0375 20.12 40.2447C21.3273 41.452 21.9309 42.8981 21.9309 44.5833V48.1295ZM16.5738 48.0918L16.536 44.5455C16.536 44.3443 16.4606 44.1431 16.3097 43.9419C16.1588 43.7658 15.9576 43.6778 15.7061 43.6778H7.78354V48.9595H15.7061C15.9827 48.9595 16.1965 48.8715 16.3474 48.6954C16.4983 48.4942 16.5738 48.293 16.5738 48.0918ZM15.663 102.842H8.57049C7.46385 102.842 6.44524 102.566 5.51466 102.012C4.55893 101.459 3.8044 100.704 3.25108 99.7487C2.69776 98.8181 2.4211 97.7995 2.4211 96.6929V82.5833C2.4211 80.8981 3.02472 79.452 4.23196 78.2447C5.43921 77.0375 6.88538 76.4339 8.57049 76.4339H15.6253C17.3356 76.4339 18.7943 77.0375 20.0016 78.2447C21.2088 79.452 21.8124 80.8981 21.8124 82.5833V96.6929C21.8124 98.378 21.2088 99.8242 20.0016 101.031C18.7943 102.239 17.3481 102.842 15.663 102.842ZM8.57049 81.7155L8.60822 81.7533C8.38186 81.7533 8.18065 81.8413 8.0046 82.0174C7.82854 82.1934 7.74051 82.3946 7.74051 82.621V96.7306C7.74051 96.957 7.82854 97.1582 8.0046 97.3342C8.18065 97.5103 8.38186 97.5983 8.60822 97.5983H15.663C15.9397 97.5983 16.1535 97.5103 16.3044 97.3342C16.4553 97.133 16.5307 96.9318 16.5307 96.7306V82.621C16.5307 82.4701 16.493 82.3192 16.4176 82.1683C16.3421 82.0174 16.2289 81.9042 16.078 81.8287C15.9271 81.7533 15.7762 81.7155 15.6253 81.7155H8.57049ZM9.77773 70.8126L16.7194 65.9459L19.0961 69.3413L12.1545 74.208L9.77773 70.8126ZM21.9493 120.583C21.9493 121.287 21.6978 121.916 21.1948 122.47L16.0263 127.638L21.1948 132.807C21.6978 133.36 21.9493 133.989 21.9493 134.693V140.842H16.6676V135.787L12.2914 131.373L7.87742 135.787V140.842H2.59573V134.693C2.59573 133.964 2.85982 133.335 3.38799 132.807L8.55649 127.638L3.38799 122.47C2.85982 121.941 2.59573 121.313 2.59573 120.583V114.434H7.87742V119.489L12.2914 123.903L16.6676 119.489V114.434H21.9493V120.583ZM9.55801 178.842V152.434H14.8397V178.842H9.55801ZM18.3709 190.434H23.6526V216.842H18.3709V199.111L14.8247 203.676V206.279H9.54297V203.676L6.03443 199.111V216.842H0.752743V190.434H6.03443L12.1838 198.432L18.3709 190.434ZM15.7429 254.842H8.65036C6.96526 254.842 5.51908 254.239 4.31184 253.031C3.1046 251.824 2.50097 250.378 2.50097 248.693V234.583C2.50097 232.898 3.1046 231.452 4.31184 230.245C5.51908 229.037 6.96526 228.434 8.65036 228.434H15.7052C17.4154 228.434 18.8742 229.037 20.0814 230.245C21.2887 231.452 21.8923 232.898 21.8923 234.583V248.693C21.8923 250.378 21.2887 251.824 20.0814 253.031C18.8742 254.239 17.428 254.842 15.7429 254.842ZM8.65036 233.716L8.57491 233.753C8.34855 233.753 8.14735 233.841 7.97129 234.017C7.79523 234.193 7.70721 234.395 7.70721 234.621V248.731C7.70721 248.957 7.79523 249.158 7.97129 249.334C8.14735 249.51 8.34855 249.598 8.57491 249.598H15.6297C15.7052 249.598 15.8184 249.573 15.9693 249.523C16.0699 249.498 16.1705 249.435 16.2711 249.334C16.3717 249.234 16.4346 249.133 16.4597 249.032C16.51 248.882 16.5352 248.768 16.5352 248.693V234.583C16.5352 234.357 16.4597 234.156 16.3088 233.98C16.1579 233.804 15.9567 233.716 15.7052 233.716H8.65036Z" fill="black"/>
</svg>
