<svg width="158" height="157" viewBox="0 0 158 157" fill="none" xmlns="http://www.w3.org/2000/svg">
<g filter="url(#filter0_d_72_1170)">
<path d="M94.2935 122.941C94.0402 130.803 87.2642 137 78.9894 137C70.7147 137 63.9387 130.803 63.4321 122.941H61.4267C55.1573 122.941 51.6321 115.781 56.1495 111.268C51.1255 108.882 50.64 102.444 55.1362 99.3552V96.7278C54.6296 89.5679 50.6189 84.574 46.3549 79.3194C40.5921 72.4001 34.5549 64.7789 34.5549 50.9604C34.5549 39.5085 39.5788 28.7987 47.6003 21.3981C64.4031 5.19292 91.5071 4.95225 108.817 20.2148C113.334 24.0254 116.838 28.7987 119.35 33.7926C123.107 41.6545 124.121 50.9604 122.369 59.5443C120.363 68.1282 115.846 73.8441 111.582 79.3394C107.318 84.574 103.307 89.588 102.8 96.7479V99.6159C103.054 99.8565 103.307 100.097 103.56 100.338C107.064 103.667 106.072 109.162 101.808 111.308C106.072 115.841 102.822 122.981 96.5311 122.981H94.2935V122.941ZM66.704 122.941C66.9573 129.138 72.4667 134.152 78.9894 134.152C85.5121 134.152 91.0427 129.138 91.2749 122.941H66.704ZM61.1734 111.97C55.8961 112.211 55.8961 120.073 61.4267 120.073H96.5522C101.829 120.073 102.062 112.211 96.5522 111.97H61.1734ZM59.4214 98.1518H77.4907V89.3272C76.4775 89.0866 75.4853 88.3645 74.7254 87.9033C73.7122 86.72 72.9734 85.2759 72.9734 83.852C72.9734 82.1873 73.7333 80.984 74.7254 79.8007C75.7387 78.838 77.2374 78.1361 78.9894 78.1361C80.4882 78.1361 82.008 78.8581 83.0002 79.8007C84.2456 80.984 84.7522 82.1873 84.7522 83.852C84.7522 85.2759 84.2456 86.72 83.0002 87.9033C82.4936 88.3846 81.5014 89.0866 80.4882 89.3272V98.1518H98.5575C98.8108 98.1518 99.3175 98.1518 99.803 98.3925C100.056 90.0492 101.808 86.4793 109.091 77.414C113.355 72.4001 117.872 66.6842 119.371 58.3409C120.87 50.7197 120.131 42.6171 116.859 35.6979C114.6 30.6839 111.35 26.1713 107.064 22.5813C91.0005 8.04085 65.6696 8.28152 49.859 23.3034C42.323 30.4633 37.8057 40.2305 37.8057 50.9604C37.8057 63.8362 43.3151 70.9761 48.8457 77.6547C56.6139 87.1812 57.8804 90.5306 58.1337 98.1518C58.6614 98.1518 58.9147 98.1518 59.4214 98.1518ZM98.5575 101.02H59.4214C53.9119 101.02 53.9119 109.122 59.4214 109.122H98.5575C104.088 109.122 104.088 101.02 98.5575 101.02ZM80.9948 81.9467C80.4882 81.4653 79.7494 81.2247 78.9894 81.2247C78.2295 81.2247 77.4907 81.4653 76.9841 81.9467C76.4775 82.428 75.9708 83.13 75.9708 83.852C75.9708 84.574 76.4775 85.2759 76.9841 85.7573C77.4907 86.2386 78.2295 86.4793 78.9894 86.4793C79.7494 86.4793 80.4882 86.2386 80.9948 85.7573C81.5014 85.2759 81.7547 84.574 81.7547 83.852C81.7547 83.13 81.5014 82.428 80.9948 81.9467ZM97.0588 72.6408C96.0456 75.2681 93.5547 77.1734 90.5361 76.9327C87.032 76.9327 84.2667 74.0647 84.2667 70.7354C84.52 68.3488 86.0188 66.2028 88.0241 65.2602C90.0295 64.5382 88.784 61.9309 86.7787 62.6329C86.0188 63.1142 85.5333 63.3549 84.7733 63.8162V64.0569C82.768 61.6702 82.008 58.3409 83.2746 55.7136C83.5279 55.2323 83.7812 54.9916 84.0345 54.5303C85.5332 55.7136 87.3064 56.4356 89.0585 56.6763C89.0585 57.639 89.3118 58.3409 89.5651 59.3036C90.325 60.9683 93.0692 59.785 92.3304 58.1203C91.8237 56.6964 92.0771 55.0117 93.3436 54.069C95.0957 52.8857 93.0903 50.4991 91.5916 51.6824C90.8316 52.4044 90.0928 53.1064 89.8395 54.069C86.8209 53.347 84.5622 51.4417 83.8234 49.0551C82.8102 46.9091 83.3168 44.2818 84.5833 42.3765C85.09 41.4138 86.0821 40.7118 87.0953 40.2305C87.8552 40.4712 89.1007 40.7118 90.1139 40.7118C91.1272 40.7118 92.3726 40.7118 93.3858 40.2305C95.3912 39.7492 94.399 37.1218 92.6259 37.6032C91.866 37.8439 91.1272 37.8438 90.1139 37.8438C86.3565 37.6032 83.3379 34.5146 83.5912 30.9246C83.8445 27.114 87.0953 24.246 90.8738 24.4867C93.6391 24.7273 95.8978 26.1513 96.8899 28.5379C96.13 28.7786 95.3912 29.0193 94.8846 29.2599C94.3779 29.0193 93.6391 28.5379 93.1325 28.2973C91.3805 27.3346 89.8606 30.2026 91.8871 30.9246C92.9003 31.4059 93.6391 32.5892 93.3858 33.7926C93.1325 35.6979 96.1511 35.9385 96.4044 34.0332C96.6577 33.3112 96.6577 32.6093 96.4044 31.8873C96.6577 31.6466 97.1643 31.4059 97.6498 31.4059C99.9085 30.6839 102.42 31.1653 104.173 32.5892C106.685 35.2165 106.685 39.2678 103.919 41.6545C102.42 43.0784 104.679 45.2244 106.178 43.8004C106.685 43.3191 107.191 42.8378 107.423 42.1358C109.935 43.8004 111.181 46.1871 111.181 48.8144C110.927 53.1064 107.17 56.195 102.653 56.195C100.647 55.9543 100.647 58.8223 102.653 59.0629C104.151 59.0629 105.671 58.8223 106.917 58.3409C107.93 59.7649 108.162 61.2089 108.162 62.8736C107.909 66.9248 104.658 70.0335 100.394 70.0335C100.394 69.3305 100.154 68.6465 99.9074 67.9445C99.9007 67.9255 99.8941 67.9065 99.8874 67.8875C100.394 67.4062 100.901 66.7042 101.133 66.2229C101.893 64.5582 99.1275 63.1142 98.3676 65.0396C97.6076 66.2229 96.6155 66.7042 95.0957 66.4636C93.3436 66.4636 93.0903 69.0909 94.8423 69.3315C95.6023 69.5722 96.3411 69.5722 97.101 69.3315C97.3121 70.4948 97.3121 71.4575 97.0588 72.6408ZM82.008 52.3843C81.5014 53.1064 80.9948 53.8083 80.5093 54.5303C78.7572 58.5816 79.4961 63.1142 82.768 66.2028C81.7547 67.3861 81.2692 69.0708 81.2692 70.4948C81.0159 75.5087 85.0266 79.8007 90.3039 80.0213C93.0692 80.0213 95.3279 79.0586 97.0799 77.6347C98.5786 76.4514 99.5919 74.7667 100.098 72.8614C106.115 72.8614 110.885 68.5694 111.139 62.8535C111.392 60.7075 110.632 58.8022 109.64 56.8969C112.152 54.9916 113.904 52.1236 114.157 49.035C114.157 45.2244 112.152 41.6545 108.88 39.5085C110.379 34.0332 106.115 28.5379 100.098 28.0566C98.8531 24.4867 95.0745 21.8593 91.0638 21.6187C85.3011 21.378 80.7837 25.4293 80.5304 30.6839C80.2771 33.7926 81.5436 36.6405 84.0345 38.5458C83.2746 39.2678 82.5358 39.9698 82.0291 40.9325C80.0238 43.5598 79.7705 46.889 80.7837 49.9977C80.9948 50.7197 81.5014 51.6623 82.008 52.3843ZM100.816 46.1871C102.822 45.9464 102.568 43.0784 100.563 43.3191C100.056 43.3191 99.803 43.3191 99.3175 43.3191C97.3121 43.3191 97.0588 46.1871 99.0641 46.1871C99.8241 46.1871 100.31 46.1871 100.816 46.1871ZM60.9201 72.6408C61.68 75.2681 64.192 77.1734 67.4428 76.9327C70.9469 76.9327 73.7122 74.0647 73.4589 70.7354C73.4589 68.3488 71.9601 66.2028 69.7015 65.2602C67.9494 64.5382 69.1948 61.9309 70.9469 62.6329C71.7068 63.1142 72.4456 63.3549 72.9523 63.8162L73.2056 64.0569C75.2109 61.6702 75.7175 58.3409 74.451 55.7136C74.1977 55.2323 73.9444 54.9916 73.6911 54.5303C72.4456 55.7136 70.6725 56.4356 68.9204 56.6763C68.9204 57.639 68.6671 58.3409 68.4138 59.3036C67.6539 60.9683 64.6564 59.785 65.3952 58.1203C66.1551 56.6964 65.6485 55.0117 64.382 54.069C62.8832 52.8857 64.8886 50.4991 66.3873 51.6824C67.1473 52.4044 67.6328 53.1064 68.1394 54.069C70.9047 53.347 73.1633 51.4417 74.1555 49.0551C74.9154 46.9091 74.6621 44.2818 73.3955 42.3765C72.6356 41.4138 71.8968 40.7118 70.8836 40.2305C70.8633 40.2353 70.8431 40.2401 70.8228 40.2449C69.8307 40.4807 68.8579 40.7118 67.865 40.7118C66.6195 40.7118 65.6063 40.7118 64.3609 40.2305C62.6088 39.7492 63.3476 37.1218 65.3741 37.6032C66.134 37.8439 66.8728 37.8438 67.6328 37.8438C71.6435 37.6032 74.4088 34.5146 74.4088 30.9246C74.1555 27.114 70.9047 24.246 67.1262 24.4867C64.3609 24.7273 61.8489 26.1513 60.8568 28.5379H61.1101C61.87 28.7786 62.6088 29.0193 63.1154 29.2599C63.6221 29.0193 64.1287 28.5379 64.8675 28.2973C66.6195 27.3346 67.8861 30.2026 66.1129 30.9246C64.8675 31.4059 64.3609 32.5892 64.3609 33.7926C64.6142 35.6979 61.5956 35.9385 61.3423 34.0332C61.3423 33.3112 61.3423 32.6093 61.5956 31.8873C61.089 31.6466 60.5824 31.4059 60.0968 31.4059C58.0915 30.6839 55.5795 31.1653 53.8275 32.5892C51.0622 35.2165 51.0622 39.2678 53.8275 41.6545C55.3262 43.0784 53.3208 45.2244 51.8221 43.8004C51.3155 43.3191 50.8089 42.8378 50.3234 42.1358C48.0647 43.8004 46.8193 46.1871 46.8193 48.8144C47.0726 53.1064 50.83 56.195 55.094 56.195C57.0994 55.9543 57.3527 58.8223 55.3473 59.0629C53.8486 59.0629 52.3287 58.8223 51.0833 58.3409C50.07 59.7649 49.5845 61.2089 49.8378 62.8736C49.8378 66.9248 53.3419 70.0335 57.606 70.0335C57.606 69.3305 57.8461 68.6465 58.0926 67.9445C58.0993 67.9255 58.1059 67.9065 58.1126 67.8875C57.606 67.4062 57.0994 66.7042 56.8672 66.2229C55.8539 64.5582 58.8725 63.1142 59.6324 65.0396C60.1391 66.2229 61.3845 66.7042 62.651 66.4636C64.6564 66.4636 64.9097 69.0909 62.9043 69.3315C62.1444 69.5722 61.4056 69.5722 60.899 69.3315C60.4135 70.4948 60.4135 71.4575 60.9201 72.6408ZM75.7175 52.3843C76.4775 53.1064 76.963 53.8083 77.2163 54.5303C79.2216 58.5816 78.2295 63.1142 75.2109 66.2028C75.9708 67.3861 76.4564 69.0708 76.4564 70.4948C76.7097 75.5087 72.6989 79.8007 67.4217 80.0213C64.9097 80.0213 62.3977 79.0586 60.6457 77.6347C59.1469 76.4514 58.1337 74.7667 57.6271 72.8614C51.8643 72.8614 46.8404 68.5694 46.5871 62.8535C46.5871 60.7075 47.0937 58.8022 48.3391 56.8969C45.5738 54.9916 43.8218 52.1236 43.8218 49.035C43.5685 45.2244 45.5738 41.6545 49.099 39.5085C47.6003 34.0332 51.611 28.5379 57.8804 28.0566C59.1258 24.4867 62.651 21.8593 66.9151 21.6187C72.4245 21.378 77.1952 25.4293 77.4485 30.6839C77.7018 33.7926 76.2031 36.6405 73.6911 38.5458C74.7043 39.2678 75.4431 39.9698 75.9497 40.9325C77.7018 43.5598 78.2084 46.889 76.963 49.9977C76.7308 50.7197 76.4775 51.6623 75.7175 52.3843ZM56.9094 46.1871C54.904 45.9464 55.4106 43.0784 57.416 43.3191C57.9226 43.3191 58.1759 43.3191 58.6614 43.3191C60.6668 43.3191 60.6668 46.1871 58.6614 46.1871C58.1548 46.1871 57.6693 46.1871 56.9094 46.1871ZM28.5599 89.0866C26.8079 90.0492 25.0558 87.6626 26.8079 86.6999L35.3359 80.7433C37.088 79.56 38.84 81.9266 37.088 83.13L28.5599 89.0866ZM131.171 86.72C132.67 87.6826 130.918 90.0492 129.419 89.1066L120.638 83.15C119.139 81.9667 120.891 79.5801 122.643 80.7634L131.171 86.72ZM141.219 40.7118C143.224 40.4712 143.731 43.3392 141.726 43.5798L131.192 45.2445C129.187 45.4851 128.68 42.6171 130.686 42.3765L141.219 40.7118ZM141.219 63.1142C143.224 63.5956 142.718 66.4435 140.712 65.9822L130.179 63.8362C128.174 63.5956 128.933 60.7276 130.939 61.2089L141.219 63.1142ZM130.664 17.3468C132.416 16.1635 134.169 18.5301 132.416 19.7334L123.635 25.2087C121.883 26.392 120.131 23.7847 121.883 22.822L130.664 17.3468ZM16.2745 43.5598C14.2691 43.3191 14.7757 40.4511 16.7811 40.6918L27.3145 42.3564C29.3199 42.5971 28.8132 45.4651 26.8079 45.2244L16.2745 43.5598ZM17.2666 65.9822C15.2612 66.4636 14.7546 63.5956 16.5067 63.1142L27.0401 61.2089C29.0454 60.7276 29.5521 63.5956 27.5467 63.8362L17.2666 65.9822ZM25.5413 19.7334C23.7893 18.5501 25.5413 16.1635 27.0401 17.3468L36.0747 22.822C36.5814 23.3034 36.8347 24.246 36.3281 24.7273C35.8214 25.4493 35.0826 25.69 34.3227 25.2087L25.5413 19.7334Z" fill="#FF00B7"/>
<path fill-rule="evenodd" clip-rule="evenodd" d="M97.0588 72.6408C96.0456 75.2681 93.5547 77.1734 90.5361 76.9327C87.032 76.9327 84.2667 74.0647 84.2667 70.7354C84.52 68.3488 86.0188 66.2028 88.0241 65.2602C90.0295 64.5382 88.784 61.9309 86.7787 62.6329C86.0188 63.1142 85.5333 63.3549 84.7733 63.8162V64.0569C82.768 61.6702 82.008 58.3409 83.2746 55.7136C83.5279 55.2323 83.7812 54.9916 84.0345 54.5303C85.5332 55.7136 87.3064 56.4356 89.0585 56.6763C89.0585 57.639 89.3118 58.3409 89.5651 59.3036C90.325 60.9683 93.0692 59.785 92.3304 58.1203C91.8237 56.6964 92.0771 55.0117 93.3436 54.069C95.0957 52.8857 93.0903 50.4991 91.5916 51.6824C90.8316 52.4044 90.0928 53.1064 89.8395 54.069C86.8209 53.347 84.5622 51.4417 83.8234 49.0551C82.8102 46.9091 83.3168 44.2818 84.5833 42.3765C85.09 41.4138 86.0821 40.7118 87.0953 40.2305C87.8552 40.4712 89.1007 40.7118 90.1139 40.7118C91.1272 40.7118 92.3726 40.7118 93.3858 40.2305C95.3912 39.7492 94.399 37.1218 92.6259 37.6032C91.866 37.8439 91.1272 37.8438 90.1139 37.8438C86.3565 37.6032 83.3379 34.5146 83.5912 30.9246C83.8445 27.114 87.0953 24.246 90.8738 24.4867C93.6391 24.7273 95.8978 26.1513 96.8899 28.5379C96.13 28.7786 95.3912 29.0193 94.8846 29.2599C94.3779 29.0193 93.6391 28.5379 93.1325 28.2973C91.3805 27.3346 89.8606 30.2026 91.8871 30.9246C92.9003 31.4059 93.6391 32.5892 93.3858 33.7926C93.1325 35.6979 96.1511 35.9385 96.4044 34.0332C96.6577 33.3112 96.6577 32.6093 96.4044 31.8873C96.6577 31.6466 97.1643 31.4059 97.6498 31.4059C99.9085 30.6839 102.42 31.1653 104.173 32.5892C106.685 35.2165 106.685 39.2678 103.919 41.6545C102.42 43.0784 104.679 45.2244 106.178 43.8004C106.685 43.3191 107.191 42.8378 107.423 42.1358C109.935 43.8004 111.181 46.1871 111.181 48.8144C110.927 53.1064 107.17 56.195 102.653 56.195C100.647 55.9543 100.647 58.8223 102.653 59.0629C104.151 59.0629 105.671 58.8223 106.917 58.3409C107.93 59.7649 108.162 61.2089 108.162 62.8736C107.909 66.9248 104.658 70.0335 100.394 70.0335C100.394 69.3305 100.154 68.6465 99.9074 67.9445L99.8874 67.8875C100.394 67.4062 100.901 66.7042 101.133 66.2229C101.893 64.5582 99.1275 63.1142 98.3676 65.0396C97.6076 66.2229 96.6155 66.7042 95.0957 66.4636C93.3436 66.4636 93.0903 69.0909 94.8423 69.3315C95.6023 69.5722 96.3411 69.5722 97.101 69.3315C97.3121 70.4948 97.3121 71.4575 97.0588 72.6408ZM100.563 43.3191C102.568 43.0784 102.822 45.9464 100.816 46.1871H99.0641C97.0588 46.1871 97.3121 43.3191 99.3175 43.3191H100.563Z" fill="#FF00B7"/>
<path fill-rule="evenodd" clip-rule="evenodd" d="M60.9201 72.6408C61.68 75.2681 64.192 77.1734 67.4428 76.9327C70.9469 76.9327 73.7122 74.0647 73.4589 70.7354C73.4589 68.3488 71.9601 66.2028 69.7015 65.2602C67.9494 64.5382 69.1948 61.9309 70.9469 62.6329C71.7068 63.1142 72.4456 63.3549 72.9523 63.8162L73.2056 64.0569C75.2109 61.6702 75.7175 58.3409 74.451 55.7136C74.1977 55.2323 73.9444 54.9916 73.6911 54.5303C72.4456 55.7136 70.6725 56.4356 68.9204 56.6763C68.9204 57.639 68.6671 58.3409 68.4138 59.3036C67.6539 60.9683 64.6564 59.785 65.3952 58.1203C66.1551 56.6964 65.6485 55.0117 64.382 54.069C62.8832 52.8857 64.8886 50.4991 66.3873 51.6824C67.1473 52.4044 67.6328 53.1064 68.1394 54.069C70.9047 53.347 73.1633 51.4417 74.1555 49.0551C74.9154 46.9091 74.6621 44.2818 73.3955 42.3765C72.6356 41.4138 71.8968 40.7118 70.8836 40.2305L70.8228 40.2449C69.8307 40.4807 68.8579 40.7118 67.865 40.7118C66.6195 40.7118 65.6063 40.7118 64.3609 40.2305C62.6088 39.7492 63.3476 37.1218 65.3741 37.6032C66.134 37.8439 66.8728 37.8438 67.6328 37.8438C71.6435 37.6032 74.4088 34.5146 74.4088 30.9246C74.1555 27.114 70.9047 24.246 67.1262 24.4867C64.3609 24.7273 61.8489 26.1513 60.8568 28.5379H61.1101C61.87 28.7786 62.6088 29.0193 63.1154 29.2599C63.6221 29.0193 64.1287 28.5379 64.8675 28.2973C66.6195 27.3346 67.8861 30.2026 66.1129 30.9246C64.8675 31.4059 64.3609 32.5892 64.3609 33.7926C64.6142 35.6979 61.5956 35.9385 61.3423 34.0332C61.3423 33.3112 61.3423 32.6093 61.5956 31.8873C61.089 31.6466 60.5824 31.4059 60.0968 31.4059C58.0915 30.6839 55.5795 31.1653 53.8275 32.5892C51.0622 35.2165 51.0622 39.2678 53.8275 41.6545C55.3262 43.0784 53.3208 45.2244 51.8221 43.8004C51.3155 43.3191 50.8089 42.8378 50.3234 42.1358C48.0647 43.8004 46.8193 46.1871 46.8193 48.8144C47.0726 53.1064 50.83 56.195 55.094 56.195C57.0994 55.9543 57.3527 58.8223 55.3473 59.0629C53.8486 59.0629 52.3287 58.8223 51.0833 58.3409C50.07 59.7649 49.5845 61.2089 49.8378 62.8736C49.8378 66.9248 53.3419 70.0335 57.606 70.0335C57.606 69.3305 57.8461 68.6465 58.0926 67.9445L58.1126 67.8875C57.606 67.4062 57.0994 66.7042 56.8672 66.2229C55.8539 64.5582 58.8725 63.1142 59.6324 65.0396C60.1391 66.2229 61.3845 66.7042 62.651 66.4636C64.6564 66.4636 64.9097 69.0909 62.9043 69.3315C62.1444 69.5722 61.4056 69.5722 60.899 69.3315C60.4135 70.4948 60.4135 71.4575 60.9201 72.6408ZM57.416 43.3191C55.4106 43.0784 54.904 45.9464 56.9094 46.1871H58.6614C60.6668 46.1871 60.6668 43.3191 58.6614 43.3191H57.416Z" fill="#FF00B7"/>
<path d="M66.704 122.941C66.9573 129.138 72.4667 134.152 78.9894 134.152C85.5121 134.152 91.0427 129.138 91.2749 122.941H66.704Z" fill="#FF00B7"/>
</g>
<defs>
<filter id="filter0_d_72_1170" x="0.848482" y="0.509089" width="156.303" height="156.303" filterUnits="userSpaceOnUse" color-interpolation-filters="sRGB">
<feFlood flood-opacity="0" result="BackgroundImageFix"/>
<feColorMatrix in="SourceAlpha" type="matrix" values="0 0 0 0 0 0 0 0 0 0 0 0 0 0 0 0 0 0 127 0" result="hardAlpha"/>
<feOffset dy="5.66061"/>
<feGaussianBlur stdDeviation="7.07576"/>
<feComposite in2="hardAlpha" operator="out"/>
<feColorMatrix type="matrix" values="0 0 0 0 1 0 0 0 0 0 0 0 0 0 0.717647 0 0 0 1 0"/>
<feBlend mode="normal" in2="BackgroundImageFix" result="effect1_dropShadow_72_1170"/>
<feBlend mode="normal" in="SourceGraphic" in2="effect1_dropShadow_72_1170" result="shape"/>
</filter>
</defs>
</svg>
