<svg width="80" height="80" viewBox="0 0 80 80" fill="none" xmlns="http://www.w3.org/2000/svg">
<circle cx="40" cy="40" r="40" fill="white"/>
<path d="M45.4286 59.5081C45.3346 62.5792 42.8198 65 39.7488 65C36.6777 65 34.1629 62.5792 33.9749 59.5081H33.2306C30.9038 59.5081 29.5955 56.7113 31.272 54.9486C29.4075 54.0163 29.2273 51.5015 30.896 50.295V49.2687C30.708 46.4718 29.2194 44.5211 27.6369 42.4685C25.4981 39.7657 23.2575 36.7886 23.2575 31.3908C23.2575 26.9174 25.1221 22.7339 28.0991 19.843C34.3352 13.5129 44.3945 13.4188 50.8187 19.3808C52.4952 20.8693 53.7957 22.7339 54.728 24.6846C56.1225 27.7557 56.4985 31.3908 55.8483 34.7439C55.104 38.097 53.4275 40.3297 51.8449 42.4763C50.2624 44.5211 48.7739 46.4797 48.5859 49.2765V50.3968C48.6799 50.4908 48.7739 50.5849 48.8679 50.6789C50.1684 51.9794 49.8002 54.126 48.2177 54.9642C49.8002 56.7348 48.5937 59.5238 46.2591 59.5238H45.4286V59.5081ZM35.1892 59.5081C35.2832 61.9289 37.328 63.8875 39.7488 63.8875C42.1696 63.8875 44.2222 61.9289 44.3083 59.5081H35.1892ZM33.1366 55.2228C31.178 55.3168 31.178 58.3878 33.2306 58.3878H46.2669C48.2255 58.3878 48.3117 55.3168 46.2669 55.2228H33.1366ZM32.4863 49.8249H39.1925V46.3778C38.8165 46.2838 38.4483 46.0018 38.1662 45.8216C37.7902 45.3594 37.516 44.7953 37.516 44.2391C37.516 43.5888 37.798 43.1187 38.1662 42.6565C38.5423 42.2805 39.0985 42.0063 39.7488 42.0063C40.305 42.0063 40.8691 42.2883 41.2373 42.6565C41.6995 43.1187 41.8875 43.5888 41.8875 44.2391C41.8875 44.7953 41.6995 45.3594 41.2373 45.8216C41.0493 46.0096 40.681 46.2838 40.305 46.3778V49.8249H47.0112C47.1052 49.8249 47.2932 49.8249 47.4734 49.9189C47.5674 46.6599 48.2177 45.2654 50.9205 41.7242C52.503 39.7657 54.1796 37.5329 54.7358 34.2738C55.292 31.2968 55.0178 28.1317 53.8035 25.4289C52.9653 23.4703 51.7588 21.7076 50.1684 20.3052C44.2065 14.6253 34.8053 14.7193 28.9374 20.5872C26.1405 23.3841 24.464 27.1994 24.464 31.3908C24.464 36.4204 26.5088 39.2094 28.5613 41.8182C31.4444 45.5396 31.9144 46.8479 32.0085 49.8249C32.2043 49.8249 32.2983 49.8249 32.4863 49.8249ZM47.0112 50.9452H32.4863C30.4416 50.9452 30.4416 54.1103 32.4863 54.1103H47.0112C49.0638 54.1103 49.0638 50.9452 47.0112 50.9452ZM40.493 43.4948C40.305 43.3068 40.0308 43.2128 39.7488 43.2128C39.4667 43.2128 39.1925 43.3068 39.0045 43.4948C38.8165 43.6828 38.6284 43.957 38.6284 44.2391C38.6284 44.5211 38.8165 44.7953 39.0045 44.9833C39.1925 45.1713 39.4667 45.2654 39.7488 45.2654C40.0308 45.2654 40.305 45.1713 40.493 44.9833C40.681 44.7953 40.7751 44.5211 40.7751 44.2391C40.7751 43.957 40.681 43.6828 40.493 43.4948ZM46.4549 39.8597C46.0789 40.886 45.1544 41.6302 44.0341 41.5362C42.7336 41.5362 41.7073 40.4159 41.7073 39.1154C41.8013 38.1831 42.3576 37.3449 43.1018 36.9766C43.8461 36.6946 43.3839 35.6761 42.6396 35.9503C42.3576 36.1384 42.1774 36.2324 41.8954 36.4126V36.5066C41.1511 35.5743 40.8691 34.2738 41.3391 33.2475C41.4331 33.0595 41.5271 32.9655 41.6212 32.7853C42.1774 33.2475 42.8355 33.5295 43.4857 33.6236C43.4857 33.9996 43.5797 34.2738 43.6737 34.6498C43.9558 35.3001 44.9742 34.8379 44.7 34.1876C44.512 33.6314 44.606 32.9733 45.0761 32.6051C45.7263 32.1429 44.9821 31.2106 44.4258 31.6728C44.1438 31.9548 43.8696 32.229 43.7756 32.6051C42.6553 32.3231 41.817 31.5788 41.5428 30.6465C41.1668 29.8082 41.3548 28.7819 41.8249 28.0377C42.0129 27.6616 42.3811 27.3874 42.7571 27.1994C43.0392 27.2934 43.5014 27.3874 43.8774 27.3874C44.2535 27.3874 44.7157 27.3874 45.0918 27.1994C45.836 27.0114 45.4678 25.9851 44.8097 26.1731C44.5277 26.2671 44.2535 26.2671 43.8774 26.2671C42.4829 26.1731 41.3626 24.9666 41.4566 23.5643C41.5507 22.0758 42.7571 20.9555 44.1595 21.0495C45.1858 21.1435 46.024 21.6997 46.3923 22.632C46.1102 22.726 45.836 22.82 45.648 22.914C45.46 22.82 45.1858 22.632 44.9978 22.538C44.3475 22.1619 43.7834 23.2823 44.5355 23.5643C44.9116 23.7523 45.1858 24.2145 45.0918 24.6846C44.9978 25.4289 46.1181 25.5229 46.2121 24.7786C46.3061 24.4966 46.3061 24.2224 46.2121 23.9403C46.3061 23.8463 46.4941 23.7523 46.6743 23.7523C47.5126 23.4703 48.4449 23.6583 49.0951 24.2145C50.0274 25.2408 50.0274 26.8234 49.0011 27.7557C48.4449 28.3119 49.2831 29.1502 49.8394 28.5939C50.0274 28.4059 50.2154 28.2179 50.3016 27.9437C51.2339 28.5939 51.6961 29.5262 51.6961 30.5525C51.6021 32.229 50.2076 33.4355 48.531 33.4355C47.7868 33.3415 47.7868 34.4618 48.531 34.5558C49.0873 34.5558 49.6513 34.4618 50.1136 34.2738C50.4896 34.83 50.5758 35.3941 50.5758 36.0444C50.4818 37.6269 49.2753 38.8412 47.6928 38.8412C47.6928 38.5592 47.5987 38.285 47.5047 38.0029C47.6928 37.8149 47.8808 37.5407 47.967 37.3527C48.249 36.7024 47.2227 36.1384 46.9407 36.8905C46.6586 37.3527 46.2904 37.5407 45.7263 37.4467C45.0761 37.4467 44.9821 38.473 45.6323 38.567C45.9144 38.661 46.1886 38.661 46.4706 38.567C46.5489 39.0214 46.5489 39.3974 46.4549 39.8597ZM40.8691 31.947C40.681 32.229 40.493 32.5032 40.3128 32.7853C39.6626 34.3678 39.9368 36.1384 41.1511 37.3449C40.7751 37.8071 40.5949 38.4652 40.5949 39.0214C40.5009 40.98 41.9894 42.6565 43.948 42.7427C44.9742 42.7427 45.8125 42.3667 46.4628 41.8104C47.019 41.3482 47.3951 40.6901 47.5831 39.9458C49.8159 39.9458 51.5864 38.2693 51.6804 36.0365C51.7744 35.1983 51.4924 34.454 51.1242 33.7097C52.0565 32.9655 52.7067 31.8452 52.8007 30.6387C52.8007 29.1502 52.0565 27.7556 50.8422 26.9174C51.3984 24.7786 49.8159 22.632 47.5831 22.444C47.1209 21.0495 45.7185 20.0232 44.23 19.9292C42.0912 19.8352 40.4147 21.4177 40.3207 23.4703C40.2266 24.6846 40.6967 25.7971 41.6212 26.5413C41.3391 26.8234 41.0649 27.0976 40.8769 27.4736C40.1326 28.4999 40.0386 29.8004 40.4147 31.0147C40.493 31.2968 40.681 31.665 40.8691 31.947ZM47.8494 29.5262C48.5937 29.4322 48.4997 28.3119 47.7554 28.4059C47.5674 28.4059 47.4734 28.4059 47.2932 28.4059C46.5489 28.4059 46.4549 29.5262 47.1992 29.5262C47.4812 29.5262 47.6614 29.5262 47.8494 29.5262ZM33.0426 39.8597C33.3246 40.886 34.2569 41.6302 35.4634 41.5362C36.7639 41.5362 37.7902 40.4159 37.6962 39.1154C37.6962 38.1831 37.1399 37.3449 36.3017 36.9766C35.6514 36.6946 36.1136 35.6761 36.7639 35.9503C37.0459 36.1384 37.3201 36.2324 37.5081 36.4126L37.6022 36.5066C38.3464 35.5743 38.5344 34.2738 38.0644 33.2475C37.9704 33.0595 37.8764 32.9655 37.7823 32.7853C37.3201 33.2475 36.662 33.5295 36.0118 33.6236C36.0118 33.9996 35.9178 34.2738 35.8238 34.6498C35.5417 35.3001 34.4293 34.8379 34.7035 34.1876C34.9855 33.6314 34.7975 32.9733 34.3274 32.6051C33.7712 32.1429 34.5154 31.2106 35.0717 31.6728C35.3537 31.9548 35.5339 32.229 35.7219 32.6051C36.7482 32.3231 37.5865 31.5788 37.9547 30.6465C38.2367 29.8082 38.1427 28.7819 37.6727 28.0377C37.3906 27.6616 37.1164 27.3874 36.7404 27.1994C36.3643 27.2934 35.9961 27.3874 35.6201 27.3874C35.1578 27.3874 34.7818 27.3874 34.3196 27.1994C33.6693 27.0114 33.9435 25.9851 34.6956 26.1731C34.9777 26.2671 35.2519 26.2671 35.5339 26.2671C37.0224 26.1731 38.0487 24.9666 38.0487 23.5643C37.9547 22.0758 36.7482 20.9555 35.3459 21.0495C34.3196 21.1435 33.3873 21.6997 33.0191 22.632H33.1131C33.3951 22.726 33.6693 22.82 33.8573 22.914C34.0454 22.82 34.2334 22.632 34.5076 22.538C35.1578 22.1619 35.6279 23.2823 34.9698 23.5643C34.5076 23.7523 34.3196 24.2145 34.3196 24.6846C34.4136 25.4289 33.2933 25.5229 33.1993 24.7786C33.1993 24.4966 33.1993 24.2224 33.2933 23.9403C33.1053 23.8463 32.9172 23.7523 32.737 23.7523C31.9928 23.4703 31.0605 23.6583 30.4102 24.2145C29.384 25.2408 29.384 26.8234 30.4102 27.7557C30.9665 28.3119 30.2222 29.1502 29.666 28.5939C29.478 28.4059 29.2899 28.2179 29.1098 27.9437C28.2715 28.5939 27.8093 29.5262 27.8093 30.5525C27.9033 32.229 29.2978 33.4355 30.8803 33.4355C31.6246 33.3415 31.7186 34.4618 30.9743 34.5558C30.4181 34.5558 29.854 34.4618 29.3918 34.2738C29.0157 34.83 28.8356 35.3941 28.9296 36.0444C28.9296 37.6269 30.2301 38.8412 31.8126 38.8412C31.8126 38.5592 31.9066 38.285 32.0006 38.0029C31.8126 37.8149 31.6246 37.5407 31.5384 37.3527C31.1623 36.7024 32.2827 36.1384 32.5647 36.8905C32.7527 37.3527 33.2149 37.5407 33.685 37.4467C34.4293 37.4467 34.5233 38.473 33.779 38.567C33.497 38.661 33.2228 38.661 33.0347 38.567C32.8546 39.0214 32.8546 39.3974 33.0426 39.8597ZM38.5344 31.947C38.8165 32.229 38.9967 32.5032 39.0907 32.7853C39.8349 34.3678 39.4667 36.1384 38.3464 37.3449C38.6284 37.8071 38.8086 38.4652 38.8086 39.0214C38.9026 40.98 37.4141 42.6565 35.4555 42.7427C34.5233 42.7427 33.591 42.3667 32.9407 41.8104C32.3845 41.3482 32.0084 40.6901 31.8204 39.9458C29.6817 39.9458 27.8171 38.2693 27.7231 36.0365C27.7231 35.1983 27.9111 34.454 28.3733 33.7097C27.347 32.9655 26.6968 31.8452 26.6968 30.6387C26.6028 29.1502 27.347 27.7556 28.6554 26.9174C28.0991 24.7786 29.5876 22.632 31.9144 22.444C32.3767 21.0495 33.685 20.0232 35.2675 19.9292C37.3123 19.8352 39.0828 21.4177 39.1769 23.4703C39.2709 24.6846 38.7146 25.7971 37.7823 26.5413C38.1584 26.8234 38.4326 27.0976 38.6206 27.4736C39.2709 28.4999 39.4589 29.8004 38.9967 31.0147C38.9105 31.2968 38.8165 31.665 38.5344 31.947ZM31.5541 29.5262C30.8098 29.4322 30.9978 28.3119 31.7421 28.4059C31.9301 28.4059 32.0241 28.4059 32.2043 28.4059C32.9486 28.4059 32.9486 29.5262 32.2043 29.5262C32.0163 29.5262 31.8361 29.5262 31.5541 29.5262ZM21.0326 46.2838C20.3823 46.6599 19.7321 45.7276 20.3823 45.3515L23.5474 43.0247C24.1976 42.5625 24.8479 43.487 24.1976 43.957L21.0326 46.2838ZM59.1152 45.3594C59.6714 45.7354 59.0212 46.6599 58.4649 46.2916L55.2059 43.9649C54.6496 43.5026 55.2999 42.5703 55.9501 43.0326L59.1152 45.3594ZM62.8443 27.3874C63.5886 27.2934 63.7766 28.4137 63.0324 28.5077L59.123 29.158C58.3788 29.252 58.1907 28.1317 58.935 28.0377L62.8443 27.3874ZM62.8443 36.1384C63.5886 36.3264 63.4006 37.4389 62.6563 37.2587L58.747 36.4204C58.0027 36.3264 58.2848 35.2061 59.029 35.3941L62.8443 36.1384ZM58.9272 18.2605C59.5774 17.7982 60.2277 18.7227 59.5774 19.1927L56.3183 21.3315C55.6681 21.7937 55.0178 20.7753 55.6681 20.3992L58.9272 18.2605ZM16.473 28.4999C15.7287 28.4059 15.9168 27.2856 16.661 27.3796L20.5703 28.0299C21.3146 28.1239 21.1266 29.2442 20.3823 29.1502L16.473 28.4999ZM16.8412 37.2587C16.097 37.4467 15.9089 36.3264 16.5592 36.1384L20.4685 35.3941C21.2128 35.2061 21.4008 36.3264 20.6565 36.4204L16.8412 37.2587ZM19.9123 19.1927C19.262 18.7305 19.9123 17.7982 20.4685 18.2605L23.8216 20.3992C24.0096 20.5872 24.1036 20.9555 23.9156 21.1435C23.7276 21.4255 23.4534 21.5195 23.1713 21.3315L19.9123 19.1927Z" fill="#FF00B7"/>
</svg>
