<svg width="62" height="61" viewBox="0 0 62 61" fill="none" xmlns="http://www.w3.org/2000/svg">
<g filter="url(#filter0_d_72_1168)">
<path d="M34.8234 37.4852C34.76 39.4507 33.066 41 30.9974 41C28.9287 41 27.2347 39.4507 27.108 37.4852H26.6067C25.0393 37.4852 24.158 35.6952 25.2874 34.5671C24.0314 33.9704 23.91 32.3609 25.0341 31.5888V30.932C24.9074 29.142 23.9047 27.8935 22.8387 26.5798C21.398 24.85 19.8887 22.9447 19.8887 19.4901C19.8887 16.6271 21.1447 13.9497 23.1501 12.0995C27.3508 8.04823 34.1268 7.98806 38.4541 11.8037C39.5835 12.7563 40.4595 13.9497 41.0875 15.1981C42.0268 17.1636 42.2801 19.4901 41.8421 21.6361C41.3408 23.782 40.2115 25.211 39.1455 26.5849C38.0794 27.8935 37.0768 29.147 36.9501 30.937V31.654C37.0134 31.7141 37.0768 31.7743 37.1401 31.8345C38.0161 32.6668 37.7681 34.0406 36.7021 34.5771C37.7681 35.7103 36.9554 37.4952 35.3828 37.4952H34.8234V37.4852ZM27.926 37.4852C27.9893 39.0345 29.3667 40.288 30.9974 40.288C32.628 40.288 34.0107 39.0345 34.0687 37.4852H27.926ZM26.5434 34.7426C25.224 34.8027 25.224 36.7682 26.6067 36.7682H35.388C36.7074 36.7682 36.7654 34.8027 35.388 34.7426H26.5434ZM26.1053 31.288H30.6227V29.0818C30.3694 29.0216 30.1213 28.8411 29.9314 28.7258C29.678 28.43 29.4933 28.069 29.4933 27.713C29.4933 27.2968 29.6833 26.996 29.9314 26.7002C30.1847 26.4595 30.5593 26.284 30.9974 26.284C31.372 26.284 31.752 26.4645 32 26.7002C32.3114 26.996 32.4381 27.2968 32.4381 27.713C32.4381 28.069 32.3114 28.43 32 28.7258C31.8734 28.8462 31.6254 29.0216 31.372 29.0818V31.288H35.8894C35.9527 31.288 36.0794 31.288 36.2007 31.3481C36.2641 29.2623 36.7021 28.3698 38.5227 26.1035C39.5887 24.85 40.7181 23.421 41.0928 21.3352C41.4675 19.4299 41.2827 17.4043 40.4648 15.6745C39.9001 14.421 39.0874 13.2928 38.0161 12.3953C34.0001 8.76021 27.6674 8.82038 23.7147 12.5758C21.8308 14.3658 20.7014 16.8076 20.7014 19.4901C20.7014 22.7091 22.0788 24.494 23.4614 26.1637C25.4035 28.5453 25.7201 29.3826 25.7834 31.288C25.9154 31.288 25.9787 31.288 26.1053 31.288ZM35.8894 32.0049H26.1053C24.728 32.0049 24.728 34.0306 26.1053 34.0306H35.8894C37.272 34.0306 37.272 32.0049 35.8894 32.0049ZM31.4987 27.2367C31.372 27.1163 31.1873 27.0562 30.9974 27.0562C30.8074 27.0562 30.6227 27.1163 30.496 27.2367C30.3694 27.357 30.2427 27.5325 30.2427 27.713C30.2427 27.8935 30.3694 28.069 30.496 28.1893C30.6227 28.3097 30.8074 28.3698 30.9974 28.3698C31.1873 28.3698 31.372 28.3097 31.4987 28.1893C31.6254 28.069 31.6887 27.8935 31.6887 27.713C31.6887 27.5325 31.6254 27.357 31.4987 27.2367ZM35.5147 24.9102C35.2614 25.567 34.6387 26.0433 33.884 25.9832C33.008 25.9832 32.3167 25.2662 32.3167 24.4339C32.38 23.8372 32.7547 23.3007 33.256 23.0651C33.7574 22.8845 33.446 22.2327 32.9447 22.4082C32.7547 22.5286 32.6333 22.5887 32.4433 22.704V22.7642C31.942 22.1676 31.752 21.3352 32.0686 20.6784C32.132 20.5581 32.1953 20.4979 32.2586 20.3826C32.6333 20.6784 33.0766 20.8589 33.5146 20.9191C33.5146 21.1597 33.5779 21.3352 33.6413 21.5759C33.8313 21.9921 34.5173 21.6962 34.3326 21.2801C34.2059 20.9241 34.2693 20.5029 34.5859 20.2673C35.0239 19.9714 34.5226 19.3748 34.1479 19.6706C33.9579 19.8511 33.7732 20.0266 33.7099 20.2673C32.9552 20.0868 32.3906 19.6104 32.2059 19.0138C31.9525 18.4773 32.0792 17.8204 32.3958 17.3441C32.5225 17.1034 32.7705 16.928 33.0238 16.8076C33.2138 16.8678 33.5252 16.928 33.7785 16.928C34.0318 16.928 34.3431 16.928 34.5965 16.8076C35.0978 16.6873 34.8498 16.0305 34.4065 16.1508C34.2165 16.211 34.0318 16.211 33.7785 16.211C32.8391 16.1508 32.0845 15.3786 32.1478 14.4811C32.2111 13.5285 33.0238 12.8115 33.9685 12.8717C34.6598 12.9318 35.2244 13.2878 35.4725 13.8845C35.2825 13.9447 35.0978 14.0048 34.9711 14.065C34.8445 14.0048 34.6598 13.8845 34.5331 13.8243C34.0951 13.5836 33.7152 14.3006 34.2218 14.4811C34.4751 14.6015 34.6598 14.8973 34.5965 15.1981C34.5331 15.6745 35.2878 15.7346 35.3511 15.2583C35.4144 15.0778 35.4144 14.9023 35.3511 14.7218C35.4144 14.6616 35.5411 14.6015 35.6625 14.6015C36.2271 14.421 36.8551 14.5413 37.2931 14.8973C37.9211 15.5541 37.9211 16.567 37.2298 17.1636C36.8551 17.5196 37.4198 18.0561 37.7945 17.7001C37.9211 17.5798 38.0478 17.4594 38.1058 17.284C38.7338 17.7001 39.0452 18.2968 39.0452 18.9536C38.9819 20.0266 38.0425 20.7987 36.9132 20.7987C36.4118 20.7386 36.4118 21.4556 36.9132 21.5157C37.2879 21.5157 37.6678 21.4556 37.9792 21.3352C38.2325 21.6912 38.2905 22.0522 38.2905 22.4684C38.2272 23.4812 37.4145 24.2584 36.3485 24.2584C36.3485 24.0826 36.2885 23.9116 36.2269 23.7361C36.2252 23.7314 36.2235 23.7266 36.2219 23.7219C36.3485 23.6015 36.4752 23.4261 36.5332 23.3057C36.7232 22.8896 36.0319 22.5286 35.8419 23.0099C35.6519 23.3057 35.4039 23.4261 35.0239 23.3659C34.5859 23.3659 34.5226 24.0227 34.9606 24.0829C35.1506 24.1431 35.3353 24.1431 35.5253 24.0829C35.578 24.3737 35.578 24.6144 35.5147 24.9102ZM31.752 19.8461C31.6254 20.0266 31.4987 20.2021 31.3773 20.3826C30.9393 21.3954 31.124 22.5286 31.942 23.3007C31.6887 23.5965 31.5673 24.0177 31.5673 24.3737C31.504 25.6272 32.5067 26.7002 33.826 26.7553C34.5173 26.7553 35.082 26.5147 35.52 26.1587C35.8947 25.8628 36.148 25.4417 36.2746 24.9653C37.7786 24.9653 38.9713 23.8924 39.0346 22.4634C39.098 21.9269 38.908 21.4506 38.6599 20.9742C39.2879 20.4979 39.726 19.7809 39.7893 19.0088C39.7893 18.0561 39.2879 17.1636 38.47 16.6271C38.8447 15.2583 37.7786 13.8845 36.2746 13.7641C35.9633 12.8717 35.0186 12.2148 34.016 12.1547C32.5753 12.0945 31.4459 13.1073 31.3826 14.421C31.3193 15.1981 31.6359 15.9101 32.2586 16.3865C32.0686 16.567 31.8839 16.7424 31.7573 16.9831C31.2559 17.6399 31.1926 18.4723 31.4459 19.2494C31.4987 19.4299 31.6254 19.6656 31.752 19.8461ZM36.4541 18.2968C36.9554 18.2366 36.8921 17.5196 36.3907 17.5798C36.2641 17.5798 36.2007 17.5798 36.0794 17.5798C35.578 17.5798 35.5147 18.2968 36.016 18.2968C36.206 18.2968 36.3274 18.2968 36.4541 18.2968ZM26.48 24.9102C26.67 25.567 27.298 26.0433 28.1107 25.9832C28.9867 25.9832 29.678 25.2662 29.6147 24.4339C29.6147 23.8372 29.24 23.3007 28.6754 23.0651C28.2374 22.8845 28.5487 22.2327 28.9867 22.4082C29.1767 22.5286 29.3614 22.5887 29.4881 22.704L29.5514 22.7642C30.0527 22.1676 30.1794 21.3352 29.8627 20.6784C29.7994 20.5581 29.7361 20.4979 29.6728 20.3826C29.3614 20.6784 28.9181 20.8589 28.4801 20.9191C28.4801 21.1597 28.4168 21.3352 28.3535 21.5759C28.1635 21.9921 27.4141 21.6962 27.5988 21.2801C27.7888 20.9241 27.6621 20.5029 27.3455 20.2673C26.9708 19.9714 27.4722 19.3748 27.8468 19.6706C28.0368 19.8511 28.1582 20.0266 28.2848 20.2673C28.9762 20.0868 29.5408 19.6104 29.7889 19.0138C29.9788 18.4773 29.9155 17.8204 29.5989 17.3441C29.4089 17.1034 29.2242 16.928 28.9709 16.8076C28.9658 16.8088 28.9608 16.81 28.9557 16.8112C28.7077 16.8702 28.4645 16.928 28.2162 16.928C27.9049 16.928 27.6516 16.928 27.3402 16.8076C26.9022 16.6873 27.0869 16.0305 27.5935 16.1508C27.7835 16.211 27.9682 16.211 28.1582 16.211C29.1609 16.1508 29.8522 15.3786 29.8522 14.4811C29.7889 13.5285 28.9762 12.8115 28.0315 12.8717C27.3402 12.9318 26.7122 13.2878 26.4642 13.8845H26.5275C26.7175 13.9447 26.9022 14.0048 27.0289 14.065C27.1555 14.0048 27.2822 13.8845 27.4669 13.8243C27.9049 13.5836 28.2215 14.3006 27.7782 14.4811C27.4669 14.6015 27.3402 14.8973 27.3402 15.1981C27.4035 15.6745 26.6489 15.7346 26.5856 15.2583C26.5856 15.0778 26.5856 14.9023 26.6489 14.7218C26.5222 14.6616 26.3956 14.6015 26.2742 14.6015C25.7729 14.421 25.1449 14.5413 24.7069 14.8973C24.0155 15.5541 24.0155 16.567 24.7069 17.1636C25.0815 17.5196 24.5802 18.0561 24.2055 17.7001C24.0789 17.5798 23.9522 17.4594 23.8308 17.284C23.2662 17.7001 22.9548 18.2968 22.9548 18.9536C23.0181 20.0266 23.9575 20.7987 25.0235 20.7987C25.5248 20.7386 25.5882 21.4556 25.0868 21.5157C24.7121 21.5157 24.3322 21.4556 24.0208 21.3352C23.7675 21.6912 23.6461 22.0522 23.7095 22.4684C23.7095 23.4812 24.5855 24.2584 25.6515 24.2584C25.6515 24.0826 25.7115 23.9116 25.7731 23.7361C25.7748 23.7314 25.7765 23.7266 25.7781 23.7219C25.6515 23.6015 25.5248 23.4261 25.4668 23.3057C25.2135 22.8896 25.9681 22.5286 26.1581 23.0099C26.2848 23.3057 26.5961 23.4261 26.9128 23.3659C27.4141 23.3659 27.4774 24.0227 26.9761 24.0829C26.7861 24.1431 26.6014 24.1431 26.4747 24.0829C26.3534 24.3737 26.3534 24.6144 26.48 24.9102ZM30.1794 19.8461C30.3694 20.0266 30.4907 20.2021 30.5541 20.3826C31.0554 21.3954 30.8074 22.5286 30.0527 23.3007C30.2427 23.5965 30.3641 24.0177 30.3641 24.3737C30.4274 25.6272 29.4247 26.7002 28.1054 26.7553C27.4774 26.7553 26.8494 26.5147 26.4114 26.1587C26.0367 25.8628 25.7834 25.4417 25.6568 24.9653C24.2161 24.9653 22.9601 23.8924 22.8968 22.4634C22.8968 21.9269 23.0234 21.4506 23.3348 20.9742C22.6435 20.4979 22.2054 19.7809 22.2054 19.0088C22.1421 18.0561 22.6435 17.1636 23.5248 16.6271C23.1501 15.2583 24.1528 13.8845 25.7201 13.7641C26.0315 12.8717 26.9128 12.2148 27.9788 12.1547C29.3561 12.0945 30.5488 13.1073 30.6121 14.421C30.6754 15.1981 30.3008 15.9101 29.6728 16.3865C29.9261 16.567 30.1108 16.7424 30.2374 16.9831C30.6754 17.6399 30.8021 18.4723 30.4907 19.2494C30.4327 19.4299 30.3694 19.6656 30.1794 19.8461ZM25.4773 18.2968C24.976 18.2366 25.1027 17.5196 25.604 17.5798C25.7307 17.5798 25.794 17.5798 25.9154 17.5798C26.4167 17.5798 26.4167 18.2968 25.9154 18.2968C25.7887 18.2968 25.6673 18.2968 25.4773 18.2968ZM18.39 29.0216C17.952 29.2623 17.514 28.6656 17.952 28.425L20.084 26.9358C20.522 26.64 20.96 27.2317 20.522 27.5325L18.39 29.0216ZM44.0428 28.43C44.4174 28.6707 43.9794 29.2623 43.6047 29.0267L41.4094 27.5375C41.0347 27.2417 41.4727 26.645 41.9107 26.9408L44.0428 28.43ZM46.5547 16.928C47.0561 16.8678 47.1827 17.5848 46.6814 17.645L44.048 18.0611C43.5467 18.1213 43.42 17.4043 43.9214 17.3441L46.5547 16.928ZM46.5547 22.5286C47.0561 22.6489 46.9294 23.3609 46.4281 23.2456L43.7947 22.7091C43.2934 22.6489 43.4834 21.9319 43.9847 22.0522L46.5547 22.5286ZM43.9161 11.0867C44.3541 10.7909 44.7921 11.3825 44.3541 11.6834L42.1588 13.0522C41.7208 13.348 41.2827 12.6962 41.7208 12.4555L43.9161 11.0867ZM15.3186 17.6399C14.8173 17.5798 14.9439 16.8628 15.4453 16.9229L18.0786 17.3391C18.58 17.3993 18.4533 18.1163 17.952 18.0561L15.3186 17.6399ZM15.5666 23.2456C15.0653 23.3659 14.9387 22.6489 15.3767 22.5286L18.01 22.0522C18.5114 21.9319 18.638 22.6489 18.1367 22.7091L15.5666 23.2456ZM17.6353 11.6834C17.1973 11.3875 17.6353 10.7909 18.01 11.0867L20.2687 12.4555C20.3953 12.5758 20.4587 12.8115 20.332 12.9318C20.2054 13.1123 20.0207 13.1725 19.8307 13.0522L17.6353 11.6834Z" fill="#FF00B7"/>
<path fill-rule="evenodd" clip-rule="evenodd" d="M35.5147 24.9102C35.2614 25.567 34.6387 26.0433 33.884 25.9832C33.008 25.9832 32.3167 25.2662 32.3167 24.4339C32.38 23.8372 32.7547 23.3007 33.256 23.0651C33.7574 22.8845 33.446 22.2327 32.9447 22.4082C32.7547 22.5286 32.6333 22.5887 32.4433 22.704V22.7642C31.942 22.1676 31.752 21.3352 32.0686 20.6784C32.132 20.5581 32.1953 20.4979 32.2586 20.3826C32.6333 20.6784 33.0766 20.8589 33.5146 20.9191C33.5146 21.1597 33.5779 21.3352 33.6413 21.5759C33.8313 21.9921 34.5173 21.6962 34.3326 21.2801C34.2059 20.9241 34.2693 20.5029 34.5859 20.2673C35.0239 19.9714 34.5226 19.3748 34.1479 19.6706C33.9579 19.8511 33.7732 20.0266 33.7099 20.2673C32.9552 20.0868 32.3906 19.6104 32.2059 19.0138C31.9525 18.4773 32.0792 17.8204 32.3958 17.3441C32.5225 17.1034 32.7705 16.928 33.0238 16.8076C33.2138 16.8678 33.5252 16.928 33.7785 16.928C34.0318 16.928 34.3431 16.928 34.5965 16.8076C35.0978 16.6873 34.8498 16.0305 34.4065 16.1508C34.2165 16.211 34.0318 16.211 33.7785 16.211C32.8391 16.1508 32.0845 15.3786 32.1478 14.4811C32.2111 13.5285 33.0238 12.8115 33.9685 12.8717C34.6598 12.9318 35.2244 13.2878 35.4725 13.8845C35.2825 13.9447 35.0978 14.0048 34.9711 14.065C34.8445 14.0048 34.6598 13.8845 34.5331 13.8243C34.0951 13.5836 33.7152 14.3006 34.2218 14.4811C34.4751 14.6015 34.6598 14.8973 34.5965 15.1981C34.5331 15.6745 35.2878 15.7346 35.3511 15.2583C35.4144 15.0778 35.4144 14.9023 35.3511 14.7218C35.4144 14.6616 35.5411 14.6015 35.6625 14.6015C36.2271 14.421 36.8551 14.5413 37.2931 14.8973C37.9211 15.5541 37.9211 16.567 37.2298 17.1636C36.8551 17.5196 37.4198 18.0561 37.7945 17.7001C37.9211 17.5798 38.0478 17.4594 38.1058 17.284C38.7338 17.7001 39.0452 18.2968 39.0452 18.9536C38.9819 20.0266 38.0425 20.7987 36.9132 20.7987C36.4118 20.7386 36.4118 21.4556 36.9132 21.5157C37.2879 21.5157 37.6678 21.4556 37.9792 21.3352C38.2325 21.6912 38.2905 22.0522 38.2905 22.4684C38.2272 23.4812 37.4145 24.2584 36.3485 24.2584C36.3485 24.0826 36.2885 23.9116 36.2269 23.7361L36.2219 23.7219C36.3485 23.6015 36.4752 23.4261 36.5332 23.3057C36.7232 22.8896 36.0319 22.5286 35.8419 23.0099C35.6519 23.3057 35.4039 23.4261 35.0239 23.3659C34.5859 23.3659 34.5226 24.0227 34.9606 24.0829C35.1506 24.1431 35.3353 24.1431 35.5253 24.0829C35.578 24.3737 35.578 24.6144 35.5147 24.9102ZM36.3907 17.5798C36.8921 17.5196 36.9554 18.2366 36.4541 18.2968H36.016C35.5147 18.2968 35.578 17.5798 36.0794 17.5798H36.3907Z" fill="#FF00B7"/>
<path fill-rule="evenodd" clip-rule="evenodd" d="M26.48 24.9102C26.67 25.567 27.298 26.0433 28.1107 25.9832C28.9867 25.9832 29.678 25.2662 29.6147 24.4339C29.6147 23.8372 29.24 23.3007 28.6754 23.0651C28.2374 22.8845 28.5487 22.2327 28.9867 22.4082C29.1767 22.5286 29.3614 22.5887 29.4881 22.704L29.5514 22.7642C30.0527 22.1676 30.1794 21.3352 29.8627 20.6784C29.7994 20.5581 29.7361 20.4979 29.6728 20.3826C29.3614 20.6784 28.9181 20.8589 28.4801 20.9191C28.4801 21.1597 28.4168 21.3352 28.3535 21.5759C28.1635 21.9921 27.4141 21.6962 27.5988 21.2801C27.7888 20.9241 27.6621 20.5029 27.3455 20.2673C26.9708 19.9714 27.4722 19.3748 27.8468 19.6706C28.0368 19.8511 28.1582 20.0266 28.2848 20.2673C28.9762 20.0868 29.5408 19.6104 29.7889 19.0138C29.9788 18.4773 29.9155 17.8204 29.5989 17.3441C29.4089 17.1034 29.2242 16.928 28.9709 16.8076L28.9557 16.8112C28.7077 16.8702 28.4645 16.928 28.2162 16.928C27.9049 16.928 27.6516 16.928 27.3402 16.8076C26.9022 16.6873 27.0869 16.0305 27.5935 16.1508C27.7835 16.211 27.9682 16.211 28.1582 16.211C29.1609 16.1508 29.8522 15.3786 29.8522 14.4811C29.7889 13.5285 28.9762 12.8115 28.0315 12.8717C27.3402 12.9318 26.7122 13.2878 26.4642 13.8845H26.5275C26.7175 13.9447 26.9022 14.0048 27.0289 14.065C27.1555 14.0048 27.2822 13.8845 27.4669 13.8243C27.9049 13.5836 28.2215 14.3006 27.7782 14.4811C27.4669 14.6015 27.3402 14.8973 27.3402 15.1981C27.4035 15.6745 26.6489 15.7346 26.5856 15.2583C26.5856 15.0778 26.5856 14.9023 26.6489 14.7218C26.5222 14.6616 26.3956 14.6015 26.2742 14.6015C25.7729 14.421 25.1449 14.5413 24.7069 14.8973C24.0155 15.5541 24.0155 16.567 24.7069 17.1636C25.0815 17.5196 24.5802 18.0561 24.2055 17.7001C24.0789 17.5798 23.9522 17.4594 23.8308 17.284C23.2662 17.7001 22.9548 18.2968 22.9548 18.9536C23.0181 20.0266 23.9575 20.7987 25.0235 20.7987C25.5248 20.7386 25.5882 21.4556 25.0868 21.5157C24.7121 21.5157 24.3322 21.4556 24.0208 21.3352C23.7675 21.6912 23.6461 22.0522 23.7095 22.4684C23.7095 23.4812 24.5855 24.2584 25.6515 24.2584C25.6515 24.0826 25.7115 23.9116 25.7731 23.7361L25.7781 23.7219C25.6515 23.6015 25.5248 23.4261 25.4668 23.3057C25.2135 22.8896 25.9681 22.5286 26.1581 23.0099C26.2848 23.3057 26.5961 23.4261 26.9128 23.3659C27.4141 23.3659 27.4774 24.0227 26.9761 24.0829C26.7861 24.1431 26.6014 24.1431 26.4747 24.0829C26.3534 24.3737 26.3534 24.6144 26.48 24.9102ZM25.604 17.5798C25.1027 17.5196 24.976 18.2366 25.4773 18.2968H25.9154C26.4167 18.2968 26.4167 17.5798 25.9154 17.5798H25.604Z" fill="#FF00B7"/>
<path d="M27.926 37.4852C27.9893 39.0345 29.3667 40.288 30.9974 40.288C32.628 40.288 34.0107 39.0345 34.0687 37.4852H27.926Z" fill="#FF00B7"/>
</g>
<defs>
<filter id="filter0_d_72_1168" x="0.848482" y="0.509089" width="60.303" height="60.303" filterUnits="userSpaceOnUse" color-interpolation-filters="sRGB">
<feFlood flood-opacity="0" result="BackgroundImageFix"/>
<feColorMatrix in="SourceAlpha" type="matrix" values="0 0 0 0 0 0 0 0 0 0 0 0 0 0 0 0 0 0 127 0" result="hardAlpha"/>
<feOffset dy="5.66061"/>
<feGaussianBlur stdDeviation="7.07576"/>
<feComposite in2="hardAlpha" operator="out"/>
<feColorMatrix type="matrix" values="0 0 0 0 1 0 0 0 0 0 0 0 0 0 0.717647 0 0 0 1 0"/>
<feBlend mode="normal" in2="BackgroundImageFix" result="effect1_dropShadow_72_1168"/>
<feBlend mode="normal" in="SourceGraphic" in2="effect1_dropShadow_72_1168" result="shape"/>
</filter>
</defs>
</svg>
