<svg width="222" height="221" viewBox="0 0 222 221" fill="none" xmlns="http://www.w3.org/2000/svg">
<g filter="url(#filter0_d_72_1173)">
<path d="M133.94 179.911C133.56 191.704 123.396 201 110.984 201C98.572 201 88.408 191.704 87.6481 179.911H84.6401C75.236 179.911 69.9482 169.171 76.7242 162.403C69.1882 158.823 68.46 149.166 75.2043 144.533V140.592C74.4444 129.852 68.4283 122.361 62.0323 114.479C53.3881 104.1 44.3323 92.6683 44.3323 71.9406C44.3323 54.7627 51.8683 38.698 63.9004 27.5971C89.1046 3.28939 129.761 2.92838 155.725 25.8221C162.501 31.5381 167.757 38.698 171.525 46.1889C177.161 57.9817 178.681 71.9406 176.053 84.8164C173.045 97.6923 166.269 106.266 159.873 114.509C153.477 122.361 147.461 129.882 146.701 140.622V144.924C147.081 145.285 147.461 145.646 147.841 146.007C153.097 151.001 151.609 159.244 145.212 162.463C151.609 169.262 146.732 179.971 137.297 179.971H133.94V179.911ZM92.556 179.911C92.9359 189.207 101.2 196.728 110.984 196.728C120.768 196.728 129.064 189.207 129.412 179.911H92.556ZM84.2601 163.455C76.3442 163.816 76.3442 175.609 84.6401 175.609H137.328C145.244 175.609 145.592 163.816 137.328 163.455H84.2601ZM81.632 142.728H108.736V129.491C107.216 129.13 105.728 128.047 104.588 127.355C103.068 125.58 101.96 123.414 101.96 121.278C101.96 118.781 103.1 116.976 104.588 115.201C106.108 113.757 108.356 112.704 110.984 112.704C113.232 112.704 115.512 113.787 117 115.201C118.868 116.976 119.628 118.781 119.628 121.278C119.628 123.414 118.868 125.58 117 127.355C116.24 128.077 114.752 129.13 113.232 129.491V142.728H140.336C140.716 142.728 141.476 142.728 142.204 143.089C142.584 130.574 145.212 125.219 156.136 111.621C162.532 104.1 169.308 95.5263 171.557 83.0114C173.805 71.5796 172.696 59.4257 167.789 49.0468C164.401 41.5259 159.524 34.757 153.097 29.372C129.001 7.56128 91.0045 7.92229 67.2884 30.455C55.9845 41.1949 49.2085 55.8458 49.2085 71.9406C49.2085 91.2544 57.4727 101.964 65.7686 111.982C77.4208 126.272 79.3206 131.296 79.7006 142.728C80.4921 142.728 80.8721 142.728 81.632 142.728ZM140.336 147.03H81.632C73.3678 147.03 73.3678 159.184 81.632 159.184H140.336C148.632 159.184 148.632 147.03 140.336 147.03ZM113.992 118.42C113.232 117.698 112.124 117.337 110.984 117.337C109.844 117.337 108.736 117.698 107.976 118.42C107.216 119.142 106.456 120.195 106.456 121.278C106.456 122.361 107.216 123.414 107.976 124.136C108.736 124.858 109.844 125.219 110.984 125.219C112.124 125.219 113.232 124.858 113.992 124.136C114.752 123.414 115.132 122.361 115.132 121.278C115.132 120.195 114.752 119.142 113.992 118.42ZM138.088 104.461C136.568 108.402 132.832 111.26 128.304 110.899C123.048 110.899 118.9 106.597 118.9 101.603C119.28 98.0232 121.528 94.8042 124.536 93.3903C127.544 92.3073 125.676 88.3964 122.668 89.4493C121.528 90.1713 120.8 90.5323 119.66 91.2243V91.5853C116.652 88.0053 115.512 83.0114 117.412 79.0704C117.792 78.3484 118.172 77.9874 118.552 77.2955C120.8 79.0704 123.46 80.1534 126.088 80.5145C126.088 81.9585 126.468 83.0114 126.848 84.4554C127.988 86.9524 132.104 85.1774 130.996 82.6805C130.236 80.5445 130.616 78.0175 132.515 76.6036C135.143 74.8286 132.135 71.2486 129.887 73.0236C128.747 74.1066 127.639 75.1595 127.259 76.6036C122.731 75.5205 119.343 72.6626 118.235 69.0826C116.715 65.8636 117.475 61.9227 119.375 59.0647C120.135 57.6207 121.623 56.5678 123.143 55.8457C124.283 56.2068 126.151 56.5678 127.671 56.5678C129.191 56.5678 131.059 56.5678 132.579 55.8457C135.587 55.1237 134.099 51.1828 131.439 51.9048C130.299 52.2658 129.191 52.2658 127.671 52.2658C122.035 51.9048 117.507 47.2719 117.887 41.8869C118.267 36.171 123.143 31.869 128.811 32.23C132.959 32.591 136.347 34.7269 137.835 38.3069C136.695 38.6679 135.587 39.0289 134.827 39.3899C134.067 39.0289 132.959 38.3069 132.199 37.9459C129.571 36.5019 127.291 40.8039 130.331 41.8869C131.85 42.6089 132.959 44.3838 132.579 46.1889C132.199 49.0468 136.727 49.4078 137.107 46.5499C137.487 45.4668 137.487 44.4139 137.107 43.3309C137.487 42.9699 138.247 42.6089 138.975 42.6089C142.363 41.5259 146.131 42.2479 148.759 44.3838C152.527 48.3248 152.527 54.4017 148.379 57.9817C146.131 60.1176 149.519 63.3366 151.767 61.2007C152.527 60.4787 153.287 59.7566 153.635 58.7037C157.403 61.2007 159.271 64.7806 159.271 68.7216C158.891 75.1595 153.255 79.7924 146.479 79.7924C143.471 79.4314 143.471 83.7334 146.479 84.0944C148.727 84.0944 151.007 83.7334 152.875 83.0114C154.395 85.1474 154.743 87.3134 154.743 89.8103C154.363 95.8873 149.487 100.55 143.091 100.55C143.091 99.4957 142.731 98.4697 142.361 97.4167C142.351 97.3883 142.341 97.3598 142.331 97.3313C143.091 96.6093 143.851 95.5563 144.199 94.8343C145.339 92.3374 141.191 90.1713 140.051 93.0594C138.911 94.8343 137.423 95.5563 135.143 95.1953C132.515 95.1953 132.135 99.1363 134.764 99.4973C135.903 99.8583 137.012 99.8583 138.152 99.4973C138.468 101.242 138.468 102.686 138.088 104.461ZM115.512 74.0765C114.752 75.1595 113.992 76.2125 113.264 77.2955C110.636 83.3724 111.744 90.1713 116.652 94.8042C115.132 96.5792 114.404 99.1062 114.404 101.242C114.024 108.763 120.04 115.201 127.956 115.532C132.104 115.532 135.492 114.088 138.12 111.952C140.368 110.177 141.888 107.65 142.648 104.792C151.672 104.792 158.828 98.3541 159.208 89.7803C159.588 86.5613 158.448 83.7033 156.96 80.8454C160.728 77.9874 163.356 73.6854 163.736 69.0525C163.736 63.3366 160.728 57.9817 155.82 54.7627C158.068 46.5499 151.672 38.3069 142.648 37.5849C140.78 32.23 135.112 28.289 129.096 27.928C120.452 27.567 113.676 33.6439 113.296 41.5259C112.916 46.1889 114.815 50.4608 118.552 53.3187C117.412 54.4017 116.304 55.4547 115.544 56.8987C112.536 60.8397 112.156 65.8336 113.676 70.4966C113.992 71.5796 114.752 72.9935 115.512 74.0765ZM143.724 64.7806C146.732 64.4196 146.352 60.1176 143.344 60.4787C142.584 60.4787 142.204 60.4787 141.476 60.4787C138.468 60.4787 138.088 64.7806 141.096 64.7806C142.236 64.7806 142.964 64.7806 143.724 64.7806ZM83.8801 104.461C85.02 108.402 88.788 111.26 93.6642 110.899C98.9203 110.899 103.068 106.597 102.688 101.603C102.688 98.0232 100.44 94.8042 97.0522 93.3903C94.4241 92.3073 96.2923 88.3964 98.9203 89.4493C100.06 90.1713 101.168 90.5323 101.928 91.2243L102.308 91.5853C105.316 88.0053 106.076 83.0114 104.176 79.0704C103.797 78.3484 103.417 77.9874 103.037 77.2955C101.168 79.0704 98.5087 80.1534 95.8806 80.5145C95.8806 81.9585 95.5007 83.0114 95.1207 84.4554C93.9808 86.9524 89.4846 85.1774 90.5928 82.6805C91.7327 80.5445 90.9728 78.0175 89.073 76.6036C86.8249 74.8286 89.8329 71.2486 92.081 73.0236C93.2209 74.1066 93.9492 75.1595 94.7091 76.6036C98.857 75.5205 102.245 72.6626 103.733 69.0826C104.873 65.8636 104.493 61.9227 102.593 59.0647C101.453 57.6207 100.345 56.5678 98.8254 55.8457C98.795 55.853 98.7646 55.8602 98.7342 55.8674C97.246 56.221 95.7869 56.5678 94.2975 56.5678C92.4293 56.5678 90.9095 56.5678 89.0413 55.8457C86.4132 55.1237 87.5215 51.1828 90.5612 51.9048C91.701 52.2658 92.8093 52.2658 93.9492 52.2658C99.9652 51.9048 104.113 47.2719 104.113 41.8869C103.733 36.171 98.857 31.869 93.1892 32.23C89.0413 32.591 85.2733 34.7269 83.7852 38.3069H84.1651C85.305 38.6679 86.4132 39.0289 87.1732 39.3899C87.9331 39.0289 88.693 38.3069 89.8012 37.9459C92.4293 36.5019 94.3291 40.8039 91.6694 41.8869C89.8012 42.6089 89.0413 44.3838 89.0413 46.1889C89.4213 49.0468 84.8934 49.4078 84.5134 46.5499C84.5134 45.4668 84.5134 44.4139 84.8934 43.3309C84.1335 42.9699 83.3735 42.6089 82.6453 42.6089C79.6372 41.5259 75.8693 42.2479 73.2412 44.3838C69.0933 48.3248 69.0933 54.4017 73.2412 57.9817C75.4893 60.1176 72.4813 63.3366 70.2331 61.2007C69.4732 60.4787 68.7133 59.7566 67.985 58.7037C64.597 61.2007 62.7289 64.7806 62.7289 68.7216C63.1088 75.1595 68.745 79.7924 75.141 79.7924C78.149 79.4314 78.529 83.7334 75.521 84.0944C73.2728 84.0944 70.9931 83.7334 69.1249 83.0114C67.6051 85.1474 66.8768 87.3134 67.2568 89.8103C67.2568 95.8873 72.5129 100.55 78.909 100.55C78.909 99.4957 79.2692 98.4698 79.6389 97.4168C79.6489 97.3883 79.6589 97.3598 79.6689 97.3313C78.909 96.6093 78.149 95.5563 77.8007 94.8343C76.2809 92.3374 80.8088 90.1713 81.9487 93.0594C82.7086 94.8343 84.5767 95.5563 86.4766 95.1953C89.4846 95.1953 89.8646 99.1363 86.8565 99.4973C85.7166 99.8583 84.6084 99.8583 83.8485 99.4973C83.1202 101.242 83.1202 102.686 83.8801 104.461ZM106.076 74.0765C107.216 75.1595 107.944 76.2125 108.324 77.2955C111.332 83.3724 109.844 90.1713 105.316 94.8042C106.456 96.5792 107.185 99.1062 107.185 101.242C107.564 108.763 101.548 115.201 93.6325 115.532C89.8646 115.532 86.0966 114.088 83.4685 111.952C81.2204 110.177 79.7006 107.65 78.9406 104.792C70.2965 104.792 62.7605 98.3541 62.3806 89.7803C62.3806 86.5613 63.1405 83.7033 65.0087 80.8454C60.8607 77.9874 58.2327 73.6854 58.2327 69.0525C57.8527 63.3366 60.8607 57.9817 66.1485 54.7627C63.9004 46.5499 69.9165 38.3069 79.3206 37.5849C81.1887 32.23 86.4766 28.289 92.8726 27.928C101.137 27.567 108.293 33.6439 108.673 41.5259C109.053 46.1889 106.805 50.4608 103.037 53.3187C104.556 54.4017 105.665 55.4547 106.425 56.8987C109.053 60.8397 109.813 65.8336 107.944 70.4966C107.596 71.5796 107.216 72.9935 106.076 74.0765ZM77.8641 64.7806C74.856 64.4196 75.616 60.1176 78.624 60.4787C79.3839 60.4787 79.7639 60.4787 80.4921 60.4787C83.5002 60.4787 83.5002 64.7806 80.4921 64.7806C79.7322 64.7806 79.004 64.7806 77.8641 64.7806ZM35.3399 129.13C32.7118 130.574 30.0837 126.994 32.7118 125.55L45.5039 116.615C48.132 114.84 50.76 118.39 48.132 120.195L35.3399 129.13ZM189.257 125.58C191.505 127.024 188.877 130.574 186.628 129.16L173.456 120.225C171.208 118.45 173.836 114.87 176.464 116.645L189.257 125.58ZM204.328 56.5678C207.336 56.2068 208.096 60.5087 205.088 60.8697L189.288 63.3667C186.28 63.7277 185.52 59.4257 188.528 59.0647L204.328 56.5678ZM204.328 90.1713C207.336 90.8934 206.577 95.1652 203.568 94.4733L187.768 91.2544C184.76 90.8934 185.9 86.5914 188.908 87.3134L204.328 90.1713ZM188.497 21.5202C191.125 19.7452 193.753 23.2951 191.125 25.1001L177.953 33.313C175.325 35.0879 172.696 31.177 175.325 29.733L188.497 21.5202ZM16.9117 60.8397C13.9036 60.4787 14.6636 56.1767 17.6716 56.5377L33.4717 59.0346C36.4798 59.3956 35.7199 63.6976 32.7118 63.3366L16.9117 60.8397ZM18.3999 94.4733C15.3918 95.1953 14.6319 90.8934 17.26 90.1713L33.0601 87.3134C36.0682 86.5914 36.8281 90.8934 33.82 91.2544L18.3999 94.4733ZM30.812 25.1001C28.1839 23.3252 30.812 19.7452 33.0601 21.5202L46.6121 29.733C47.372 30.455 47.752 31.869 46.9921 32.591C46.2322 33.674 45.1239 34.035 43.984 33.313L30.812 25.1001Z" fill="#FF00B7"/>
<path fill-rule="evenodd" clip-rule="evenodd" d="M138.088 104.461C136.568 108.402 132.832 111.26 128.304 110.899C123.048 110.899 118.9 106.597 118.9 101.603C119.28 98.0232 121.528 94.8042 124.536 93.3903C127.544 92.3073 125.676 88.3964 122.668 89.4493C121.528 90.1713 120.8 90.5323 119.66 91.2243V91.5853C116.652 88.0053 115.512 83.0114 117.412 79.0704C117.792 78.3484 118.172 77.9874 118.552 77.2955C120.8 79.0704 123.46 80.1534 126.088 80.5145C126.088 81.9585 126.468 83.0114 126.848 84.4554C127.988 86.9524 132.104 85.1774 130.996 82.6805C130.236 80.5445 130.616 78.0175 132.515 76.6036C135.143 74.8286 132.135 71.2486 129.887 73.0236C128.747 74.1066 127.639 75.1595 127.259 76.6036C122.731 75.5205 119.343 72.6626 118.235 69.0826C116.715 65.8636 117.475 61.9227 119.375 59.0647C120.135 57.6207 121.623 56.5678 123.143 55.8457C124.283 56.2068 126.151 56.5678 127.671 56.5678C129.191 56.5678 131.059 56.5678 132.579 55.8457C135.587 55.1237 134.099 51.1828 131.439 51.9048C130.299 52.2658 129.191 52.2658 127.671 52.2658C122.035 51.9048 117.507 47.2719 117.887 41.8869C118.267 36.171 123.143 31.869 128.811 32.23C132.959 32.591 136.347 34.7269 137.835 38.3069C136.695 38.6679 135.587 39.0289 134.827 39.3899C134.067 39.0289 132.959 38.3069 132.199 37.9459C129.571 36.5019 127.291 40.8039 130.331 41.8869C131.85 42.6089 132.959 44.3838 132.579 46.1889C132.199 49.0468 136.727 49.4078 137.107 46.5499C137.487 45.4668 137.487 44.4139 137.107 43.3309C137.487 42.9699 138.247 42.6089 138.975 42.6089C142.363 41.5259 146.131 42.2479 148.759 44.3838C152.527 48.3248 152.527 54.4017 148.379 57.9817C146.131 60.1176 149.519 63.3366 151.767 61.2007C152.527 60.4787 153.287 59.7566 153.635 58.7037C157.403 61.2007 159.271 64.7806 159.271 68.7216C158.891 75.1595 153.255 79.7924 146.479 79.7924C143.471 79.4314 143.471 83.7334 146.479 84.0944C148.727 84.0944 151.007 83.7334 152.875 83.0114C154.395 85.1474 154.743 87.3134 154.743 89.8103C154.363 95.8873 149.487 100.55 143.091 100.55C143.091 99.4957 142.731 98.4697 142.361 97.4167L142.331 97.3313C143.091 96.6093 143.851 95.5563 144.199 94.8343C145.339 92.3374 141.191 90.1713 140.051 93.0594C138.911 94.8343 137.423 95.5563 135.143 95.1953C132.515 95.1953 132.135 99.1363 134.764 99.4973C135.903 99.8583 137.012 99.8583 138.152 99.4973C138.468 101.242 138.468 102.686 138.088 104.461ZM143.344 60.4787C146.352 60.1176 146.732 64.4196 143.724 64.7806H141.096C138.088 64.7806 138.468 60.4787 141.476 60.4787H143.344Z" fill="#FF00B7"/>
<path fill-rule="evenodd" clip-rule="evenodd" d="M83.8801 104.461C85.02 108.402 88.788 111.26 93.6642 110.899C98.9203 110.899 103.068 106.597 102.688 101.603C102.688 98.0232 100.44 94.8042 97.0522 93.3903C94.4241 92.3073 96.2923 88.3964 98.9203 89.4493C100.06 90.1713 101.168 90.5323 101.928 91.2243L102.308 91.5853C105.316 88.0053 106.076 83.0114 104.176 79.0704C103.797 78.3484 103.417 77.9874 103.037 77.2955C101.168 79.0704 98.5087 80.1534 95.8806 80.5145C95.8806 81.9585 95.5007 83.0114 95.1207 84.4554C93.9808 86.9524 89.4846 85.1774 90.5928 82.6805C91.7327 80.5445 90.9728 78.0175 89.073 76.6036C86.8249 74.8286 89.8329 71.2486 92.081 73.0236C93.2209 74.1066 93.9492 75.1595 94.7091 76.6036C98.857 75.5205 102.245 72.6626 103.733 69.0826C104.873 65.8636 104.493 61.9227 102.593 59.0647C101.453 57.6207 100.345 56.5678 98.8254 55.8457L98.7342 55.8674C97.246 56.221 95.7869 56.5678 94.2975 56.5678C92.4293 56.5678 90.9095 56.5678 89.0413 55.8457C86.4132 55.1237 87.5215 51.1828 90.5612 51.9048C91.701 52.2658 92.8093 52.2658 93.9492 52.2658C99.9652 51.9048 104.113 47.2719 104.113 41.8869C103.733 36.171 98.857 31.869 93.1892 32.23C89.0413 32.591 85.2733 34.7269 83.7852 38.3069H84.1651C85.305 38.6679 86.4132 39.0289 87.1732 39.3899C87.9331 39.0289 88.693 38.3069 89.8012 37.9459C92.4293 36.5019 94.3291 40.8039 91.6694 41.8869C89.8012 42.6089 89.0413 44.3838 89.0413 46.1889C89.4213 49.0468 84.8934 49.4078 84.5134 46.5499C84.5134 45.4668 84.5134 44.4139 84.8934 43.3309C84.1335 42.9699 83.3735 42.6089 82.6453 42.6089C79.6372 41.5259 75.8693 42.2479 73.2412 44.3838C69.0933 48.3248 69.0933 54.4017 73.2412 57.9817C75.4893 60.1176 72.4813 63.3366 70.2331 61.2007C69.4732 60.4787 68.7133 59.7566 67.985 58.7037C64.597 61.2007 62.7289 64.7806 62.7289 68.7216C63.1088 75.1595 68.745 79.7924 75.141 79.7924C78.149 79.4314 78.529 83.7334 75.521 84.0944C73.2728 84.0944 70.9931 83.7334 69.1249 83.0114C67.6051 85.1474 66.8768 87.3134 67.2568 89.8103C67.2568 95.8873 72.5129 100.55 78.909 100.55C78.909 99.4957 79.2692 98.4698 79.6389 97.4168L79.6689 97.3313C78.909 96.6093 78.149 95.5563 77.8007 94.8343C76.2809 92.3374 80.8088 90.1713 81.9487 93.0594C82.7086 94.8343 84.5767 95.5563 86.4766 95.1953C89.4846 95.1953 89.8646 99.1363 86.8565 99.4973C85.7166 99.8583 84.6084 99.8583 83.8485 99.4973C83.1202 101.242 83.1202 102.686 83.8801 104.461ZM78.624 60.4787C75.616 60.1176 74.856 64.4196 77.8641 64.7806H80.4921C83.5002 64.7806 83.5002 60.4787 80.4921 60.4787H78.624Z" fill="#FF00B7"/>
<path d="M92.556 179.911C92.9359 189.207 101.2 196.728 110.984 196.728C120.768 196.728 129.064 189.207 129.412 179.911H92.556Z" fill="#FF00B7"/>
</g>
<defs>
<filter id="filter0_d_72_1173" x="0.848482" y="0.509089" width="220.303" height="220.303" filterUnits="userSpaceOnUse" color-interpolation-filters="sRGB">
<feFlood flood-opacity="0" result="BackgroundImageFix"/>
<feColorMatrix in="SourceAlpha" type="matrix" values="0 0 0 0 0 0 0 0 0 0 0 0 0 0 0 0 0 0 127 0" result="hardAlpha"/>
<feOffset dy="5.66061"/>
<feGaussianBlur stdDeviation="7.07576"/>
<feComposite in2="hardAlpha" operator="out"/>
<feColorMatrix type="matrix" values="0 0 0 0 1 0 0 0 0 0 0 0 0 0 0.717647 0 0 0 1 0"/>
<feBlend mode="normal" in2="BackgroundImageFix" result="effect1_dropShadow_72_1173"/>
<feBlend mode="normal" in="SourceGraphic" in2="effect1_dropShadow_72_1173" result="shape"/>
</filter>
</defs>
</svg>
