<svg width="542" height="541" viewBox="0 0 542 541" fill="none" xmlns="http://www.w3.org/2000/svg">
<g filter="url(#filter0_d_72_1179)">
<path d="M332.174 464.763C331.161 496.211 304.057 521 270.958 521C237.859 521 210.755 496.211 208.728 464.763H200.707C175.629 464.763 161.528 436.124 179.598 418.073C159.502 408.527 157.56 382.775 175.545 370.421V359.911C173.518 331.272 157.476 311.296 140.419 290.277C117.368 262.6 93.2196 232.115 93.2196 176.842C93.2196 131.034 113.315 88.1947 145.401 58.5922C212.612 -6.22831 321.028 -7.191 390.266 53.859C408.335 69.1015 422.352 88.1947 432.4 108.17C447.429 139.618 451.482 176.842 444.474 211.177C436.453 245.513 418.383 268.376 401.327 290.358C384.271 311.296 368.228 331.352 366.202 359.992V371.464C367.215 372.426 368.228 373.389 369.242 374.352C383.258 387.669 379.289 409.65 362.233 418.234C379.289 436.364 366.286 464.924 341.124 464.924H332.174V464.763ZM221.816 464.763C222.829 489.552 244.867 509.608 270.958 509.608C297.049 509.608 319.171 489.552 320.1 464.763H221.816ZM199.694 420.881C178.585 421.844 178.585 453.291 200.707 453.291H341.209C362.318 453.291 363.247 421.844 341.209 420.881H199.694ZM192.685 365.607H264.963V330.309C260.91 329.346 256.941 326.458 253.902 324.613C249.849 319.88 246.893 314.104 246.893 308.408C246.893 301.749 249.933 296.936 253.902 292.203C257.955 288.352 263.95 285.544 270.958 285.544C276.953 285.544 283.032 288.432 287.001 292.203C291.982 296.936 294.009 301.749 294.009 308.408C294.009 314.104 291.982 319.88 287.001 324.613C284.974 326.538 281.006 329.346 276.953 330.309V365.607H349.23C350.243 365.607 352.27 365.607 354.212 366.57C355.225 333.197 362.233 318.917 391.364 282.656C408.42 262.6 426.489 239.737 432.484 206.364C438.479 175.879 435.524 143.469 422.436 115.791C413.402 95.7356 400.398 77.6854 383.258 63.3254C319.002 5.16341 217.679 6.1261 154.436 66.2134C124.292 94.8532 106.223 133.922 106.223 176.842C106.223 228.345 128.261 256.904 150.383 283.619C181.455 321.725 186.522 335.122 187.535 365.607C189.646 365.607 190.659 365.607 192.685 365.607ZM349.23 377.079H192.685C170.648 377.079 170.648 409.489 192.685 409.489H349.23C371.352 409.489 371.352 377.079 349.23 377.079ZM278.979 300.787C276.953 298.861 273.997 297.899 270.958 297.899C267.918 297.899 264.963 298.861 262.936 300.787C260.91 302.712 258.883 305.52 258.883 308.408C258.883 311.296 260.91 314.104 262.936 316.029C264.963 317.954 267.918 318.917 270.958 318.917C273.997 318.917 276.953 317.954 278.979 316.029C281.006 314.104 282.019 311.296 282.019 308.408C282.019 305.52 281.006 302.712 278.979 300.787ZM343.235 263.563C339.182 274.072 329.219 281.694 317.144 280.731C303.128 280.731 292.067 269.259 292.067 255.942C293.08 246.395 299.075 237.811 307.096 234.041C315.118 231.153 310.136 220.724 302.115 223.532C299.075 225.457 297.133 226.42 294.093 228.265V229.227C286.072 219.681 283.032 206.364 288.098 195.854C289.112 193.929 290.125 192.966 291.138 191.121C297.133 195.854 304.226 198.743 311.234 199.705C311.234 203.556 312.247 206.364 313.26 210.214C316.3 216.873 327.277 212.14 324.321 205.481C322.295 199.785 323.308 193.047 328.374 189.276C335.383 184.543 327.361 174.996 321.366 179.73C318.327 182.618 315.371 185.425 314.358 189.276C302.284 186.388 293.249 178.767 290.294 169.22C286.241 160.636 288.267 150.127 293.333 142.506C295.36 138.655 299.328 135.847 303.381 133.922C306.421 134.885 311.403 135.847 315.456 135.847C319.509 135.847 324.49 135.847 328.543 133.922C336.565 131.997 332.596 121.487 325.504 123.413C322.464 124.375 319.509 124.375 315.456 124.375C300.426 123.413 288.352 111.058 289.365 96.6983C290.378 81.4559 303.381 69.9839 318.495 70.9466C329.557 71.9093 338.591 77.6052 342.56 87.1517C339.52 88.1144 336.565 89.0771 334.538 90.0398C332.512 89.0771 329.557 87.1517 327.53 86.1891C320.522 82.3383 314.442 93.8103 322.548 96.6983C326.601 98.6237 329.557 103.357 328.543 108.17C327.53 115.792 339.604 116.754 340.618 109.133C341.631 106.245 341.631 103.437 340.618 100.549C341.631 99.5864 343.657 98.6237 345.599 98.6237C354.634 95.7356 364.682 97.661 371.69 103.357C381.738 113.866 381.738 130.071 370.677 139.618C364.682 145.314 373.717 153.898 379.712 148.202C381.738 146.276 383.765 144.351 384.693 141.543C394.741 148.202 399.723 157.748 399.723 168.258C398.71 185.425 383.68 197.78 365.611 197.78C357.589 196.817 357.589 208.289 365.611 209.252C371.606 209.252 377.685 208.289 382.667 206.364C386.72 212.06 387.649 217.836 387.649 224.494C386.635 240.699 373.632 253.134 356.576 253.134C356.576 250.322 355.616 247.586 354.63 244.778C354.603 244.702 354.576 244.626 354.55 244.55C356.576 242.625 358.603 239.817 359.531 237.892C362.571 231.233 351.51 225.457 348.47 233.158C345.431 237.892 341.462 239.817 335.383 238.854C328.374 238.854 327.361 249.363 334.369 250.326C337.409 251.289 340.364 251.289 343.404 250.326C344.248 254.979 344.248 258.83 343.235 263.563ZM283.032 182.537C281.006 185.425 278.979 188.233 277.037 191.121C270.029 207.326 272.984 225.457 286.072 237.811C282.019 242.544 280.077 249.283 280.077 254.979C279.064 275.035 295.107 292.203 316.216 293.085C327.277 293.085 336.311 289.235 343.32 283.539C349.315 278.806 353.368 272.067 355.394 264.445C379.458 264.445 398.541 247.278 399.554 224.414C400.567 215.83 397.528 208.209 393.559 200.588C403.607 192.966 410.615 181.494 411.629 169.14C411.629 153.898 403.607 139.618 390.519 131.034C396.514 109.133 379.458 87.1517 355.394 85.2264C350.412 70.9466 335.298 60.4373 319.255 59.4747C296.204 58.512 278.135 74.7171 277.122 95.7356C276.108 108.17 281.175 119.562 291.138 127.183C288.098 130.071 285.143 132.879 283.117 136.73C275.095 147.239 274.082 160.556 278.135 172.991C278.979 175.879 281.006 179.649 283.032 182.537ZM358.265 157.748C366.286 156.786 365.273 145.314 357.252 146.276C355.225 146.276 354.212 146.276 352.27 146.276C344.248 146.276 343.235 157.748 351.257 157.748C354.296 157.748 356.238 157.748 358.265 157.748ZM198.68 263.563C201.72 274.072 211.768 281.694 224.771 280.731C238.788 280.731 249.849 269.259 248.836 255.942C248.836 246.395 242.841 237.811 233.806 234.041C226.798 231.153 231.779 220.724 238.788 223.532C241.827 225.457 244.783 226.42 246.809 228.265L247.822 229.227C255.844 219.681 257.87 206.364 252.804 195.854C251.791 193.929 250.778 192.966 249.764 191.121C244.783 195.854 237.69 198.743 230.682 199.705C230.682 203.556 229.668 206.364 228.655 210.214C225.616 216.873 213.626 212.14 216.581 205.481C219.621 199.785 217.594 193.047 212.528 189.276C206.533 184.543 214.554 174.996 220.549 179.73C223.589 182.618 225.531 185.425 227.558 189.276C238.619 186.388 247.653 178.767 251.622 169.22C254.662 160.636 253.648 150.127 248.582 142.506C245.542 138.655 242.587 135.847 238.534 133.922C238.453 133.941 238.372 133.96 238.291 133.98C234.323 134.923 230.432 135.847 226.46 135.847C221.478 135.847 217.425 135.847 212.443 133.922C205.435 131.997 208.391 121.487 216.496 123.413C219.536 124.375 222.491 124.375 225.531 124.375C241.574 123.413 252.635 111.058 252.635 96.6983C251.622 81.4559 238.619 69.9839 223.505 70.9466C212.443 71.9093 202.396 77.6052 198.427 87.1517H199.44C202.48 88.1144 205.435 89.0771 207.462 90.0398C209.488 89.0771 211.515 87.1517 214.47 86.1891C221.478 82.3383 226.544 93.8103 219.452 96.6983C214.47 98.6237 212.443 103.357 212.443 108.17C213.457 115.792 201.382 116.754 200.369 109.133C200.369 106.245 200.369 103.437 201.382 100.549C199.356 99.5864 197.329 98.6237 195.387 98.6237C187.366 95.7356 177.318 97.661 170.31 103.357C159.249 113.866 159.249 130.071 170.31 139.618C176.305 145.314 168.283 153.898 162.288 148.202C160.262 146.276 158.235 144.351 156.293 141.543C147.259 148.202 142.277 157.748 142.277 168.258C143.29 185.425 158.32 197.78 175.376 197.78C183.397 196.817 184.411 208.289 176.389 209.252C170.394 209.252 164.315 208.289 159.333 206.364C155.28 212.06 153.338 217.836 154.351 224.494C154.351 240.699 168.368 253.134 185.424 253.134C185.424 250.322 186.384 247.586 187.37 244.778C187.397 244.702 187.424 244.626 187.45 244.55C185.424 242.625 183.397 239.817 182.469 237.892C178.416 231.233 190.49 225.457 193.53 233.158C195.556 237.892 200.538 239.817 205.604 238.854C213.626 238.854 214.639 249.363 206.617 250.326C203.578 251.289 200.622 251.289 198.596 250.326C196.654 254.979 196.654 258.83 198.68 263.563ZM257.87 182.537C260.91 185.425 262.852 188.233 263.865 191.121C271.887 207.326 267.918 225.457 255.844 237.811C258.883 242.544 260.825 249.283 260.825 254.979C261.839 275.035 245.796 292.203 224.687 293.085C214.639 293.085 204.591 289.235 197.583 283.539C191.588 278.806 187.535 272.067 185.508 264.445C162.457 264.445 142.361 247.278 141.348 224.414C141.348 215.83 143.375 208.209 148.356 200.588C137.295 192.966 130.287 181.494 130.287 169.14C129.274 153.898 137.295 139.618 151.396 131.034C145.401 109.133 161.444 87.1517 186.522 85.2264C191.503 70.9466 205.604 60.4373 222.66 59.4747C244.698 58.512 263.781 74.7171 264.794 95.7356C265.807 108.17 259.812 119.562 249.764 127.183C253.817 130.071 256.772 132.879 258.799 136.73C265.807 147.239 267.834 160.556 262.852 172.991C261.923 175.879 260.91 179.649 257.87 182.537ZM182.638 157.748C174.616 156.786 176.643 145.314 184.664 146.276C186.69 146.276 187.704 146.276 189.646 146.276C197.667 146.276 197.667 157.748 189.646 157.748C187.619 157.748 185.677 157.748 182.638 157.748ZM69.2397 329.346C62.2315 333.197 55.2233 323.65 62.2315 319.8L96.3437 295.973C103.352 291.24 110.36 300.706 103.352 305.52L69.2397 329.346ZM479.684 319.88C485.679 323.731 478.671 333.197 472.676 329.426L437.55 305.6C431.555 300.867 438.564 291.32 445.572 296.053L479.684 319.88ZM519.876 135.847C527.897 134.885 529.924 146.357 521.902 147.319L479.769 153.978C471.747 154.941 469.721 143.469 477.742 142.506L519.876 135.847ZM519.876 225.457C527.897 227.382 525.871 238.774 517.849 236.929L475.716 228.345C467.694 227.382 470.734 215.91 478.755 217.836L519.876 225.457ZM477.658 42.3871C484.666 37.6539 491.674 47.1203 484.666 51.9337L449.54 73.8347C442.532 78.5678 435.524 68.1388 442.532 64.2881L477.658 42.3871ZM20.0978 147.239C12.0764 146.276 14.1029 134.804 22.1243 135.767L64.258 142.426C72.2794 143.388 70.2529 154.86 62.2315 153.898L20.0978 147.239ZM24.0663 236.929C16.0449 238.854 14.0184 227.382 21.0266 225.457L63.1603 217.836C71.1817 215.91 73.2082 227.382 65.1868 228.345L24.0663 236.929ZM57.1653 51.9337C50.1571 47.2005 57.1653 37.6539 63.1603 42.3871L99.299 64.2881C101.325 66.2134 102.339 69.9839 100.312 71.9093C98.2858 74.7973 95.3305 75.76 92.2908 73.8347L57.1653 51.9337Z" fill="#FF00B7"/>
<path fill-rule="evenodd" clip-rule="evenodd" d="M343.235 263.563C339.182 274.072 329.219 281.694 317.144 280.731C303.128 280.731 292.067 269.259 292.067 255.942C293.08 246.395 299.075 237.811 307.096 234.041C315.118 231.153 310.136 220.724 302.115 223.532C299.075 225.457 297.133 226.42 294.093 228.265V229.227C286.072 219.681 283.032 206.364 288.098 195.854C289.112 193.929 290.125 192.966 291.138 191.121C297.133 195.854 304.226 198.743 311.234 199.705C311.234 203.556 312.247 206.364 313.26 210.214C316.3 216.873 327.277 212.14 324.321 205.481C322.295 199.785 323.308 193.047 328.374 189.276C335.383 184.543 327.361 174.996 321.366 179.73C318.327 182.618 315.371 185.425 314.358 189.276C302.284 186.388 293.249 178.767 290.294 169.22C286.241 160.636 288.267 150.127 293.333 142.506C295.36 138.655 299.328 135.847 303.381 133.922C306.421 134.885 311.403 135.847 315.456 135.847C319.509 135.847 324.49 135.847 328.543 133.922C336.565 131.997 332.596 121.487 325.504 123.413C322.464 124.375 319.509 124.375 315.456 124.375C300.426 123.413 288.352 111.058 289.365 96.6983C290.378 81.4559 303.381 69.9839 318.495 70.9466C329.557 71.9093 338.591 77.6052 342.56 87.1517C339.52 88.1144 336.565 89.0771 334.538 90.0398C332.512 89.0771 329.557 87.1517 327.53 86.1891C320.522 82.3383 314.442 93.8103 322.548 96.6983C326.601 98.6237 329.557 103.357 328.543 108.17C327.53 115.792 339.604 116.754 340.618 109.133C341.631 106.245 341.631 103.437 340.618 100.549C341.631 99.5864 343.657 98.6237 345.599 98.6237C354.634 95.7356 364.682 97.661 371.69 103.357C381.738 113.866 381.738 130.071 370.677 139.618C364.682 145.314 373.717 153.898 379.712 148.202C381.738 146.276 383.765 144.351 384.693 141.543C394.741 148.202 399.723 157.748 399.723 168.258C398.71 185.425 383.68 197.78 365.611 197.78C357.589 196.817 357.589 208.289 365.611 209.252C371.606 209.252 377.685 208.289 382.667 206.364C386.72 212.06 387.649 217.836 387.649 224.494C386.635 240.699 373.632 253.134 356.576 253.134C356.576 250.322 355.616 247.586 354.63 244.778L354.55 244.55C356.576 242.625 358.603 239.817 359.531 237.892C362.571 231.233 351.51 225.457 348.47 233.158C345.431 237.892 341.462 239.817 335.383 238.854C328.374 238.854 327.361 249.363 334.369 250.326C337.409 251.289 340.364 251.289 343.404 250.326C344.248 254.979 344.248 258.83 343.235 263.563ZM357.252 146.276C365.273 145.314 366.286 156.786 358.265 157.748H351.257C343.235 157.748 344.248 146.276 352.27 146.276H357.252Z" fill="#FF00B7"/>
<path fill-rule="evenodd" clip-rule="evenodd" d="M198.68 263.563C201.72 274.072 211.768 281.694 224.771 280.731C238.788 280.731 249.849 269.259 248.836 255.942C248.836 246.395 242.841 237.811 233.806 234.041C226.798 231.153 231.779 220.724 238.788 223.532C241.827 225.457 244.783 226.42 246.809 228.265L247.822 229.227C255.844 219.681 257.87 206.364 252.804 195.854C251.791 193.929 250.778 192.966 249.764 191.121C244.783 195.854 237.69 198.743 230.682 199.705C230.682 203.556 229.668 206.364 228.655 210.214C225.616 216.873 213.626 212.14 216.581 205.481C219.621 199.785 217.594 193.047 212.528 189.276C206.533 184.543 214.554 174.996 220.549 179.73C223.589 182.618 225.531 185.425 227.558 189.276C238.619 186.388 247.653 178.767 251.622 169.22C254.662 160.636 253.648 150.127 248.582 142.506C245.542 138.655 242.587 135.847 238.534 133.922L238.291 133.98C234.323 134.923 230.432 135.847 226.46 135.847C221.478 135.847 217.425 135.847 212.443 133.922C205.435 131.997 208.391 121.487 216.496 123.413C219.536 124.375 222.491 124.375 225.531 124.375C241.574 123.413 252.635 111.058 252.635 96.6983C251.622 81.4559 238.619 69.9839 223.505 70.9466C212.443 71.9093 202.396 77.6052 198.427 87.1517H199.44C202.48 88.1144 205.435 89.0771 207.462 90.0398C209.488 89.0771 211.515 87.1517 214.47 86.1891C221.478 82.3383 226.544 93.8103 219.452 96.6983C214.47 98.6237 212.443 103.357 212.443 108.17C213.457 115.792 201.382 116.754 200.369 109.133C200.369 106.245 200.369 103.437 201.382 100.549C199.356 99.5864 197.329 98.6237 195.387 98.6237C187.366 95.7356 177.318 97.661 170.31 103.357C159.249 113.866 159.249 130.071 170.31 139.618C176.305 145.314 168.283 153.898 162.288 148.202C160.262 146.276 158.235 144.351 156.293 141.543C147.259 148.202 142.277 157.748 142.277 168.258C143.29 185.425 158.32 197.78 175.376 197.78C183.397 196.817 184.411 208.289 176.389 209.252C170.394 209.252 164.315 208.289 159.333 206.364C155.28 212.06 153.338 217.836 154.351 224.494C154.351 240.699 168.368 253.134 185.424 253.134C185.424 250.322 186.384 247.586 187.37 244.778L187.45 244.55C185.424 242.625 183.397 239.817 182.469 237.892C178.416 231.233 190.49 225.457 193.53 233.158C195.556 237.892 200.538 239.817 205.604 238.854C213.626 238.854 214.639 249.363 206.617 250.326C203.578 251.289 200.622 251.289 198.596 250.326C196.654 254.979 196.654 258.83 198.68 263.563ZM184.664 146.276C176.643 145.314 174.616 156.786 182.638 157.748H189.646C197.667 157.748 197.667 146.276 189.646 146.276H184.664Z" fill="#FF00B7"/>
<path d="M221.816 464.763C222.829 489.552 244.867 509.608 270.958 509.608C297.049 509.608 319.171 489.552 320.1 464.763H221.816Z" fill="#FF00B7"/>
</g>
<defs>
<filter id="filter0_d_72_1179" x="0.848482" y="0.509089" width="540.303" height="540.303" filterUnits="userSpaceOnUse" color-interpolation-filters="sRGB">
<feFlood flood-opacity="0" result="BackgroundImageFix"/>
<feColorMatrix in="SourceAlpha" type="matrix" values="0 0 0 0 0 0 0 0 0 0 0 0 0 0 0 0 0 0 127 0" result="hardAlpha"/>
<feOffset dy="5.66061"/>
<feGaussianBlur stdDeviation="7.07576"/>
<feComposite in2="hardAlpha" operator="out"/>
<feColorMatrix type="matrix" values="0 0 0 0 1 0 0 0 0 0 0 0 0 0 0.717647 0 0 0 1 0"/>
<feBlend mode="normal" in2="BackgroundImageFix" result="effect1_dropShadow_72_1179"/>
<feBlend mode="normal" in="SourceGraphic" in2="effect1_dropShadow_72_1179" result="shape"/>
</filter>
</defs>
</svg>
