<svg width="46" height="45" viewBox="0 0 46 45" fill="none" xmlns="http://www.w3.org/2000/svg">
<g filter="url(#filter0_d_72_1167)">
<path d="M24.9117 23.2426C24.88 24.2253 24.033 25 22.9987 25C21.9643 25 21.1173 24.2253 21.054 23.2426H20.8033C20.0197 23.2426 19.579 22.3476 20.1437 21.7835C19.5157 21.4852 19.455 20.6805 20.017 20.2944V19.966C19.9537 19.071 19.4524 18.4467 18.9194 17.7899C18.199 16.925 17.4444 15.9724 17.4444 14.245C17.4444 12.8136 18.0724 11.4748 19.075 10.5498C21.1754 8.52412 24.5634 8.49403 26.7271 10.4018C27.2917 10.8782 27.7297 11.4748 28.0437 12.0991C28.5134 13.0818 28.6401 14.245 28.4211 15.318C28.1704 16.391 27.6057 17.1055 27.0727 17.7924C26.5397 18.4467 26.0384 19.0735 25.9751 19.9685V20.327C26.0067 20.3571 26.0384 20.3872 26.07 20.4172C26.5081 20.8334 26.384 21.5203 25.851 21.7886C26.384 22.3551 25.9777 23.2476 25.1914 23.2476H24.9117V23.2426ZM21.463 23.2426C21.4947 24.0173 22.1833 24.644 22.9987 24.644C23.814 24.644 24.5053 24.0173 24.5344 23.2426H21.463ZM20.7717 21.8713C20.112 21.9014 20.112 22.8841 20.8033 22.8841H25.194C25.8537 22.8841 25.8827 21.9014 25.194 21.8713H20.7717ZM20.5527 20.144H22.8113V19.0409C22.6847 19.0108 22.5607 18.9206 22.4657 18.8629C22.339 18.715 22.2467 18.5345 22.2467 18.3565C22.2467 18.1484 22.3417 17.998 22.4657 17.8501C22.5923 17.7298 22.7797 17.642 22.9987 17.642C23.186 17.642 23.376 17.7323 23.5 17.8501C23.6557 17.998 23.719 18.1484 23.719 18.3565C23.719 18.5345 23.6557 18.715 23.5 18.8629C23.4367 18.9231 23.3127 19.0108 23.186 19.0409V20.144H25.4447C25.4764 20.144 25.5397 20.144 25.6004 20.1741C25.632 19.1312 25.851 18.6849 26.7614 17.5518C27.2944 16.925 27.859 16.2105 28.0464 15.1676C28.2337 14.215 28.1414 13.2021 27.7324 12.3372C27.4501 11.7105 27.0437 11.1464 26.5081 10.6977C24.5001 8.88011 21.3337 8.91019 19.3574 10.7879C18.4154 11.6829 17.8507 12.9038 17.8507 14.245C17.8507 15.8545 18.5394 16.747 19.2307 17.5818C20.2017 18.7727 20.36 19.1913 20.3917 20.144C20.4577 20.144 20.4893 20.144 20.5527 20.144ZM25.4447 20.5025H20.5527C19.864 20.5025 19.864 21.5153 20.5527 21.5153H25.4447C26.136 21.5153 26.136 20.5025 25.4447 20.5025ZM23.2494 18.1183C23.186 18.0582 23.0937 18.0281 22.9987 18.0281C22.9037 18.0281 22.8113 18.0582 22.748 18.1183C22.6847 18.1785 22.6214 18.2662 22.6214 18.3565C22.6214 18.4467 22.6847 18.5345 22.748 18.5947C22.8113 18.6548 22.9037 18.6849 22.9987 18.6849C23.0937 18.6849 23.186 18.6548 23.2494 18.5947C23.3127 18.5345 23.3443 18.4467 23.3443 18.3565C23.3443 18.2662 23.3127 18.1785 23.2494 18.1183ZM25.2573 16.9551C25.1307 17.2835 24.8193 17.5217 24.442 17.4916C24.004 17.4916 23.6583 17.1331 23.6583 16.7169C23.69 16.4186 23.8773 16.1504 24.128 16.0325C24.3787 15.9423 24.223 15.6164 23.9723 15.7041C23.8773 15.7643 23.8167 15.7944 23.7217 15.852V15.8821C23.471 15.5838 23.376 15.1676 23.5343 14.8392C23.566 14.779 23.5976 14.749 23.6293 14.6913C23.8167 14.8392 24.0383 14.9295 24.2573 14.9595C24.2573 15.0799 24.289 15.1676 24.3206 15.288C24.4156 15.496 24.7586 15.3481 24.6663 15.14C24.603 14.962 24.6346 14.7515 24.793 14.6336C25.012 14.4857 24.7613 14.1874 24.5739 14.3353C24.479 14.4256 24.3866 14.5133 24.3549 14.6336C23.9776 14.5434 23.6953 14.3052 23.6029 14.0069C23.4763 13.7386 23.5396 13.4102 23.6979 13.1721C23.7612 13.0517 23.8853 12.964 24.0119 12.9038C24.1069 12.9339 24.2626 12.964 24.3892 12.964C24.5159 12.964 24.6716 12.964 24.7982 12.9038C25.0489 12.8436 24.9249 12.5152 24.7032 12.5754C24.6082 12.6055 24.5159 12.6055 24.3892 12.6055C23.9196 12.5754 23.5422 12.1893 23.5739 11.7406C23.6056 11.2642 24.0119 10.9057 24.4842 10.9358C24.8299 10.9659 25.1122 11.1439 25.2362 11.4422C25.1412 11.4723 25.0489 11.5024 24.9856 11.5325C24.9222 11.5024 24.8299 11.4422 24.7666 11.4122C24.5476 11.2918 24.3576 11.6503 24.6109 11.7406C24.7375 11.8007 24.8299 11.9487 24.7982 12.0991C24.7666 12.3372 25.1439 12.3673 25.1756 12.1292C25.2072 12.0389 25.2072 11.9512 25.1756 11.8609C25.2072 11.8308 25.2705 11.8007 25.3312 11.8007C25.6136 11.7105 25.9276 11.7707 26.1466 11.9487C26.4606 12.2771 26.4606 12.7835 26.1149 13.0818C25.9276 13.2598 26.2099 13.5281 26.3972 13.3501C26.4606 13.2899 26.5239 13.2297 26.5529 13.142C26.8669 13.3501 27.0226 13.6484 27.0226 13.9768C26.9909 14.5133 26.5213 14.8994 25.9566 14.8994C25.7059 14.8693 25.7059 15.2278 25.9566 15.2579C26.1439 15.2579 26.3339 15.2278 26.4896 15.1676C26.6162 15.3456 26.6453 15.5261 26.6453 15.7342C26.6136 16.2406 26.2073 16.6292 25.6743 16.6292C25.6743 16.5413 25.6442 16.4558 25.6134 16.3681C25.6126 16.3657 25.6118 16.3633 25.6109 16.3609C25.6743 16.3008 25.7376 16.213 25.7666 16.1529C25.8616 15.9448 25.5159 15.7643 25.4209 16.0049C25.326 16.1529 25.2019 16.213 25.012 16.1829C24.793 16.1829 24.7613 16.5114 24.9803 16.5414C25.0753 16.5715 25.1676 16.5715 25.2626 16.5414C25.289 16.6868 25.289 16.8072 25.2573 16.9551ZM23.376 14.423C23.3127 14.5133 23.2494 14.601 23.1887 14.6913C22.9697 15.1977 23.062 15.7643 23.471 16.1504C23.3443 16.2983 23.2837 16.5089 23.2837 16.6868C23.252 17.3136 23.7533 17.8501 24.413 17.8777C24.7586 17.8777 25.041 17.7573 25.26 17.5793C25.4473 17.4314 25.574 17.2208 25.6373 16.9827C26.3893 16.9827 26.9857 16.4462 27.0173 15.7317C27.049 15.4634 26.954 15.2253 26.83 14.9871C27.144 14.749 27.363 14.3905 27.3946 14.0044C27.3946 13.5281 27.144 13.0818 26.735 12.8136C26.9223 12.1292 26.3893 11.4422 25.6373 11.3821C25.4816 10.9358 25.0093 10.6074 24.508 10.5773C23.7876 10.5472 23.223 11.0537 23.1913 11.7105C23.1596 12.0991 23.318 12.4551 23.6293 12.6932C23.5343 12.7835 23.442 12.8712 23.3786 12.9916C23.128 13.32 23.0963 13.7361 23.223 14.1247C23.2493 14.215 23.3127 14.3328 23.376 14.423ZM25.727 13.6484C25.9777 13.6183 25.946 13.2598 25.6954 13.2899C25.632 13.2899 25.6004 13.2899 25.5397 13.2899C25.289 13.2899 25.2573 13.6484 25.508 13.6484C25.603 13.6484 25.6637 13.6484 25.727 13.6484ZM20.74 16.9551C20.835 17.2835 21.149 17.5217 21.5553 17.4916C21.9934 17.4916 22.339 17.1331 22.3074 16.7169C22.3074 16.4186 22.12 16.1504 21.8377 16.0325C21.6187 15.9423 21.7744 15.6164 21.9934 15.7041C22.0884 15.7643 22.1807 15.7944 22.244 15.852L22.2757 15.8821C22.5264 15.5838 22.5897 15.1676 22.4314 14.8392C22.3997 14.779 22.368 14.749 22.3364 14.6913C22.1807 14.8392 21.9591 14.9295 21.7401 14.9595C21.7401 15.0799 21.7084 15.1676 21.6767 15.288C21.5817 15.496 21.207 15.3481 21.2994 15.14C21.3944 14.962 21.3311 14.7515 21.1727 14.6336C20.9854 14.4857 21.2361 14.1874 21.4234 14.3353C21.5184 14.4256 21.5791 14.5133 21.6424 14.6336C21.9881 14.5434 22.2704 14.3052 22.3944 14.0069C22.4894 13.7386 22.4578 13.4102 22.2994 13.1721C22.2045 13.0517 22.1121 12.964 21.9854 12.9038C21.9829 12.9044 21.9804 12.905 21.9779 12.9056C21.8538 12.9351 21.7322 12.964 21.6081 12.964C21.4524 12.964 21.3258 12.964 21.1701 12.9038C20.9511 12.8436 21.0435 12.5152 21.2968 12.5754C21.3918 12.6055 21.4841 12.6055 21.5791 12.6055C22.0804 12.5754 22.4261 12.1893 22.4261 11.7406C22.3944 11.2642 21.9881 10.9057 21.5158 10.9358C21.1701 10.9659 20.8561 11.1439 20.7321 11.4422H20.7638C20.8588 11.4723 20.9511 11.5024 21.0144 11.5325C21.0778 11.5024 21.1411 11.4422 21.2334 11.4122C21.4524 11.2918 21.6108 11.6503 21.3891 11.7406C21.2334 11.8007 21.1701 11.9487 21.1701 12.0991C21.2018 12.3372 20.8244 12.3673 20.7928 12.1292C20.7928 12.0389 20.7928 11.9512 20.8244 11.8609C20.7611 11.8308 20.6978 11.8007 20.6371 11.8007C20.3864 11.7105 20.0724 11.7707 19.8534 11.9487C19.5078 12.2771 19.5078 12.7835 19.8534 13.0818C20.0408 13.2598 19.7901 13.5281 19.6028 13.3501C19.5394 13.2899 19.4761 13.2297 19.4154 13.142C19.1331 13.3501 18.9774 13.6484 18.9774 13.9768C19.0091 14.5133 19.4787 14.8994 20.0118 14.8994C20.2624 14.8693 20.2941 15.2278 20.0434 15.2579C19.8561 15.2579 19.6661 15.2278 19.5104 15.1676C19.3838 15.3456 19.3231 15.5261 19.3547 15.7342C19.3547 16.2406 19.7927 16.6292 20.3257 16.6292C20.3257 16.5413 20.3558 16.4558 20.3866 16.3681C20.3874 16.3657 20.3882 16.3633 20.3891 16.3609C20.3257 16.3008 20.2624 16.213 20.2334 16.1529C20.1067 15.9448 20.4841 15.7643 20.5791 16.0049C20.6424 16.1529 20.7981 16.213 20.9564 16.1829C21.207 16.1829 21.2387 16.5114 20.988 16.5414C20.8931 16.5715 20.8007 16.5715 20.7374 16.5414C20.6767 16.6868 20.6767 16.8072 20.74 16.9551ZM22.5897 14.423C22.6847 14.5133 22.7454 14.601 22.777 14.6913C23.0277 15.1977 22.9037 15.7643 22.5264 16.1504C22.6214 16.2983 22.682 16.5089 22.682 16.6868C22.7137 17.3136 22.2124 17.8501 21.5527 17.8777C21.2387 17.8777 20.9247 17.7573 20.7057 17.5793C20.5184 17.4314 20.3917 17.2208 20.3284 16.9827C19.608 16.9827 18.98 16.4462 18.9484 15.7317C18.9484 15.4634 19.0117 15.2253 19.1674 14.9871C18.8217 14.749 18.6027 14.3905 18.6027 14.0044C18.5711 13.5281 18.8217 13.0818 19.2624 12.8136C19.075 12.1292 19.5764 11.4422 20.36 11.3821C20.5157 10.9358 20.9564 10.6074 21.4894 10.5773C22.1781 10.5472 22.7744 11.0537 22.8061 11.7105C22.8377 12.0991 22.6504 12.4551 22.3364 12.6932C22.463 12.7835 22.5554 12.8712 22.6187 12.9916C22.8377 13.32 22.9011 13.7361 22.7454 14.1247C22.7163 14.215 22.6847 14.3328 22.5897 14.423ZM20.2387 13.6484C19.988 13.6183 20.0513 13.2598 20.302 13.2899C20.3653 13.2899 20.397 13.2899 20.4577 13.2899C20.7083 13.2899 20.7083 13.6484 20.4577 13.6484C20.3944 13.6484 20.3337 13.6484 20.2387 13.6484ZM16.695 19.0108C16.476 19.1312 16.257 18.8328 16.476 18.7125L17.542 17.9679C17.761 17.82 17.98 18.1158 17.761 18.2662L16.695 19.0108ZM29.5214 18.715C29.7087 18.8353 29.4897 19.1312 29.3024 19.0133L28.2047 18.2688C28.0174 18.1208 28.2364 17.8225 28.4554 17.9704L29.5214 18.715ZM30.7774 12.964C31.028 12.9339 31.0914 13.2924 30.8407 13.3225L29.524 13.5306C29.2733 13.5606 29.21 13.2021 29.4607 13.1721L30.7774 12.964ZM30.7774 15.7643C31.028 15.8244 30.9647 16.1804 30.714 16.1228L29.3974 15.8545C29.1467 15.8244 29.2417 15.4659 29.4924 15.5261L30.7774 15.7643ZM29.4581 10.0433C29.6771 9.89543 29.8961 10.1913 29.6771 10.3417L28.5794 11.0261C28.3604 11.174 28.1414 10.8481 28.3604 10.7278L29.4581 10.0433ZM15.1593 13.32C14.9086 13.2899 14.972 12.9314 15.2226 12.9615L16.5393 13.1696C16.79 13.1996 16.7267 13.5581 16.476 13.5281L15.1593 13.32ZM15.2833 16.1228C15.0327 16.1829 14.9693 15.8244 15.1883 15.7643L16.505 15.5261C16.7557 15.4659 16.819 15.8244 16.5683 15.8545L15.2833 16.1228ZM16.3177 10.3417C16.0987 10.1938 16.3177 9.89543 16.505 10.0433L17.6343 10.7278C17.6977 10.7879 17.7293 10.9057 17.666 10.9659C17.6027 11.0562 17.5103 11.0863 17.4153 11.0261L16.3177 10.3417Z" fill="#FF00B7"/>
<path fill-rule="evenodd" clip-rule="evenodd" d="M25.2573 16.9551C25.1307 17.2835 24.8193 17.5217 24.442 17.4916C24.004 17.4916 23.6583 17.1331 23.6583 16.7169C23.69 16.4186 23.8773 16.1504 24.128 16.0325C24.3787 15.9423 24.223 15.6164 23.9723 15.7041C23.8773 15.7643 23.8167 15.7944 23.7217 15.852V15.8821C23.471 15.5838 23.376 15.1676 23.5343 14.8392C23.566 14.779 23.5976 14.749 23.6293 14.6913C23.8167 14.8392 24.0383 14.9295 24.2573 14.9595C24.2573 15.0799 24.289 15.1676 24.3206 15.288C24.4156 15.496 24.7586 15.3481 24.6663 15.14C24.603 14.962 24.6346 14.7515 24.793 14.6336C25.012 14.4857 24.7613 14.1874 24.5739 14.3353C24.479 14.4256 24.3866 14.5133 24.3549 14.6336C23.9776 14.5434 23.6953 14.3052 23.6029 14.0069C23.4763 13.7386 23.5396 13.4102 23.6979 13.1721C23.7612 13.0517 23.8853 12.964 24.0119 12.9038C24.1069 12.9339 24.2626 12.964 24.3892 12.964C24.5159 12.964 24.6716 12.964 24.7982 12.9038C25.0489 12.8436 24.9249 12.5152 24.7032 12.5754C24.6082 12.6055 24.5159 12.6055 24.3892 12.6055C23.9196 12.5754 23.5422 12.1893 23.5739 11.7406C23.6056 11.2642 24.0119 10.9057 24.4842 10.9358C24.8299 10.9659 25.1122 11.1439 25.2362 11.4422C25.1412 11.4723 25.0489 11.5024 24.9856 11.5325C24.9222 11.5024 24.8299 11.4422 24.7666 11.4122C24.5476 11.2918 24.3576 11.6503 24.6109 11.7406C24.7375 11.8007 24.8299 11.9487 24.7982 12.0991C24.7666 12.3372 25.1439 12.3673 25.1756 12.1292C25.2072 12.0389 25.2072 11.9512 25.1756 11.8609C25.2072 11.8308 25.2705 11.8007 25.3312 11.8007C25.6136 11.7105 25.9276 11.7707 26.1466 11.9487C26.4606 12.2771 26.4606 12.7835 26.1149 13.0818C25.9276 13.2598 26.2099 13.5281 26.3972 13.3501C26.4606 13.2899 26.5239 13.2297 26.5529 13.142C26.8669 13.3501 27.0226 13.6484 27.0226 13.9768C26.9909 14.5133 26.5213 14.8994 25.9566 14.8994C25.7059 14.8693 25.7059 15.2278 25.9566 15.2579C26.1439 15.2579 26.3339 15.2278 26.4896 15.1676C26.6162 15.3456 26.6453 15.5261 26.6453 15.7342C26.6136 16.2406 26.2073 16.6292 25.6743 16.6292C25.6743 16.5413 25.6442 16.4558 25.6134 16.3681L25.6109 16.3609C25.6743 16.3008 25.7376 16.213 25.7666 16.1529C25.8616 15.9448 25.5159 15.7643 25.4209 16.0049C25.326 16.1529 25.2019 16.213 25.012 16.1829C24.793 16.1829 24.7613 16.5114 24.9803 16.5414C25.0753 16.5715 25.1676 16.5715 25.2626 16.5414C25.289 16.6868 25.289 16.8072 25.2573 16.9551ZM25.6954 13.2899C25.946 13.2598 25.9777 13.6183 25.727 13.6484H25.508C25.2573 13.6484 25.289 13.2899 25.5397 13.2899H25.6954Z" fill="#FF00B7"/>
<path fill-rule="evenodd" clip-rule="evenodd" d="M20.74 16.9551C20.835 17.2835 21.149 17.5217 21.5553 17.4916C21.9934 17.4916 22.339 17.1331 22.3074 16.7169C22.3074 16.4186 22.12 16.1504 21.8377 16.0325C21.6187 15.9423 21.7744 15.6164 21.9934 15.7041C22.0884 15.7643 22.1807 15.7944 22.244 15.852L22.2757 15.8821C22.5264 15.5838 22.5897 15.1676 22.4314 14.8392C22.3997 14.779 22.368 14.749 22.3364 14.6913C22.1807 14.8392 21.9591 14.9295 21.7401 14.9595C21.7401 15.0799 21.7084 15.1676 21.6767 15.288C21.5817 15.496 21.207 15.3481 21.2994 15.14C21.3944 14.962 21.3311 14.7515 21.1727 14.6336C20.9854 14.4857 21.2361 14.1874 21.4234 14.3353C21.5184 14.4256 21.5791 14.5133 21.6424 14.6336C21.9881 14.5434 22.2704 14.3052 22.3944 14.0069C22.4894 13.7386 22.4578 13.4102 22.2994 13.1721C22.2045 13.0517 22.1121 12.964 21.9854 12.9038L21.9779 12.9056C21.8538 12.9351 21.7322 12.964 21.6081 12.964C21.4524 12.964 21.3258 12.964 21.1701 12.9038C20.9511 12.8436 21.0435 12.5152 21.2968 12.5754C21.3918 12.6055 21.4841 12.6055 21.5791 12.6055C22.0804 12.5754 22.4261 12.1893 22.4261 11.7406C22.3944 11.2642 21.9881 10.9057 21.5158 10.9358C21.1701 10.9659 20.8561 11.1439 20.7321 11.4422H20.7638C20.8588 11.4723 20.9511 11.5024 21.0144 11.5325C21.0778 11.5024 21.1411 11.4422 21.2334 11.4122C21.4524 11.2918 21.6108 11.6503 21.3891 11.7406C21.2334 11.8007 21.1701 11.9487 21.1701 12.0991C21.2018 12.3372 20.8244 12.3673 20.7928 12.1292C20.7928 12.0389 20.7928 11.9512 20.8244 11.8609C20.7611 11.8308 20.6978 11.8007 20.6371 11.8007C20.3864 11.7105 20.0724 11.7707 19.8534 11.9487C19.5078 12.2771 19.5078 12.7835 19.8534 13.0818C20.0408 13.2598 19.7901 13.5281 19.6028 13.3501C19.5394 13.2899 19.4761 13.2297 19.4154 13.142C19.1331 13.3501 18.9774 13.6484 18.9774 13.9768C19.0091 14.5133 19.4787 14.8994 20.0118 14.8994C20.2624 14.8693 20.2941 15.2278 20.0434 15.2579C19.8561 15.2579 19.6661 15.2278 19.5104 15.1676C19.3838 15.3456 19.3231 15.5261 19.3547 15.7342C19.3547 16.2406 19.7927 16.6292 20.3257 16.6292C20.3257 16.5413 20.3558 16.4558 20.3866 16.3681L20.3891 16.3609C20.3257 16.3008 20.2624 16.213 20.2334 16.1529C20.1067 15.9448 20.4841 15.7643 20.5791 16.0049C20.6424 16.1529 20.7981 16.213 20.9564 16.1829C21.207 16.1829 21.2387 16.5114 20.988 16.5414C20.8931 16.5715 20.8007 16.5715 20.7374 16.5414C20.6767 16.6868 20.6767 16.8072 20.74 16.9551ZM20.302 13.2899C20.0513 13.2598 19.988 13.6183 20.2387 13.6484H20.4577C20.7083 13.6484 20.7083 13.2899 20.4577 13.2899H20.302Z" fill="#FF00B7"/>
<path d="M21.463 23.2426C21.4947 24.0173 22.1833 24.644 22.9987 24.644C23.814 24.644 24.5053 24.0173 24.5344 23.2426H21.463Z" fill="#FF00B7"/>
</g>
<defs>
<filter id="filter0_d_72_1167" x="0.848482" y="0.509089" width="44.303" height="44.303" filterUnits="userSpaceOnUse" color-interpolation-filters="sRGB">
<feFlood flood-opacity="0" result="BackgroundImageFix"/>
<feColorMatrix in="SourceAlpha" type="matrix" values="0 0 0 0 0 0 0 0 0 0 0 0 0 0 0 0 0 0 127 0" result="hardAlpha"/>
<feOffset dy="5.66061"/>
<feGaussianBlur stdDeviation="7.07576"/>
<feComposite in2="hardAlpha" operator="out"/>
<feColorMatrix type="matrix" values="0 0 0 0 1 0 0 0 0 0 0 0 0 0 0.717647 0 0 0 1 0"/>
<feBlend mode="normal" in2="BackgroundImageFix" result="effect1_dropShadow_72_1167"/>
<feBlend mode="normal" in="SourceGraphic" in2="effect1_dropShadow_72_1167" result="shape"/>
</filter>
</defs>
</svg>
