<svg width="94" height="93" viewBox="0 0 94 93" fill="none" xmlns="http://www.w3.org/2000/svg">
<g filter="url(#filter0_d_72_1169)">
<path d="M54.6468 65.9704C54.5201 69.9014 51.1321 73 46.9947 73C42.8573 73 39.4693 69.9014 39.216 65.9704H38.2134C35.0787 65.9704 33.3161 62.3905 35.5747 60.1342C33.0627 58.9408 32.82 55.7219 35.0681 54.1776V52.8639C34.8148 49.284 32.8094 46.787 30.6774 44.1597C27.796 40.7 24.7774 36.8894 24.7774 29.9802C24.7774 24.2542 27.2894 18.8993 31.3001 15.199C39.7015 7.09646 53.2536 6.97613 61.9083 14.6074C64.1669 16.5127 65.919 18.8993 67.175 21.3963C69.0537 25.3272 69.5603 29.9802 68.6843 34.2721C67.6816 38.5641 65.4229 41.4221 63.2909 44.1697C61.1589 46.787 59.1535 49.294 58.9002 52.8739V54.3079C59.0269 54.4283 59.1535 54.5486 59.2802 54.6689C61.0322 56.3336 60.5362 59.0812 58.4042 60.1542C60.5362 62.4205 58.9108 65.9905 55.7655 65.9905H54.6468V65.9704ZM40.852 65.9704C40.9786 69.069 43.7334 71.576 46.9947 71.576C50.2561 71.576 53.0214 69.069 53.1375 65.9704H40.852ZM38.0867 60.4851C35.4481 60.6055 35.4481 64.5364 38.2134 64.5364H55.7761C58.4147 64.5364 58.5308 60.6055 55.7761 60.4851H38.0867ZM37.2107 53.5759H46.2454V49.1636C45.7387 49.0433 45.2427 48.6823 44.8627 48.4516C44.3561 47.86 43.9867 47.138 43.9867 46.426C43.9867 45.5937 44.3666 44.992 44.8627 44.4003C45.3693 43.919 46.1187 43.568 46.9947 43.568C47.7441 43.568 48.504 43.929 49.0001 44.4003C49.6228 44.992 49.8761 45.5937 49.8761 46.426C49.8761 47.138 49.6228 47.86 49.0001 48.4516C48.7468 48.6923 48.2507 49.0433 47.7441 49.1636V53.5759H56.7788C56.9054 53.5759 57.1587 53.5759 57.4015 53.6962C57.5281 49.5246 58.4042 47.7396 62.0455 43.207C64.1775 40.7 66.4362 37.8421 67.1855 33.6705C67.9349 29.8599 67.5655 25.8086 65.9295 22.3489C64.8002 19.842 63.1748 17.5857 61.0322 15.7907C53.0002 8.52043 40.3348 8.64076 32.4295 16.1517C28.6615 19.7316 26.4028 24.6153 26.4028 29.9802C26.4028 36.4181 29.1576 39.9881 31.9229 43.3274C35.8069 48.0906 36.4402 49.7653 36.5669 53.5759C36.8307 53.5759 36.9574 53.5759 37.2107 53.5759ZM56.7788 55.0099H37.2107C34.4559 55.0099 34.4559 59.0612 37.2107 59.0612H56.7788C59.5441 59.0612 59.5441 55.0099 56.7788 55.0099ZM47.9974 45.4733C47.7441 45.2327 47.3747 45.1123 46.9947 45.1123C46.6148 45.1123 46.2454 45.2327 45.992 45.4733C45.7387 45.714 45.4854 46.065 45.4854 46.426C45.4854 46.787 45.7387 47.138 45.992 47.3786C46.2454 47.6193 46.6148 47.7396 46.9947 47.7396C47.3747 47.7396 47.7441 47.6193 47.9974 47.3786C48.2507 47.138 48.3774 46.787 48.3774 46.426C48.3774 46.065 48.2507 45.714 47.9974 45.4733ZM56.0294 40.8204C55.5228 42.134 54.2773 43.0867 52.768 42.9664C51.016 42.9664 49.6334 41.5324 49.6334 39.8677C49.76 38.6744 50.5094 37.6014 51.5121 37.1301C52.5147 36.7691 51.892 35.4655 50.8893 35.8164C50.5094 36.0571 50.2666 36.1774 49.8867 36.4081V36.5284C48.884 35.3351 48.504 33.6705 49.1373 32.3568C49.2639 32.1161 49.3906 31.9958 49.5173 31.7652C50.2666 32.3568 51.1532 32.7178 52.0292 32.8382C52.0292 33.3195 52.1559 33.6705 52.2825 34.1518C52.6625 34.9841 54.0346 34.3925 53.6652 33.5602C53.4119 32.8482 53.5385 32.0058 54.1718 31.5345C55.0478 30.9429 54.0451 29.7495 53.2958 30.3412C52.9158 30.7022 52.5464 31.0532 52.4197 31.5345C50.9105 31.1735 49.7811 30.2209 49.4117 29.0275C48.9051 27.9545 49.1584 26.6409 49.7917 25.6882C50.045 25.2069 50.541 24.8559 51.0477 24.6152C51.4276 24.7356 52.0503 24.8559 52.557 24.8559C53.0636 24.8559 53.6863 24.8559 54.1929 24.6152C55.1956 24.3746 54.6995 23.0609 53.8129 23.3016C53.433 23.4219 53.0636 23.4219 52.557 23.4219C50.6783 23.3016 49.169 21.7573 49.2956 19.9623C49.4223 18.057 51.0477 16.623 52.9369 16.7433C54.3196 16.8637 55.4489 17.5756 55.945 18.769C55.565 18.8893 55.1956 19.0096 54.9423 19.13C54.689 19.0096 54.3196 18.769 54.0663 18.6486C53.1902 18.1673 52.4303 19.6013 53.4435 19.9623C53.9502 20.203 54.3196 20.7946 54.1929 21.3963C54.0663 22.3489 55.5756 22.4693 55.7022 21.5166C55.8289 21.1556 55.8289 20.8046 55.7022 20.4436C55.8289 20.3233 56.0822 20.203 56.3249 20.203C57.4543 19.842 58.7102 20.0826 59.5863 20.7946C60.8423 22.1083 60.8423 24.1339 59.4596 25.3272C58.7102 26.0392 59.8396 27.1122 60.589 26.4002C60.8423 26.1596 61.0956 25.9189 61.2117 25.5679C62.4677 26.4002 63.0904 27.5935 63.0904 28.9072C62.9637 31.0532 61.085 32.5975 58.8263 32.5975C57.8237 32.4771 57.8237 33.9111 58.8263 34.0315C59.5757 34.0315 60.3356 33.9111 60.9584 33.6705C61.465 34.3825 61.5811 35.1045 61.5811 35.9368C61.4544 37.9624 59.829 39.5167 57.697 39.5167C57.697 39.1652 57.5769 38.8232 57.4537 38.4722C57.4504 38.4628 57.447 38.4533 57.4437 38.4438C57.697 38.2031 57.9503 37.8521 58.0664 37.6114C58.4464 36.7791 57.0637 36.0571 56.6838 37.0198C56.3038 37.6114 55.8078 37.8521 55.0478 37.7318C54.1718 37.7318 54.0451 39.0454 54.9212 39.1658C55.3011 39.2861 55.6705 39.2861 56.0505 39.1658C56.1561 39.7474 56.1561 40.2287 56.0294 40.8204ZM48.504 30.6922C48.2507 31.0532 47.9974 31.4042 47.7546 31.7652C46.8786 33.7908 47.248 36.0571 48.884 37.6014C48.3774 38.1931 48.1346 39.0354 48.1346 39.7474C48.008 42.2544 50.0133 44.4003 52.652 44.5107C54.0346 44.5107 55.1639 44.0293 56.04 43.3173C56.7893 42.7257 57.2959 41.8833 57.5492 40.9307C60.5573 40.9307 62.9426 38.7847 63.0693 35.9268C63.1959 34.8538 62.816 33.9011 62.3199 32.9485C63.5759 31.9958 64.4519 30.5618 64.5786 29.0175C64.5786 27.1122 63.5759 25.3272 61.9399 24.2542C62.6893 21.5166 60.5573 18.769 57.5492 18.5283C56.9265 16.7433 55.0373 15.4297 53.0319 15.3093C50.1505 15.189 47.8919 17.2146 47.7652 19.842C47.6385 21.3963 48.2718 22.8203 49.5173 23.7729C49.1373 24.1339 48.7679 24.4849 48.5146 24.9662C47.5119 26.2799 47.3852 27.9445 47.8919 29.4989C47.9974 29.8599 48.2507 30.3312 48.504 30.6922ZM57.9081 27.5935C58.9108 27.4732 58.7841 26.0392 57.7815 26.1596C57.5281 26.1596 57.4015 26.1596 57.1587 26.1596C56.1561 26.1596 56.0294 27.5935 57.0321 27.5935C57.412 27.5935 57.6548 27.5935 57.9081 27.5935ZM37.96 40.8204C38.34 42.134 39.596 43.0867 41.2214 42.9664C42.9734 42.9664 44.3561 41.5324 44.2294 39.8677C44.2294 38.6744 43.4801 37.6014 42.3507 37.1301C41.4747 36.7691 42.0974 35.4655 42.9734 35.8164C43.3534 36.0571 43.7228 36.1774 43.9761 36.4081L44.1028 36.5284C45.1055 35.3351 45.3588 33.6705 44.7255 32.3568C44.5988 32.1161 44.4722 31.9958 44.3455 31.7652C43.7228 32.3568 42.8362 32.7178 41.9602 32.8382C41.9602 33.3195 41.8336 33.6705 41.7069 34.1518C41.3269 34.9841 39.8282 34.3925 40.1976 33.5602C40.5776 32.8482 40.3243 32.0058 39.691 31.5345C38.9416 30.9429 39.9443 29.7495 40.6937 30.3412C41.0736 30.7022 41.3164 31.0532 41.5697 31.5345C42.9523 31.1735 44.0817 30.2209 44.5777 29.0275C44.9577 27.9545 44.831 26.6409 44.1978 25.6882C43.8178 25.2069 43.4484 24.8559 42.9418 24.6152C42.9317 24.6177 42.9215 24.6201 42.9114 24.6225C42.4153 24.7403 41.929 24.8559 41.4325 24.8559C40.8098 24.8559 40.3032 24.8559 39.6804 24.6152C38.8044 24.3746 39.1738 23.0609 40.1871 23.3016C40.567 23.4219 40.9364 23.4219 41.3164 23.4219C43.3217 23.3016 44.7044 21.7573 44.7044 19.9623C44.5777 18.057 42.9523 16.623 41.0631 16.7433C39.6804 16.8637 38.4244 17.5756 37.9284 18.769H38.055C38.435 18.8893 38.8044 19.0096 39.0577 19.13C39.311 19.0096 39.5643 18.769 39.9337 18.6486C40.8098 18.1673 41.443 19.6013 40.5565 19.9623C39.9337 20.203 39.6804 20.7946 39.6804 21.3963C39.8071 22.3489 38.2978 22.4693 38.1711 21.5166C38.1711 21.1556 38.1711 20.8046 38.2978 20.4436C38.0445 20.3233 37.7912 20.203 37.5484 20.203C36.5457 19.842 35.2898 20.0826 34.4137 20.7946C33.0311 22.1083 33.0311 24.1339 34.4137 25.3272C35.1631 26.0392 34.1604 27.1122 33.411 26.4002C33.1577 26.1596 32.9044 25.9189 32.6617 25.5679C31.5323 26.4002 30.9096 27.5935 30.9096 28.9072C31.0363 31.0532 32.915 32.5975 35.047 32.5975C36.0497 32.4771 36.1763 33.9111 35.1737 34.0315C34.4243 34.0315 33.6644 33.9111 33.0416 33.6705C32.535 34.3825 32.2923 35.1045 32.4189 35.9368C32.4189 37.9624 34.171 39.5167 36.303 39.5167C36.303 39.1652 36.4231 38.8233 36.5463 38.4723C36.5496 38.4628 36.553 38.4533 36.5563 38.4438C36.303 38.2031 36.0497 37.8521 35.9336 37.6114C35.427 36.7791 36.9363 36.0571 37.3162 37.0198C37.5695 37.6114 38.1922 37.8521 38.8255 37.7318C39.8282 37.7318 39.9549 39.0454 38.9522 39.1658C38.5722 39.2861 38.2028 39.2861 37.9495 39.1658C37.7067 39.7474 37.7067 40.2287 37.96 40.8204ZM45.3588 30.6922C45.7387 31.0532 45.9815 31.4042 46.1081 31.7652C47.1108 33.7908 46.6148 36.0571 45.1055 37.6014C45.4854 38.1931 45.7282 39.0354 45.7282 39.7474C45.8548 42.2544 43.8495 44.4003 41.2108 44.5107C39.9549 44.5107 38.6989 44.0293 37.8228 43.3173C37.0735 42.7257 36.5668 41.8833 36.3135 40.9307C33.4322 40.9307 30.9202 38.7847 30.7935 35.9268C30.7935 34.8538 31.0468 33.9011 31.6696 32.9485C30.2869 31.9958 29.4109 30.5618 29.4109 29.0175C29.2842 27.1122 30.2869 25.3272 32.0495 24.2542C31.3001 21.5166 33.3055 18.769 36.4402 18.5283C37.0629 16.7433 38.8255 15.4297 40.9575 15.3093C43.7123 15.189 46.0976 17.2146 46.2242 19.842C46.3509 21.3963 45.6015 22.8203 44.3455 23.7729C44.8522 24.1339 45.2216 24.4849 45.4749 24.9662C46.3509 26.2799 46.6042 27.9445 45.9815 29.4989C45.8654 29.8599 45.7387 30.3312 45.3588 30.6922ZM35.9547 27.5935C34.952 27.4732 35.2053 26.0392 36.208 26.1596C36.4613 26.1596 36.588 26.1596 36.8307 26.1596C37.8334 26.1596 37.8334 27.5935 36.8307 27.5935C36.5774 27.5935 36.3347 27.5935 35.9547 27.5935ZM21.78 49.0433C20.9039 49.5246 20.0279 48.3313 20.9039 47.85L25.168 44.8717C26.044 44.28 26.92 45.4633 26.044 46.065L21.78 49.0433ZM73.0855 47.86C73.8349 48.3413 72.9589 49.5246 72.2095 49.0533L67.8188 46.075C67.0694 45.4834 67.9455 44.29 68.8215 44.8817L73.0855 47.86ZM78.1095 24.8559C79.1121 24.7356 79.3655 26.1696 78.3628 26.2899L73.0961 27.1222C72.0934 27.2426 71.8401 25.8086 72.8428 25.6882L78.1095 24.8559ZM78.1095 36.0571C79.1121 36.2978 78.8588 37.7217 77.8562 37.4911L72.5894 36.4181C71.5868 36.2978 71.9667 34.8638 72.9694 35.1045L78.1095 36.0571ZM72.8322 13.1734C73.7082 12.5817 74.5843 13.765 73.7082 14.3667L69.3175 17.1043C68.4415 17.696 67.5655 16.3923 68.4415 15.911L72.8322 13.1734ZM15.6372 26.2799C14.6345 26.1596 14.8879 24.7256 15.8905 24.8459L21.1572 25.6782C22.1599 25.7985 21.9066 27.2325 20.9039 27.1122L15.6372 26.2799ZM16.1333 37.4911C15.1306 37.7318 14.8773 36.2978 15.7533 36.0571L21.02 35.1045C22.0227 34.8638 22.276 36.2978 21.2733 36.4181L16.1333 37.4911ZM20.2707 14.3667C19.3946 13.7751 20.2707 12.5817 21.02 13.1734L25.5374 15.911C25.7907 16.1517 25.9173 16.623 25.664 16.8637C25.4107 17.2247 25.0413 17.345 24.6613 17.1043L20.2707 14.3667Z" fill="#FF00B7"/>
<path fill-rule="evenodd" clip-rule="evenodd" d="M56.0294 40.8204C55.5228 42.134 54.2773 43.0867 52.768 42.9664C51.016 42.9664 49.6334 41.5324 49.6334 39.8677C49.76 38.6744 50.5094 37.6014 51.5121 37.1301C52.5147 36.7691 51.892 35.4655 50.8893 35.8164C50.5094 36.0571 50.2666 36.1774 49.8867 36.4081V36.5284C48.884 35.3351 48.504 33.6705 49.1373 32.3568C49.2639 32.1161 49.3906 31.9958 49.5173 31.7652C50.2666 32.3568 51.1532 32.7178 52.0292 32.8382C52.0292 33.3195 52.1559 33.6705 52.2825 34.1518C52.6625 34.9841 54.0346 34.3925 53.6652 33.5602C53.4119 32.8482 53.5385 32.0058 54.1718 31.5345C55.0478 30.9429 54.0451 29.7495 53.2958 30.3412C52.9158 30.7022 52.5464 31.0532 52.4197 31.5345C50.9105 31.1735 49.7811 30.2209 49.4117 29.0275C48.9051 27.9545 49.1584 26.6409 49.7917 25.6882C50.045 25.2069 50.541 24.8559 51.0477 24.6152C51.4276 24.7356 52.0503 24.8559 52.557 24.8559C53.0636 24.8559 53.6863 24.8559 54.1929 24.6152C55.1956 24.3746 54.6995 23.0609 53.8129 23.3016C53.433 23.4219 53.0636 23.4219 52.557 23.4219C50.6783 23.3016 49.169 21.7573 49.2956 19.9623C49.4223 18.057 51.0477 16.623 52.9369 16.7433C54.3196 16.8637 55.4489 17.5756 55.945 18.769C55.565 18.8893 55.1956 19.0096 54.9423 19.13C54.689 19.0096 54.3196 18.769 54.0663 18.6486C53.1902 18.1673 52.4303 19.6013 53.4435 19.9623C53.9502 20.203 54.3196 20.7946 54.1929 21.3963C54.0663 22.3489 55.5756 22.4693 55.7022 21.5166C55.8289 21.1556 55.8289 20.8046 55.7022 20.4436C55.8289 20.3233 56.0822 20.203 56.3249 20.203C57.4543 19.842 58.7102 20.0826 59.5863 20.7946C60.8423 22.1083 60.8423 24.1339 59.4596 25.3272C58.7102 26.0392 59.8396 27.1122 60.589 26.4002C60.8423 26.1596 61.0956 25.9189 61.2117 25.5679C62.4677 26.4002 63.0904 27.5935 63.0904 28.9072C62.9637 31.0532 61.085 32.5975 58.8263 32.5975C57.8237 32.4771 57.8237 33.9111 58.8263 34.0315C59.5757 34.0315 60.3356 33.9111 60.9584 33.6705C61.465 34.3825 61.5811 35.1045 61.5811 35.9368C61.4544 37.9624 59.829 39.5167 57.697 39.5167C57.697 39.1652 57.5769 38.8232 57.4537 38.4722L57.4437 38.4438C57.697 38.2031 57.9503 37.8521 58.0664 37.6114C58.4464 36.7791 57.0637 36.0571 56.6838 37.0198C56.3038 37.6114 55.8078 37.8521 55.0478 37.7318C54.1718 37.7318 54.0451 39.0454 54.9212 39.1658C55.3011 39.2861 55.6705 39.2861 56.0505 39.1658C56.1561 39.7474 56.1561 40.2287 56.0294 40.8204ZM57.7815 26.1596C58.7841 26.0392 58.9108 27.4732 57.9081 27.5935H57.0321C56.0294 27.5935 56.1561 26.1596 57.1587 26.1596H57.7815Z" fill="#FF00B7"/>
<path fill-rule="evenodd" clip-rule="evenodd" d="M37.96 40.8204C38.34 42.134 39.596 43.0867 41.2214 42.9664C42.9734 42.9664 44.3561 41.5324 44.2294 39.8677C44.2294 38.6744 43.4801 37.6014 42.3507 37.1301C41.4747 36.7691 42.0974 35.4655 42.9734 35.8164C43.3534 36.0571 43.7228 36.1774 43.9761 36.4081L44.1028 36.5284C45.1055 35.3351 45.3588 33.6705 44.7255 32.3568C44.5988 32.1161 44.4722 31.9958 44.3455 31.7652C43.7228 32.3568 42.8362 32.7178 41.9602 32.8382C41.9602 33.3195 41.8336 33.6705 41.7069 34.1518C41.3269 34.9841 39.8282 34.3925 40.1976 33.5602C40.5776 32.8482 40.3243 32.0058 39.691 31.5345C38.9416 30.9429 39.9443 29.7495 40.6937 30.3412C41.0736 30.7022 41.3164 31.0532 41.5697 31.5345C42.9523 31.1735 44.0817 30.2209 44.5777 29.0275C44.9577 27.9545 44.831 26.6409 44.1978 25.6882C43.8178 25.2069 43.4484 24.8559 42.9418 24.6152L42.9114 24.6225C42.4153 24.7403 41.929 24.8559 41.4325 24.8559C40.8098 24.8559 40.3032 24.8559 39.6804 24.6152C38.8044 24.3746 39.1738 23.0609 40.1871 23.3016C40.567 23.4219 40.9364 23.4219 41.3164 23.4219C43.3217 23.3016 44.7044 21.7573 44.7044 19.9623C44.5777 18.057 42.9523 16.623 41.0631 16.7433C39.6804 16.8637 38.4244 17.5756 37.9284 18.769H38.055C38.435 18.8893 38.8044 19.0096 39.0577 19.13C39.311 19.0096 39.5643 18.769 39.9337 18.6486C40.8098 18.1673 41.443 19.6013 40.5565 19.9623C39.9337 20.203 39.6804 20.7946 39.6804 21.3963C39.8071 22.3489 38.2978 22.4693 38.1711 21.5166C38.1711 21.1556 38.1711 20.8046 38.2978 20.4436C38.0445 20.3233 37.7912 20.203 37.5484 20.203C36.5457 19.842 35.2898 20.0826 34.4137 20.7946C33.0311 22.1083 33.0311 24.1339 34.4137 25.3272C35.1631 26.0392 34.1604 27.1122 33.411 26.4002C33.1577 26.1596 32.9044 25.9189 32.6617 25.5679C31.5323 26.4002 30.9096 27.5935 30.9096 28.9072C31.0363 31.0532 32.915 32.5975 35.047 32.5975C36.0497 32.4771 36.1763 33.9111 35.1737 34.0315C34.4243 34.0315 33.6644 33.9111 33.0416 33.6705C32.535 34.3825 32.2923 35.1045 32.4189 35.9368C32.4189 37.9624 34.171 39.5167 36.303 39.5167C36.303 39.1652 36.4231 38.8233 36.5463 38.4723L36.5563 38.4438C36.303 38.2031 36.0497 37.8521 35.9336 37.6114C35.427 36.7791 36.9363 36.0571 37.3162 37.0198C37.5695 37.6114 38.1922 37.8521 38.8255 37.7318C39.8282 37.7318 39.9549 39.0454 38.9522 39.1658C38.5722 39.2861 38.2028 39.2861 37.9495 39.1658C37.7067 39.7474 37.7067 40.2287 37.96 40.8204ZM36.208 26.1596C35.2053 26.0392 34.952 27.4732 35.9547 27.5935H36.8307C37.8334 27.5935 37.8334 26.1596 36.8307 26.1596H36.208Z" fill="#FF00B7"/>
<path d="M40.852 65.9704C40.9786 69.069 43.7334 71.576 46.9947 71.576C50.2561 71.576 53.0214 69.069 53.1375 65.9704H40.852Z" fill="#FF00B7"/>
</g>
<defs>
<filter id="filter0_d_72_1169" x="0.848482" y="0.509089" width="92.303" height="92.303" filterUnits="userSpaceOnUse" color-interpolation-filters="sRGB">
<feFlood flood-opacity="0" result="BackgroundImageFix"/>
<feColorMatrix in="SourceAlpha" type="matrix" values="0 0 0 0 0 0 0 0 0 0 0 0 0 0 0 0 0 0 127 0" result="hardAlpha"/>
<feOffset dy="5.66061"/>
<feGaussianBlur stdDeviation="7.07576"/>
<feComposite in2="hardAlpha" operator="out"/>
<feColorMatrix type="matrix" values="0 0 0 0 1 0 0 0 0 0 0 0 0 0 0.717647 0 0 0 1 0"/>
<feBlend mode="normal" in2="BackgroundImageFix" result="effect1_dropShadow_72_1169"/>
<feBlend mode="normal" in="SourceGraphic" in2="effect1_dropShadow_72_1169" result="shape"/>
</filter>
</defs>
</svg>
